RecursiveSans-CasualLightItalic.ufo
<glyph name="exclam" format="1">
  <advance width="350"/>
  <unicode hex="0021"/>
  <outline>
    <contour>
      <point x="196" y="243" type="line"/>
      <point x="223" y="320"/>
      <point x="246" y="397"/>
      <point x="266" y="473" type="curve"/>
      <point x="314" y="668" type="line" smooth="yes"/>
      <point x="322" y="700"/>
      <point x="310" y="710"/>
      <point x="266" y="710" type="curve" smooth="yes"/>
      <point x="256" y="710"/>
      <point x="248" y="709"/>
      <point x="241" y="707" type="curve"/>
      <point x="238" y="672"/>
      <point x="230" y="637"/>
      <point x="221" y="599" type="curve" smooth="yes"/>
      <point x="189" y="473" type="line"/>
      <point x="160" y="354"/>
      <point x="143" y="269"/>
      <point x="154" y="255" type="curve" smooth="yes"/>
      <point x="161" y="245"/>
      <point x="175" y="243"/>
      <point x="191" y="243" type="curve"/>
    </contour>
    <contour>
      <point x="176" y="8" type="curve"/>
      <point x="192" y="74" type="line" smooth="yes"/>
      <point x="201" y="109"/>
      <point x="180" y="129"/>
      <point x="130" y="129" type="curve" smooth="yes"/>
      <point x="108" y="129"/>
      <point x="90" y="125"/>
      <point x="74" y="116" type="curve"/>
      <point x="57" y="51" type="line" smooth="yes"/>
      <point x="49" y="15"/>
      <point x="69" y="-5"/>
      <point x="120" y="-5" type="curve" smooth="yes"/>
      <point x="142" y="-5"/>
      <point x="160" y="0"/>
    </contour>
  </outline>
</glyph>
<glyph name="quotedbl" format="1">
  <advance width="600"/>
  <unicode hex="0022"/>
  <outline>
    <contour>
      <point x="265" y="438" type="curve"/>
      <point x="338" y="689" type="line" smooth="yes"/>
      <point x="351" y="732"/>
      <point x="336" y="754"/>
      <point x="290" y="754" type="curve" smooth="yes"/>
      <point x="275" y="754"/>
      <point x="265" y="752"/>
      <point x="257" y="750" type="curve"/>
      <point x="260" y="727"/>
      <point x="259" y="719"/>
      <point x="247" y="662" type="curve" smooth="yes"/>
      <point x="209" y="473" type="line" smooth="yes"/>
      <point x="204" y="448"/>
      <point x="216" y="438"/>
      <point x="253" y="438" type="curve" smooth="yes"/>
      <point x="257" y="438"/>
      <point x="261" y="438"/>
    </contour>
    <contour>
      <point x="486" y="438" type="curve"/>
      <point x="556" y="678" type="line" smooth="yes"/>
      <point x="572" y="732"/>
      <point x="558" y="754"/>
      <point x="510" y="754" type="curve" smooth="yes"/>
      <point x="502" y="754"/>
      <point x="494" y="753"/>
      <point x="485" y="750" type="curve"/>
      <point x="431" y="473" type="line"/>
      <point x="426" y="448"/>
      <point x="438" y="438"/>
      <point x="475" y="438" type="curve" smooth="yes"/>
      <point x="479" y="438"/>
      <point x="482" y="438"/>
    </contour>
  </outline>
</glyph>
<glyph name="dollar" format="1">
  <advance width="600"/>
  <unicode hex="0024"/>
  <outline>
    <contour>
      <point x="492" y="720" type="curve" smooth="yes"/>
      <point x="331" y="720"/>
      <point x="176" y="610"/>
      <point x="149" y="503" type="curve" smooth="yes"/>
      <point x="146" y="493" type="line" smooth="yes"/>
      <point x="140" y="466"/>
      <point x="172" y="449"/>
      <point x="192" y="444" type="curve"/>
      <point x="194" y="464"/>
      <point x="198" y="482"/>
      <point x="203" y="502" type="curve" smooth="yes"/>
      <point x="224" y="586"/>
      <point x="356" y="665"/>
      <point x="478" y="665" type="curve" smooth="yes"/>
      <point x="545" y="665"/>
      <point x="578" y="650"/>
      <point x="609" y="627" type="curve"/>
      <point x="614" y="627" type="line"/>
      <point x="619" y="635"/>
      <point x="622" y="642"/>
      <point x="625" y="653" type="curve" smooth="yes"/>
      <point x="628" y="665"/>
      <point x="629" y="678"/>
      <point x="625" y="684" type="curve" smooth="yes"/>
      <point x="607" y="708"/>
      <point x="564" y="720"/>
    </contour>
    <contour>
      <point x="388" y="339" type="curve" smooth="yes"/>
      <point x="311" y="371" type="line" smooth="yes"/>
      <point x="191" y="418"/>
      <point x="192" y="457"/>
      <point x="203" y="502" type="curve" smooth="yes"/>
      <point x="208" y="522"/>
      <point x="213" y="538"/>
      <point x="223" y="566" type="curve"/>
      <point x="193" y="557"/>
      <point x="157" y="536"/>
      <point x="146" y="493" type="curve" smooth="yes"/>
      <point x="128" y="418"/>
      <point x="159" y="368"/>
      <point x="283" y="318" type="curve" smooth="yes"/>
      <point x="362" y="285" type="line" smooth="yes"/>
      <point x="449" y="250"/>
      <point x="462" y="204"/>
      <point x="444" y="131" type="curve" smooth="yes"/>
      <point x="443" y="125"/>
      <point x="441" y="118"/>
      <point x="440" y="113" type="curve"/>
      <point x="460" y="118"/>
      <point x="498" y="152"/>
      <point x="503" y="171" type="curve"/>
      <point x="521" y="241"/>
      <point x="486" y="300"/>
    </contour>
    <contour>
      <point x="231" y="-12" type="curve" smooth="yes"/>
      <point x="366" y="-12"/>
      <point x="474" y="56"/>
      <point x="501" y="165" type="curve" smooth="yes"/>
      <point x="503" y="171" type="line" smooth="yes"/>
      <point x="510" y="201"/>
      <point x="489" y="216"/>
      <point x="472" y="218" type="curve"/>
      <point x="471" y="214"/>
      <point x="469" y="208"/>
      <point x="466" y="196" type="curve" smooth="yes"/>
      <point x="442" y="99"/>
      <point x="361" y="43"/>
      <point x="245" y="43" type="curve" smooth="yes"/>
      <point x="143" y="43"/>
      <point x="84" y="72"/>
      <point x="53" y="135" type="curve"/>
      <point x="49" y="135" type="line"/>
      <point x="42" y="121"/>
      <point x="37" y="110"/>
      <point x="34" y="96" type="curve" smooth="yes"/>
      <point x="29" y="78"/>
      <point x="29" y="66"/>
      <point x="39" y="52" type="curve" smooth="yes"/>
      <point x="70" y="10"/>
      <point x="139" y="-12"/>
    </contour>
    <contour>
      <point x="374" y="408" type="line"/>
      <point x="517" y="828" type="line" smooth="yes"/>
      <point x="531" y="868"/>
      <point x="525" y="885"/>
      <point x="493" y="885" type="curve" smooth="yes"/>
      <point x="483" y="885"/>
      <point x="471" y="883"/>
      <point x="464" y="881" type="curve"/>
      <point x="464" y="856"/>
      <point x="462" y="834"/>
      <point x="450" y="793" type="curve"/>
      <point x="344" y="437" type="line" smooth="yes"/>
      <point x="338" y="418"/>
      <point x="349" y="408"/>
      <point x="370" y="408" type="curve" smooth="yes"/>
    </contour>
    <contour>
      <point x="282" y="253" type="line"/>
      <point x="146" y="-138" type="line" smooth="yes"/>
      <point x="131" y="-178"/>
      <point x="138" y="-195"/>
      <point x="171" y="-195" type="curve" smooth="yes"/>
      <point x="181" y="-195"/>
      <point x="192" y="-193"/>
      <point x="200" y="-191" type="curve"/>
      <point x="199" y="-166"/>
      <point x="202" y="-144"/>
      <point x="214" y="-103" type="curve"/>
      <point x="312" y="224" type="line" smooth="yes"/>
      <point x="318" y="242"/>
      <point x="308" y="253"/>
      <point x="286" y="253" type="curve" smooth="yes"/>
    </contour>
  </outline>
</glyph>
<glyph name="quotesingle" format="1">
  <advance width="250"/>
  <unicode hex="0027"/>
  <outline>
    <contour>
      <point x="206" y="438" type="curve"/>
      <point x="276" y="678" type="line" smooth="yes"/>
      <point x="292" y="732"/>
      <point x="278" y="754"/>
      <point x="227" y="754" type="curve" smooth="yes"/>
      <point x="217" y="754"/>
      <point x="206" y="752"/>
      <point x="199" y="750" type="curve"/>
      <point x="201" y="727"/>
      <point x="200" y="719"/>
      <point x="188" y="662" type="curve" smooth="yes"/>
      <point x="151" y="473" type="line" smooth="yes"/>
      <point x="146" y="448"/>
      <point x="158" y="438"/>
      <point x="195" y="438" type="curve" smooth="yes"/>
      <point x="199" y="438"/>
      <point x="203" y="438"/>
    </contour>
  </outline>
</glyph>
<glyph name="parenleft" format="1">
  <advance width="400"/>
  <unicode hex="0028"/>
  <outline>
    <contour>
      <point x="442" y="754" type="curve" smooth="yes"/>
      <point x="296" y="637"/>
      <point x="192" y="482"/>
      <point x="146" y="301" type="curve" smooth="yes"/>
      <point x="145" y="297" type="line" smooth="yes"/>
      <point x="100" y="116"/>
      <point x="126" y="-40"/>
      <point x="214" y="-156" type="curve" smooth="yes"/>
      <point x="222" y="-167"/>
      <point x="230" y="-172"/>
      <point x="243" y="-172" type="curve" smooth="yes"/>
      <point x="262" y="-172"/>
      <point x="276" y="-166"/>
      <point x="288" y="-160" type="curve"/>
      <point x="289" y="-156" type="line"/>
      <point x="184" y="-28"/>
      <point x="159" y="122"/>
      <point x="203" y="297" type="curve" smooth="yes"/>
      <point x="204" y="301" type="line" smooth="yes"/>
      <point x="247" y="475"/>
      <point x="347" y="626"/>
      <point x="516" y="754" type="curve"/>
      <point x="517" y="758" type="line"/>
      <point x="508" y="764"/>
      <point x="497" y="770"/>
      <point x="478" y="770" type="curve" smooth="yes"/>
      <point x="466" y="770"/>
      <point x="456" y="765"/>
    </contour>
  </outline>
</glyph>
<glyph name="parenright" format="1">
  <advance width="400"/>
  <unicode hex="0029"/>
  <outline>
    <contour>
      <point x="-24" y="-156" type="curve" smooth="yes"/>
      <point x="122" y="-39"/>
      <point x="226" y="116"/>
      <point x="271" y="297" type="curve" smooth="yes"/>
      <point x="273" y="301" type="line" smooth="yes"/>
      <point x="318" y="483"/>
      <point x="291" y="638"/>
      <point x="204" y="754" type="curve" smooth="yes"/>
      <point x="195" y="766"/>
      <point x="187" y="770"/>
      <point x="175" y="770" type="curve" smooth="yes"/>
      <point x="156" y="770"/>
      <point x="142" y="764"/>
      <point x="130" y="758" type="curve"/>
      <point x="129" y="754" type="line"/>
      <point x="234" y="626"/>
      <point x="259" y="476"/>
      <point x="215" y="301" type="curve" smooth="yes"/>
      <point x="214" y="297" type="line" smooth="yes"/>
      <point x="171" y="124"/>
      <point x="70" y="-28"/>
      <point x="-98" y="-155" type="curve"/>
      <point x="-99" y="-159" type="line"/>
      <point x="-90" y="-166"/>
      <point x="-79" y="-172"/>
      <point x="-61" y="-172" type="curve" smooth="yes"/>
      <point x="-48" y="-172"/>
      <point x="-38" y="-167"/>
    </contour>
  </outline>
</glyph>
<glyph name="asterisk" format="1">
  <advance width="500"/>
  <unicode hex="002A"/>
  <outline>
    <contour>
      <point x="345" y="766" type="curve"/>
      <point x="346" y="752"/>
      <point x="347" y="741"/>
      <point x="342" y="722" type="curve" smooth="yes"/>
      <point x="309" y="556" type="line"/>
      <point x="255" y="394" type="line" smooth="yes"/>
      <point x="243" y="361"/>
      <point x="247" y="344"/>
      <point x="279" y="344" type="curve"/>
      <point x="286" y="344"/>
      <point x="294" y="345"/>
      <point x="303" y="348" type="curve"/>
      <point x="301" y="361"/>
      <point x="302" y="373"/>
      <point x="305" y="390" type="curve" smooth="yes"/>
      <point x="339" y="556" type="line"/>
      <point x="392" y="719" type="line" smooth="yes"/>
      <point x="403" y="752"/>
      <point x="401" y="770"/>
      <point x="368" y="770" type="curve" smooth="yes"/>
      <point x="360" y="769"/>
      <point x="354" y="768"/>
    </contour>
    <contour>
      <point x="525" y="685" type="curve"/>
      <point x="317" y="570" type="line"/>
      <point x="132" y="489" type="line" smooth="yes"/>
      <point x="115" y="482"/>
      <point x="107" y="463"/>
      <point x="115" y="446" type="curve"/>
      <point x="117" y="438"/>
      <point x="120" y="434"/>
      <point x="123" y="429" type="curve"/>
      <point x="331" y="545" type="line"/>
      <point x="517" y="627" type="line" smooth="yes"/>
      <point x="533" y="634"/>
      <point x="538" y="650"/>
      <point x="533" y="668" type="curve" smooth="yes"/>
      <point x="532" y="675"/>
      <point x="530" y="681"/>
    </contour>
    <contour>
      <point x="499" y="477" type="curve"/>
      <point x="337" y="569" type="line"/>
      <point x="205" y="672" type="line" smooth="yes"/>
      <point x="193" y="681"/>
      <point x="177" y="677"/>
      <point x="161" y="659" type="curve"/>
      <point x="156" y="653"/>
      <point x="152" y="646"/>
      <point x="148" y="639" type="curve"/>
      <point x="310" y="544" type="line"/>
      <point x="442" y="441" type="line" smooth="yes"/>
      <point x="454" y="432"/>
      <point x="469" y="438"/>
      <point x="485" y="456" type="curve"/>
      <point x="492" y="464"/>
      <point x="495" y="470"/>
    </contour>
  </outline>
</glyph>
<glyph name="plus" format="1">
  <advance width="600"/>
  <unicode hex="002B"/>
  <outline>
    <contour>
      <point x="75" y="328" type="line"/>
      <point x="75" y="325"/>
      <point x="74" y="320"/>
      <point x="73" y="317" type="curve" smooth="yes"/>
      <point x="68" y="299"/>
      <point x="68" y="287"/>
      <point x="75" y="278" type="curve" smooth="yes"/>
      <point x="78" y="274"/>
      <point x="82" y="272"/>
      <point x="89" y="272" type="curve"/>
      <point x="543" y="272" type="line"/>
      <point x="544" y="276"/>
      <point x="546" y="281"/>
      <point x="547" y="285" type="curve" smooth="yes"/>
      <point x="553" y="310"/>
      <point x="552" y="328"/>
      <point x="532" y="328" type="curve"/>
    </contour>
    <contour>
      <point x="277" y="60" type="curve"/>
      <point x="378" y="465" type="line" smooth="yes"/>
      <point x="385" y="494"/>
      <point x="388" y="515"/>
      <point x="379" y="528" type="curve" smooth="yes"/>
      <point x="371" y="538"/>
      <point x="359" y="541"/>
      <point x="348" y="541" type="curve" smooth="yes"/>
      <point x="342" y="541"/>
      <point x="336" y="540"/>
      <point x="330" y="537" type="curve"/>
      <point x="332" y="510"/>
      <point x="330" y="496"/>
      <point x="319" y="449" type="curve" smooth="yes"/>
      <point x="228" y="85" type="line" smooth="yes"/>
      <point x="223" y="65"/>
      <point x="240" y="59"/>
      <point x="264" y="59" type="curve" smooth="yes"/>
      <point x="268" y="59"/>
      <point x="273" y="60"/>
    </contour>
  </outline>
</glyph>
<glyph name="comma" format="1">
  <advance width="350"/>
  <unicode hex="002C"/>
  <outline>
    <contour>
      <point x="22" y="-191" type="curve" smooth="yes"/>
      <point x="34" y="-191"/>
      <point x="40" y="-188"/>
      <point x="47" y="-182" type="curve"/>
      <point x="110" y="-133"/>
      <point x="182" y="-36"/>
      <point x="215" y="97" type="curve"/>
      <point x="222" y="126"/>
      <point x="199" y="134"/>
      <point x="175" y="134" type="curve" smooth="yes"/>
      <point x="159" y="134"/>
      <point x="148" y="132"/>
      <point x="136" y="127" type="curve"/>
      <point x="98" y="-23"/>
      <point x="67" y="-83"/>
      <point x="-17" y="-178" type="curve"/>
      <point x="-5" y="-187"/>
      <point x="4" y="-191"/>
    </contour>
  </outline>
</glyph>
<glyph name="period" format="1">
  <advance width="300"/>
  <unicode hex="002E"/>
  <outline>
    <contour>
      <point x="151" y="8" type="curve"/>
      <point x="167" y="74" type="line" smooth="yes"/>
      <point x="176" y="109"/>
      <point x="155" y="129"/>
      <point x="105" y="129" type="curve" smooth="yes"/>
      <point x="83" y="129"/>
      <point x="65" y="125"/>
      <point x="49" y="116" type="curve"/>
      <point x="32" y="51" type="line" smooth="yes"/>
      <point x="24" y="15"/>
      <point x="44" y="-5"/>
      <point x="95" y="-5" type="curve" smooth="yes"/>
      <point x="117" y="-5"/>
      <point x="135" y="0"/>
    </contour>
  </outline>
</glyph>
<glyph name="slash" format="1">
  <advance width="600"/>
  <unicode hex="002F"/>
  <outline>
    <contour>
      <point x="645" y="750" type="curve"/>
      <point x="638" y="754"/>
      <point x="631" y="757"/>
      <point x="619" y="757" type="curve" smooth="yes"/>
      <point x="603" y="757"/>
      <point x="584" y="753"/>
      <point x="574" y="732" type="curve" smooth="yes"/>
      <point x="429" y="445"/>
      <point x="259" y="179"/>
      <point x="62" y="-60" type="curve" smooth="yes"/>
      <point x="37" y="-91"/>
      <point x="18" y="-112"/>
      <point x="-6" y="-132" type="curve"/>
      <point x="3" y="-137"/>
      <point x="12" y="-139"/>
      <point x="25" y="-139" type="curve" smooth="yes"/>
      <point x="48" y="-139"/>
      <point x="66" y="-133"/>
      <point x="85" y="-111" type="curve"/>
      <point x="296" y="138"/>
      <point x="483" y="425"/>
    </contour>
  </outline>
</glyph>
<glyph name="zero" format="1">
  <advance width="600"/>
  <unicode hex="0030"/>
  <outline>
    <contour>
      <point x="408" y="720" type="curve" smooth="yes"/>
      <point x="281" y="720"/>
      <point x="160" y="617"/>
      <point x="103" y="382" type="curve" smooth="yes"/>
      <point x="92" y="332" type="line" smooth="yes"/>
      <point x="39" y="116"/>
      <point x="99" y="-20"/>
      <point x="234" y="-20" type="curve"/>
      <point x="254" y="-20"/>
      <point x="264" y="-1"/>
      <point x="269" y="14" type="curve"/>
      <point x="103" y="32"/>
      <point x="119" y="211"/>
      <point x="148" y="336" type="curve" smooth="yes"/>
      <point x="158" y="380" type="line" smooth="yes"/>
      <point x="199" y="553"/>
      <point x="282" y="665"/>
      <point x="401" y="665" type="curve" smooth="yes"/>
      <point x="444" y="665"/>
      <point x="479" y="655"/>
      <point x="509" y="637" type="curve"/>
      <point x="519" y="665"/>
      <point x="478" y="720"/>
    </contour>
    <contour>
      <point x="234" y="-20" type="curve" smooth="yes"/>
      <point x="362" y="-20"/>
      <point x="483" y="85"/>
      <point x="540" y="320" type="curve" smooth="yes"/>
      <point x="551" y="369" type="line" smooth="yes"/>
      <point x="604" y="587"/>
      <point x="544" y="720"/>
      <point x="408" y="720" type="curve"/>
      <point x="389" y="720"/>
      <point x="379" y="701"/>
      <point x="375" y="686" type="curve"/>
      <point x="540" y="668"/>
      <point x="527" y="491"/>
      <point x="496" y="365" type="curve" smooth="yes"/>
      <point x="485" y="322" type="line" smooth="yes"/>
      <point x="441" y="151"/>
      <point x="362" y="35"/>
      <point x="243" y="35" type="curve" smooth="yes"/>
      <point x="200" y="35"/>
      <point x="163" y="44"/>
      <point x="132" y="63" type="curve"/>
      <point x="121" y="30"/>
      <point x="168" y="-20"/>
    </contour>
  </outline>
</glyph>
<glyph name="one" format="1">
  <advance width="600"/>
  <unicode hex="0031"/>
  <outline>
    <contour>
      <point x="304" y="28" type="curve"/>
      <point x="359" y="248"/>
      <point x="414" y="468"/>
      <point x="469" y="686" type="curve" smooth="yes"/>
      <point x="473" y="705"/>
      <point x="455" y="710"/>
      <point x="431" y="710" type="curve" smooth="yes"/>
      <point x="420" y="710" type="line"/>
      <point x="369" y="510"/>
      <point x="318" y="306"/>
      <point x="268" y="105" type="curve" smooth="yes"/>
      <point x="255" y="53"/>
      <point x="265" y="28"/>
    </contour>
    <contour>
      <point x="28" y="55" type="line"/>
      <point x="25" y="51"/>
      <point x="22" y="46"/>
      <point x="21" y="39" type="curve" smooth="yes"/>
      <point x="17" y="25"/>
      <point x="17" y="15"/>
      <point x="23" y="8" type="curve" smooth="yes"/>
      <point x="27" y="2"/>
      <point x="32" y="0"/>
      <point x="44" y="0" type="curve" smooth="yes"/>
      <point x="489" y="0" type="line"/>
      <point x="490" y="3"/>
      <point x="491" y="7"/>
      <point x="491" y="10" type="curve" smooth="yes"/>
      <point x="498" y="35"/>
      <point x="420" y="55"/>
      <point x="301" y="55" type="curve" smooth="yes"/>
    </contour>
    <contour>
      <point x="169" y="472" type="curve" smooth="yes"/>
      <point x="194" y="472"/>
      <point x="270" y="519"/>
      <point x="322" y="560" type="curve" smooth="yes"/>
      <point x="370" y="599"/>
      <point x="424" y="657"/>
      <point x="431" y="684" type="curve" smooth="yes"/>
      <point x="435" y="700"/>
      <point x="432" y="710"/>
      <point x="423" y="710" type="curve"/>
      <point x="401" y="710" type="line"/>
      <point x="371" y="675"/>
      <point x="342" y="644"/>
      <point x="301" y="611" type="curve"/>
      <point x="249" y="569"/>
      <point x="207" y="545"/>
      <point x="162" y="527" type="curve"/>
      <point x="160" y="519" type="line" smooth="yes"/>
      <point x="149" y="484"/>
      <point x="161" y="472"/>
    </contour>
  </outline>
</glyph>
<glyph name="two" format="1">
  <advance width="600"/>
  <unicode hex="0032"/>
  <outline>
    <contour>
      <point x="496" y="666" type="curve"/>
      <point x="520" y="625"/>
      <point x="536" y="583"/>
      <point x="522" y="526" type="curve" smooth="yes"/>
      <point x="500" y="439"/>
      <point x="432" y="371"/>
      <point x="274" y="286" type="curve" smooth="yes"/>
      <point x="127" y="210"/>
      <point x="45" y="149"/>
      <point x="19" y="44" type="curve" smooth="yes"/>
      <point x="16" y="33"/>
      <point x="27" y="29"/>
      <point x="70" y="29" type="curve"/>
      <point x="91" y="112"/>
      <point x="137" y="153"/>
      <point x="319" y="250" type="curve" smooth="yes"/>
      <point x="455" y="323"/>
      <point x="545" y="390"/>
      <point x="574" y="505" type="curve" smooth="yes"/>
      <point x="577" y="517" type="line" smooth="yes"/>
      <point x="595" y="589"/>
      <point x="555" y="683"/>
    </contour>
    <contour>
      <point x="460" y="0" type="line"/>
      <point x="461" y="4"/>
      <point x="463" y="9"/>
      <point x="464" y="13" type="curve" smooth="yes"/>
      <point x="470" y="37"/>
      <point x="469" y="55"/>
      <point x="449" y="55" type="curve" smooth="yes"/>
      <point x="78" y="55" type="line" smooth="yes"/>
      <point x="58" y="55"/>
      <point x="39" y="53"/>
      <point x="19" y="44" type="curve"/>
      <point x="19" y="42"/>
      <point x="18" y="41"/>
      <point x="18" y="40" type="curve" smooth="yes"/>
      <point x="13" y="24"/>
      <point x="18" y="0"/>
      <point x="33" y="0" type="curve" smooth="yes"/>
    </contour>
    <contour>
      <point x="412" y="720" type="curve" smooth="yes"/>
      <point x="341" y="720"/>
      <point x="287" y="705"/>
      <point x="241" y="669" type="curve" smooth="yes"/>
      <point x="201" y="638"/>
      <point x="171" y="598"/>
      <point x="161" y="560" type="curve" smooth="yes"/>
      <point x="157" y="541"/>
      <point x="168" y="515"/>
      <point x="179" y="505" type="curve"/>
      <point x="184" y="505" type="line"/>
      <point x="232" y="613"/>
      <point x="303" y="665"/>
      <point x="399" y="665" type="curve" smooth="yes"/>
      <point x="507" y="665"/>
      <point x="554" y="601"/>
      <point x="536" y="529" type="curve" smooth="yes"/>
      <point x="531" y="510"/>
      <point x="525" y="492"/>
      <point x="515" y="472" type="curve"/>
      <point x="539" y="472"/>
      <point x="571" y="492"/>
      <point x="577" y="517" type="curve" smooth="yes"/>
      <point x="606" y="635"/>
      <point x="533" y="720"/>
    </contour>
  </outline>
</glyph>
<glyph name="three" format="1">
  <advance width="600"/>
  <unicode hex="0033"/>
  <outline>
    <contour>
      <point x="389" y="664" type="curve" smooth="yes"/>
      <point x="521" y="664"/>
      <point x="552" y="589"/>
      <point x="527" y="492" type="curve" smooth="yes"/>
      <point x="525" y="482"/>
      <point x="521" y="471"/>
      <point x="515" y="458" type="curve"/>
      <point x="535" y="458"/>
      <point x="569" y="471"/>
      <point x="579" y="508" type="curve" smooth="yes"/>
      <point x="581" y="517" type="line" smooth="yes"/>
      <point x="609" y="629"/>
      <point x="543" y="719"/>
      <point x="401" y="719" type="curve" smooth="yes"/>
      <point x="314" y="719"/>
      <point x="262" y="700"/>
      <point x="216" y="669" type="curve" smooth="yes"/>
      <point x="188" y="647"/>
      <point x="178" y="636"/>
      <point x="172" y="615" type="curve" smooth="yes"/>
      <point x="168" y="601"/>
      <point x="169" y="585"/>
      <point x="171" y="571" type="curve"/>
      <point x="176" y="571" type="line"/>
      <point x="243" y="639"/>
      <point x="298" y="664"/>
    </contour>
    <contour>
      <point x="208" y="302" type="curve" smooth="yes"/>
      <point x="407" y="302"/>
      <point x="542" y="362"/>
      <point x="579" y="508" type="curve" smooth="yes"/>
      <point x="586" y="537"/>
      <point x="562" y="579"/>
      <point x="541" y="582" type="curve"/>
      <point x="540" y="566"/>
      <point x="538" y="554"/>
      <point x="532" y="532" type="curve" smooth="yes"/>
      <point x="500" y="400"/>
      <point x="366" y="343"/>
      <point x="195" y="343" type="curve"/>
      <point x="192" y="337"/>
      <point x="189" y="331"/>
      <point x="188" y="324" type="curve" smooth="yes"/>
      <point x="185" y="313"/>
      <point x="192" y="302"/>
    </contour>
    <contour>
      <point x="201" y="289" type="curve" smooth="yes"/>
      <point x="367" y="289"/>
      <point x="473" y="243"/>
      <point x="447" y="139" type="curve" smooth="yes"/>
      <point x="443" y="122"/>
      <point x="441" y="113"/>
      <point x="434" y="101" type="curve"/>
      <point x="460" y="105"/>
      <point x="492" y="125"/>
      <point x="500" y="152" type="curve" smooth="yes"/>
      <point x="528" y="263"/>
      <point x="433" y="334"/>
      <point x="192" y="334" type="curve"/>
      <point x="189" y="331"/>
      <point x="189" y="328"/>
      <point x="188" y="324" type="curve" smooth="yes"/>
      <point x="183" y="307"/>
      <point x="184" y="289"/>
    </contour>
    <contour>
      <point x="242" y="35" type="curve" smooth="yes"/>
      <point x="140" y="35"/>
      <point x="87" y="69"/>
      <point x="52" y="137" type="curve"/>
      <point x="48" y="137" type="line"/>
      <point x="42" y="126"/>
      <point x="39" y="118"/>
      <point x="35" y="102" type="curve" smooth="yes"/>
      <point x="31" y="84"/>
      <point x="32" y="70"/>
      <point x="45" y="52" type="curve" smooth="yes"/>
      <point x="76" y="11"/>
      <point x="137" y="-20"/>
      <point x="236" y="-20" type="curve" smooth="yes"/>
      <point x="381" y="-20"/>
      <point x="471" y="35"/>
      <point x="498" y="143" type="curve" smooth="yes"/>
      <point x="500" y="152" type="line" smooth="yes"/>
      <point x="509" y="186"/>
      <point x="485" y="212"/>
      <point x="468" y="214" type="curve"/>
      <point x="466" y="206"/>
      <point x="463" y="197"/>
      <point x="461" y="187" type="curve" smooth="yes"/>
      <point x="436" y="89"/>
      <point x="369" y="35"/>
    </contour>
  </outline>
</glyph>
<glyph name="four" format="1">
  <advance width="600"/>
  <unicode hex="0034"/>
  <outline>
    <contour>
      <point x="82" y="183" type="curve"/>
      <point x="168" y="349"/>
      <point x="418" y="601"/>
      <point x="586" y="696" type="curve"/>
      <point x="587" y="700" type="line"/>
      <point x="574" y="710"/>
      <point x="559" y="716"/>
      <point x="536" y="716" type="curve" smooth="yes"/>
      <point x="517" y="716"/>
      <point x="502" y="711"/>
      <point x="433" y="659" type="curve" smooth="yes"/>
      <point x="243" y="514"/>
      <point x="57" y="288"/>
      <point x="36" y="204" type="curve" smooth="yes"/>
      <point x="32" y="188"/>
      <point x="64" y="183"/>
    </contour>
    <contour>
      <point x="537" y="150" type="line"/>
      <point x="537" y="154"/>
      <point x="539" y="159"/>
      <point x="540" y="162" type="curve" smooth="yes"/>
      <point x="546" y="185"/>
      <point x="545" y="205"/>
      <point x="526" y="205" type="curve" smooth="yes"/>
      <point x="278" y="205" type="line"/>
      <point x="200" y="205"/>
      <point x="116" y="205"/>
      <point x="36" y="204" type="curve"/>
      <point x="35" y="199" type="line" smooth="yes"/>
      <point x="31" y="181"/>
      <point x="33" y="164"/>
      <point x="39" y="156" type="curve" smooth="yes"/>
      <point x="42" y="152"/>
      <point x="46" y="150"/>
      <point x="52" y="150" type="curve" smooth="yes"/>
    </contour>
    <contour>
      <point x="416" y="-6" type="curve"/>
      <point x="416" y="28"/>
      <point x="419" y="51"/>
      <point x="430" y="100" type="curve" smooth="yes"/>
      <point x="493" y="350" type="line" smooth="yes"/>
      <point x="495" y="359"/>
      <point x="487" y="376"/>
      <point x="456" y="376" type="curve" smooth="yes"/>
      <point x="446" y="376" type="line"/>
      <point x="430" y="313"/>
      <point x="412" y="249"/>
      <point x="396" y="186" type="curve"/>
      <point x="364" y="60" type="line" smooth="yes"/>
      <point x="350" y="2"/>
      <point x="366" y="-10"/>
      <point x="392" y="-10" type="curve" smooth="yes"/>
      <point x="401" y="-10"/>
      <point x="410" y="-9"/>
    </contour>
  </outline>
</glyph>
<glyph name="six" format="1">
  <advance width="600"/>
  <unicode hex="0036"/>
  <outline>
    <contour>
      <point x="116" y="113" type="curve"/>
      <point x="102" y="44"/>
      <point x="168" y="-20"/>
      <point x="259" y="-20" type="curve"/>
      <point x="396" y="-20"/>
      <point x="469" y="53"/>
      <point x="501" y="177" type="curve" smooth="yes"/>
      <point x="502" y="182" type="line" smooth="yes"/>
      <point x="524" y="269"/>
      <point x="483" y="340"/>
      <point x="427" y="323" type="curve"/>
      <point x="457" y="280"/>
      <point x="462" y="244"/>
      <point x="448" y="188" type="curve" smooth="yes"/>
      <point x="446" y="182" type="line" smooth="yes"/>
      <point x="424" y="90"/>
      <point x="371" y="32"/>
      <point x="270" y="32" type="curve" smooth="yes"/>
      <point x="203" y="32"/>
      <point x="167" y="51"/>
    </contour>
    <contour>
      <point x="231" y="588" type="curve"/>
      <point x="299" y="639"/>
      <point x="348" y="665"/>
      <point x="428" y="665" type="curve" smooth="yes"/>
      <point x="496" y="665"/>
      <point x="548" y="648"/>
      <point x="575" y="613" type="curve"/>
      <point x="579" y="613" type="line"/>
      <point x="584" y="621"/>
      <point x="587" y="628"/>
      <point x="590" y="638" type="curve" smooth="yes"/>
      <point x="594" y="657"/>
      <point x="592" y="670"/>
      <point x="586" y="678" type="curve" smooth="yes"/>
      <point x="568" y="702"/>
      <point x="511" y="720"/>
      <point x="443" y="720" type="curve" smooth="yes"/>
      <point x="351" y="720"/>
      <point x="223" y="660"/>
    </contour>
    <contour>
      <point x="97" y="359" type="curve" smooth="yes"/>
      <point x="94" y="346" type="line" smooth="yes"/>
      <point x="37" y="103"/>
      <point x="99" y="-20"/>
      <point x="259" y="-20" type="curve" smooth="yes"/>
      <point x="272" y="-20"/>
      <point x="292" y="-5"/>
      <point x="297" y="12" type="curve"/>
      <point x="150" y="13"/>
      <point x="95" y="123"/>
      <point x="151" y="346" type="curve" smooth="yes"/>
      <point x="154" y="358" type="line" smooth="yes"/>
      <point x="213" y="597"/>
      <point x="298" y="686"/>
      <point x="456" y="690" type="curve"/>
      <point x="461" y="705"/>
      <point x="453" y="720"/>
      <point x="443" y="720" type="curve" smooth="yes"/>
      <point x="258" y="719"/>
      <point x="158" y="619"/>
    </contour>
    <contour>
      <point x="331" y="386" type="curve" smooth="yes"/>
      <point x="245" y="386"/>
      <point x="171" y="357"/>
      <point x="123" y="320" type="curve" smooth="yes"/>
      <point x="114" y="312"/>
      <point x="105" y="292"/>
      <point x="97" y="262" type="curve"/>
      <point x="164" y="309"/>
      <point x="239" y="332"/>
      <point x="316" y="332" type="curve" smooth="yes"/>
      <point x="431" y="332"/>
      <point x="488" y="262"/>
      <point x="461" y="154" type="curve" smooth="yes"/>
      <point x="459" y="145"/>
      <point x="455" y="134"/>
      <point x="451" y="126" type="curve"/>
      <point x="471" y="126"/>
      <point x="497" y="162"/>
      <point x="502" y="182" type="curve" smooth="yes"/>
      <point x="534" y="310"/>
      <point x="450" y="386"/>
    </contour>
  </outline>
</glyph>
<glyph name="seven" format="1">
  <advance width="600"/>
  <unicode hex="0037"/>
  <outline>
    <contour>
      <point x="566" y="645" type="line" smooth="yes"/>
      <point x="588" y="645"/>
      <point x="606" y="645"/>
      <point x="619" y="645" type="curve"/>
      <point x="621" y="656" type="line"/>
      <point x="627" y="679"/>
      <point x="626" y="700"/>
      <point x="607" y="700" type="curve"/>
      <point x="209" y="700" type="line"/>
      <point x="207" y="691" type="line" smooth="yes"/>
      <point x="199" y="659"/>
      <point x="202" y="645"/>
      <point x="220" y="645" type="curve" smooth="yes"/>
    </contour>
    <contour>
      <point x="234" y="-10" type="line"/>
      <point x="291" y="213"/>
      <point x="577" y="480"/>
      <point x="619" y="645" type="curve" smooth="yes"/>
      <point x="623" y="663"/>
      <point x="593" y="663"/>
      <point x="561" y="662" type="curve"/>
      <point x="519" y="494"/>
      <point x="230" y="219"/>
      <point x="179" y="16" type="curve" smooth="yes"/>
      <point x="175" y="-3"/>
      <point x="200" y="-10"/>
      <point x="223" y="-10" type="curve" smooth="yes"/>
    </contour>
    <contour>
      <point x="186" y="478" type="curve"/>
      <point x="213" y="587"/>
      <point x="260" y="687"/>
      <point x="262" y="695" type="curve"/>
      <point x="267" y="714"/>
      <point x="246" y="720"/>
      <point x="223" y="720" type="curve" smooth="yes"/>
      <point x="213" y="720" type="line"/>
      <point x="179" y="649"/>
      <point x="153" y="574"/>
      <point x="135" y="503" type="curve"/>
      <point x="130" y="483"/>
      <point x="149" y="478"/>
      <point x="173" y="478" type="curve" smooth="yes"/>
      <point x="177" y="478"/>
      <point x="182" y="478"/>
    </contour>
  </outline>
</glyph>
<glyph name="eight" format="1">
  <advance width="600"/>
  <unicode hex="0038"/>
  <outline>
    <contour>
      <point x="377" y="317" type="curve" smooth="yes"/>
      <point x="301" y="347" type="line" smooth="yes"/>
      <point x="198" y="388"/>
      <point x="184" y="464"/>
      <point x="201" y="529" type="curve" smooth="yes"/>
      <point x="205" y="548"/>
      <point x="210" y="564"/>
      <point x="218" y="592" type="curve"/>
      <point x="191" y="582"/>
      <point x="156" y="563"/>
      <point x="146" y="524" type="curve" smooth="yes"/>
      <point x="126" y="443"/>
      <point x="157" y="354"/>
      <point x="276" y="305" type="curve" smooth="yes"/>
      <point x="353" y="273" type="line" smooth="yes"/>
      <point x="444" y="235"/>
      <point x="462" y="189"/>
      <point x="441" y="109" type="curve" smooth="yes"/>
      <point x="440" y="103"/>
      <point x="438" y="95"/>
      <point x="437" y="89" type="curve"/>
      <point x="456" y="94"/>
      <point x="492" y="125"/>
      <point x="498" y="145" type="curve"/>
      <point x="514" y="211"/>
      <point x="479" y="276"/>
    </contour>
    <contour>
      <point x="247" y="-20" type="curve" smooth="yes"/>
      <point x="394" y="-20"/>
      <point x="469" y="32"/>
      <point x="495" y="137" type="curve" smooth="yes"/>
      <point x="498" y="145" type="line" smooth="yes"/>
      <point x="503" y="165"/>
      <point x="478" y="203"/>
      <point x="460" y="205" type="curve"/>
      <point x="459" y="195"/>
      <point x="458" y="188"/>
      <point x="455" y="172" type="curve" smooth="yes"/>
      <point x="433" y="79"/>
      <point x="381" y="33"/>
      <point x="252" y="33" type="curve" smooth="yes"/>
      <point x="156" y="33"/>
      <point x="122" y="62"/>
      <point x="78" y="112" type="curve"/>
      <point x="56" y="63"/>
      <point x="140" y="-20"/>
    </contour>
    <contour>
      <point x="413" y="720" type="curve" smooth="yes"/>
      <point x="277" y="720"/>
      <point x="173" y="656"/>
      <point x="147" y="529" type="curve" smooth="yes"/>
      <point x="146" y="524" type="line" smooth="yes"/>
      <point x="140" y="493"/>
      <point x="169" y="472"/>
      <point x="186" y="467" type="curve"/>
      <point x="191" y="488"/>
      <point x="195" y="507"/>
      <point x="201" y="529" type="curve" smooth="yes"/>
      <point x="228" y="636"/>
      <point x="323" y="666"/>
      <point x="402" y="666" type="curve" smooth="yes"/>
      <point x="460" y="666"/>
      <point x="522" y="640"/>
      <point x="551" y="598" type="curve"/>
      <point x="591" y="646"/>
      <point x="473" y="720"/>
    </contour>
    <contour>
      <point x="345" y="307" type="curve" smooth="yes"/>
      <point x="428" y="307"/>
      <point x="558" y="387"/>
      <point x="589" y="508" type="curve" smooth="yes"/>
      <point x="591" y="516" type="line" smooth="yes"/>
      <point x="621" y="635"/>
      <point x="545" y="720"/>
      <point x="413" y="720" type="curve" smooth="yes"/>
      <point x="403" y="720"/>
      <point x="381" y="714"/>
      <point x="373" y="686" type="curve"/>
      <point x="495" y="686"/>
      <point x="561" y="621"/>
      <point x="535" y="515" type="curve" smooth="yes"/>
      <point x="533" y="507" type="line" smooth="yes"/>
      <point x="509" y="414"/>
      <point x="429" y="363"/>
      <point x="301" y="328" type="curve"/>
      <point x="317" y="314"/>
      <point x="327" y="307"/>
    </contour>
    <contour>
      <point x="280" y="16" type="curve"/>
      <point x="143" y="16"/>
      <point x="81" y="85"/>
      <point x="97" y="152" type="curve" smooth="yes"/>
      <point x="99" y="160" type="line" smooth="yes"/>
      <point x="118" y="235"/>
      <point x="183" y="274"/>
      <point x="314" y="299" type="curve"/>
      <point x="299" y="315"/>
      <point x="290" y="325"/>
      <point x="278" y="325" type="curve" smooth="yes"/>
      <point x="179" y="325"/>
      <point x="73" y="266"/>
      <point x="50" y="172" type="curve" smooth="yes"/>
      <point x="48" y="164" type="line" smooth="yes"/>
      <point x="25" y="76"/>
      <point x="77" y="-20"/>
      <point x="247" y="-20" type="curve" smooth="yes"/>
      <point x="261" y="-20"/>
      <point x="274" y="-8"/>
    </contour>
  </outline>
</glyph>
<glyph name="nine" format="1">
  <advance width="600"/>
  <unicode hex="0039"/>
  <outline>
    <contour>
      <point x="533" y="587" type="curve"/>
      <point x="569" y="638"/>
      <point x="493" y="720"/>
      <point x="401" y="720" type="curve"/>
      <point x="271" y="720"/>
      <point x="165" y="636"/>
      <point x="125" y="477" type="curve" smooth="yes"/>
      <point x="123" y="469" type="line" smooth="yes"/>
      <point x="97" y="366"/>
      <point x="136" y="272"/>
      <point x="194" y="290" type="curve"/>
      <point x="158" y="341"/>
      <point x="160" y="395"/>
      <point x="177" y="464" type="curve" smooth="yes"/>
      <point x="179" y="472" type="line" smooth="yes"/>
      <point x="211" y="598"/>
      <point x="291" y="668"/>
      <point x="397" y="668" type="curve" smooth="yes"/>
      <point x="462" y="668"/>
      <point x="492" y="648"/>
    </contour>
    <contour>
      <point x="424" y="121" type="curve"/>
      <point x="351" y="59"/>
      <point x="298" y="35"/>
      <point x="220" y="35" type="curve" smooth="yes"/>
      <point x="150" y="35"/>
      <point x="94" y="58"/>
      <point x="64" y="93" type="curve"/>
      <point x="60" y="93" type="line"/>
      <point x="55" y="85"/>
      <point x="51" y="78"/>
      <point x="49" y="67" type="curve" smooth="yes"/>
      <point x="45" y="48"/>
      <point x="46" y="38"/>
      <point x="53" y="29" type="curve" smooth="yes"/>
      <point x="71" y="6"/>
      <point x="138" y="-20"/>
      <point x="209" y="-20" type="curve" smooth="yes"/>
      <point x="300" y="-20"/>
      <point x="422" y="46"/>
    </contour>
    <contour>
      <point x="545" y="338" type="curve" smooth="yes"/>
      <point x="548" y="350" type="line" smooth="yes"/>
      <point x="606" y="587"/>
      <point x="562" y="720"/>
      <point x="401" y="720" type="curve" smooth="yes"/>
      <point x="383" y="720"/>
      <point x="368" y="709"/>
      <point x="365" y="688" type="curve"/>
      <point x="512" y="685"/>
      <point x="547" y="568"/>
      <point x="492" y="350" type="curve" smooth="yes"/>
      <point x="489" y="338" type="line" smooth="yes"/>
      <point x="431" y="104"/>
      <point x="351" y="14"/>
      <point x="195" y="11" type="curve"/>
      <point x="191" y="-5"/>
      <point x="199" y="-20"/>
      <point x="209" y="-20" type="curve" smooth="yes"/>
      <point x="387" y="-20"/>
      <point x="481" y="81"/>
    </contour>
    <contour>
      <point x="286" y="231" type="curve" smooth="yes"/>
      <point x="365" y="231"/>
      <point x="439" y="252"/>
      <point x="487" y="295" type="curve" smooth="yes"/>
      <point x="497" y="304"/>
      <point x="506" y="324"/>
      <point x="513" y="354" type="curve"/>
      <point x="447" y="308"/>
      <point x="371" y="284"/>
      <point x="292" y="284" type="curve" smooth="yes"/>
      <point x="179" y="284"/>
      <point x="128" y="354"/>
      <point x="158" y="474" type="curve" smooth="yes"/>
      <point x="164" y="497"/>
      <point x="170" y="513"/>
      <point x="180" y="531" type="curve"/>
      <point x="157" y="531"/>
      <point x="132" y="506"/>
      <point x="123" y="469" type="curve" smooth="yes"/>
      <point x="86" y="323"/>
      <point x="145" y="231"/>
    </contour>
  </outline>
</glyph>
<glyph name="colon" format="1">
  <advance width="300"/>
  <unicode hex="003A"/>
  <outline>
    <contour>
      <point x="251" y="412" type="curve"/>
      <point x="268" y="477" type="line" smooth="yes"/>
      <point x="277" y="513"/>
      <point x="256" y="533"/>
      <point x="206" y="533" type="curve" smooth="yes"/>
      <point x="184" y="533"/>
      <point x="166" y="528"/>
      <point x="150" y="520" type="curve"/>
      <point x="133" y="454" type="line" smooth="yes"/>
      <point x="125" y="419"/>
      <point x="145" y="398"/>
      <point x="196" y="398" type="curve" smooth="yes"/>
      <point x="218" y="398"/>
      <point x="236" y="403"/>
    </contour>
    <contour>
      <point x="151" y="8" type="curve"/>
      <point x="167" y="74" type="line" smooth="yes"/>
      <point x="176" y="109"/>
      <point x="155" y="129"/>
      <point x="105" y="129" type="curve" smooth="yes"/>
      <point x="83" y="129"/>
      <point x="65" y="125"/>
      <point x="49" y="116" type="curve"/>
      <point x="32" y="51" type="line" smooth="yes"/>
      <point x="24" y="15"/>
      <point x="44" y="-5"/>
      <point x="95" y="-5" type="curve" smooth="yes"/>
      <point x="117" y="-5"/>
      <point x="135" y="0"/>
    </contour>
  </outline>
</glyph>
<glyph name="semicolon" format="1">
  <advance width="350"/>
  <unicode hex="003B"/>
  <outline>
    <contour>
      <point x="276" y="411" type="curve"/>
      <point x="292" y="476" type="line" smooth="yes"/>
      <point x="301" y="512"/>
      <point x="281" y="532"/>
      <point x="230" y="532" type="curve" smooth="yes"/>
      <point x="208" y="532"/>
      <point x="190" y="527"/>
      <point x="174" y="518" type="curve"/>
      <point x="158" y="453" type="line" smooth="yes"/>
      <point x="149" y="418"/>
      <point x="169" y="397"/>
      <point x="220" y="397" type="curve" smooth="yes"/>
      <point x="242" y="397"/>
      <point x="260" y="402"/>
    </contour>
    <contour>
      <point x="-13" y="-191" type="curve" smooth="yes"/>
      <point x="-1" y="-191"/>
      <point x="5" y="-188"/>
      <point x="13" y="-182" type="curve"/>
      <point x="75" y="-133"/>
      <point x="147" y="-36"/>
      <point x="180" y="97" type="curve"/>
      <point x="187" y="126"/>
      <point x="165" y="134"/>
      <point x="140" y="134" type="curve" smooth="yes"/>
      <point x="125" y="134"/>
      <point x="113" y="132"/>
      <point x="101" y="127" type="curve"/>
      <point x="64" y="-23"/>
      <point x="32" y="-83"/>
      <point x="-52" y="-178" type="curve"/>
      <point x="-40" y="-187"/>
      <point x="-31" y="-191"/>
    </contour>
  </outline>
</glyph>
<glyph name="greater" format="1">
  <advance width="550"/>
  <unicode hex="003E"/>
  <outline>
    <contour>
      <point x="34" y="92" type="curve"/>
      <point x="32" y="81" type="line"/>
      <point x="25" y="54"/>
      <point x="33" y="40"/>
      <point x="46" y="40" type="curve" smooth="yes"/>
      <point x="59" y="40"/>
      <point x="95" y="48"/>
      <point x="145" y="64" type="curve" smooth="yes"/>
      <point x="309" y="117"/>
      <point x="423" y="181"/>
      <point x="533" y="275" type="curve"/>
      <point x="541" y="305" type="line"/>
      <point x="543" y="316"/>
      <point x="529" y="326"/>
      <point x="505" y="312" type="curve"/>
      <point x="351" y="195"/>
      <point x="264" y="145"/>
    </contour>
    <contour>
      <point x="156" y="565" type="curve"/>
      <point x="152" y="559"/>
      <point x="150" y="552"/>
      <point x="148" y="544" type="curve" smooth="yes"/>
      <point x="143" y="525"/>
      <point x="145" y="509"/>
      <point x="158" y="504" type="curve" smooth="yes"/>
      <point x="340" y="450"/>
      <point x="394" y="408"/>
      <point x="493" y="296" type="curve" smooth="yes"/>
      <point x="498" y="290"/>
      <point x="500" y="283"/>
      <point x="498" y="278" type="curve" smooth="yes"/>
      <point x="498" y="274"/>
      <point x="496" y="268"/>
      <point x="493" y="258" type="curve"/>
      <point x="520" y="270"/>
      <point x="535" y="283"/>
      <point x="540" y="301" type="curve" smooth="yes"/>
      <point x="542" y="311" type="line" smooth="yes"/>
      <point x="547" y="330"/>
      <point x="541" y="341"/>
      <point x="523" y="358" type="curve" smooth="yes"/>
      <point x="436" y="449"/>
      <point x="364" y="515"/>
    </contour>
  </outline>
</glyph>
<glyph name="A" format="1">
  <advance width="600"/>
  <unicode hex="0041"/>
  <outline>
    <contour>
      <point x="57" y="-7" type="curve"/>
      <point x="129" y="280"/>
      <point x="244" y="506"/>
      <point x="405" y="662" type="curve"/>
      <point x="423" y="680"/>
      <point x="415" y="710"/>
      <point x="400" y="710" type="curve"/>
      <point x="377" y="710" type="line"/>
      <point x="186" y="523"/>
      <point x="82" y="319"/>
      <point x="7" y="15" type="curve"/>
      <point x="1" y="-4"/>
      <point x="20" y="-10"/>
      <point x="35" y="-10" type="curve" smooth="yes"/>
      <point x="45" y="-10"/>
      <point x="51" y="-9"/>
    </contour>
    <contour>
      <point x="463" y="-7" type="curve"/>
      <point x="529" y="260"/>
      <point x="514" y="498"/>
      <point x="470" y="636" type="curve"/>
      <point x="457" y="675"/>
      <point x="446" y="691"/>
      <point x="439" y="700" type="curve" smooth="yes"/>
      <point x="434" y="706"/>
      <point x="421" y="710"/>
      <point x="400" y="710" type="curve"/>
      <point x="388" y="710"/>
      <point x="372" y="691"/>
      <point x="368" y="677" type="curve"/>
      <point x="373" y="677"/>
      <point x="378" y="677"/>
      <point x="381" y="677" type="curve" smooth="yes"/>
      <point x="387" y="677"/>
      <point x="398" y="672"/>
      <point x="411" y="634" type="curve"/>
      <point x="463" y="480"/>
      <point x="463" y="221"/>
      <point x="413" y="18" type="curve"/>
      <point x="411" y="10"/>
      <point x="412" y="5"/>
      <point x="415" y="1" type="curve" smooth="yes"/>
      <point x="421" y="-7"/>
      <point x="433" y="-10"/>
      <point x="445" y="-10" type="curve" smooth="yes"/>
      <point x="451" y="-10"/>
      <point x="458" y="-9"/>
    </contour>
    <contour>
      <point x="50" y="269" type="line"/>
      <point x="48" y="258" type="line" smooth="yes"/>
      <point x="43" y="242"/>
      <point x="43" y="230"/>
      <point x="50" y="222" type="curve" smooth="yes"/>
      <point x="53" y="218"/>
      <point x="56" y="216"/>
      <point x="61" y="216" type="curve"/>
      <point x="456" y="216" type="line"/>
      <point x="466" y="255"/>
      <point x="443" y="269"/>
      <point x="392" y="269" type="curve" smooth="yes"/>
    </contour>
    <contour>
      <point x="411" y="710" type="move" name="top"/>
    </contour>
    <contour>
      <point x="463" y="-8" type="move" name="ogonek"/>
    </contour>
    <contour>
      <point x="407" y="701" type="move" name="ring"/>
    </contour>
    <contour>
      <point x="233" y="-1" type="move" name="bottom"/>
    </contour>
  </outline>
</glyph>
<glyph name="B" format="1">
  <advance width="600"/>
  <unicode hex="0042"/>
  <outline>
    <contour>
      <point x="93" y="17" type="curve"/>
      <point x="240" y="607" type="line" smooth="yes"/>
      <point x="253" y="659"/>
      <point x="241" y="680"/>
      <point x="202" y="680" type="curve"/>
      <point x="40" y="32" type="line"/>
      <point x="38" y="23"/>
      <point x="58" y="17"/>
    </contour>
    <contour>
      <point x="158" y="700" type="curve"/>
      <point x="156" y="696"/>
      <point x="155" y="692"/>
      <point x="155" y="687" type="curve" smooth="yes"/>
      <point x="150" y="670"/>
      <point x="150" y="659"/>
      <point x="157" y="652" type="curve" smooth="yes"/>
      <point x="161" y="648"/>
      <point x="166" y="647"/>
      <point x="170" y="647" type="curve" smooth="yes"/>
      <point x="177" y="647"/>
      <point x="187" y="648"/>
      <point x="200" y="650" type="curve" smooth="yes"/>
      <point x="255" y="659"/>
      <point x="335" y="667"/>
      <point x="390" y="667" type="curve" smooth="yes"/>
      <point x="477" y="667"/>
      <point x="520" y="655"/>
      <point x="558" y="607" type="curve"/>
      <point x="595" y="643"/>
      <point x="525" y="720"/>
      <point x="422" y="720" type="curve" smooth="yes"/>
      <point x="342" y="720"/>
      <point x="265" y="717"/>
    </contour>
    <contour>
      <point x="586" y="504" type="curve" smooth="yes"/>
      <point x="594" y="538" type="line" smooth="yes"/>
      <point x="619" y="635"/>
      <point x="564" y="720"/>
      <point x="422" y="720" type="curve" smooth="yes"/>
      <point x="416" y="720"/>
      <point x="407" y="709"/>
      <point x="404" y="695" type="curve"/>
      <point x="530" y="695"/>
      <point x="558" y="614"/>
      <point x="536" y="527" type="curve" smooth="yes"/>
      <point x="530" y="504" type="line" smooth="yes"/>
      <point x="502" y="396"/>
      <point x="413" y="338"/>
      <point x="222" y="338" type="curve" smooth="yes"/>
      <point x="194" y="338"/>
      <point x="179" y="341"/>
      <point x="162" y="350" type="curve"/>
      <point x="157" y="347"/>
      <point x="154" y="342"/>
      <point x="153" y="335" type="curve" smooth="yes"/>
      <point x="146" y="310"/>
      <point x="177" y="286"/>
      <point x="203" y="286" type="curve" smooth="yes"/>
      <point x="215" y="286" type="line" smooth="yes"/>
      <point x="411" y="286"/>
      <point x="543" y="339"/>
    </contour>
    <contour>
      <point x="504" y="180" type="curve" smooth="yes"/>
      <point x="512" y="214" type="line" smooth="yes"/>
      <point x="531" y="289"/>
      <point x="474" y="353"/>
      <point x="422" y="353" type="curve" smooth="yes"/>
      <point x="417" y="353" type="line" smooth="yes"/>
      <point x="399" y="353"/>
      <point x="371" y="338"/>
      <point x="368" y="328" type="curve"/>
      <point x="368" y="325" type="line"/>
      <point x="373" y="325" type="line"/>
      <point x="438" y="325"/>
      <point x="471" y="272"/>
      <point x="455" y="209" type="curve" smooth="yes"/>
      <point x="449" y="186" type="line" smooth="yes"/>
      <point x="426" y="92"/>
      <point x="317" y="43"/>
      <point x="220" y="43" type="curve" smooth="yes"/>
      <point x="116" y="43"/>
      <point x="92" y="53"/>
      <point x="69" y="75" type="curve"/>
      <point x="53" y="56"/>
      <point x="43" y="41"/>
      <point x="40" y="32" type="curve" smooth="yes"/>
      <point x="35" y="11"/>
      <point x="73" y="-10"/>
      <point x="205" y="-10" type="curve" smooth="yes"/>
      <point x="214" y="-10" type="line" smooth="yes"/>
      <point x="358" y="-10"/>
      <point x="473" y="60"/>
    </contour>
  </outline>
</glyph>
<glyph name="D" format="1">
  <advance width="650"/>
  <unicode hex="0044"/>
  <outline>
    <contour>
      <point x="94" y="20" type="curve"/>
      <point x="240" y="605" type="line" smooth="yes"/>
      <point x="253" y="658"/>
      <point x="242" y="680"/>
      <point x="203" y="680" type="curve"/>
      <point x="43" y="43" type="line" smooth="yes"/>
      <point x="40" y="33"/>
      <point x="60" y="20"/>
    </contour>
    <contour>
      <point x="159" y="700" type="curve"/>
      <point x="156" y="696"/>
      <point x="155" y="692"/>
      <point x="155" y="687" type="curve"/>
      <point x="149" y="669"/>
      <point x="150" y="658"/>
      <point x="157" y="650" type="curve" smooth="yes"/>
      <point x="160" y="646"/>
      <point x="166" y="645"/>
      <point x="170" y="645" type="curve" smooth="yes"/>
      <point x="177" y="645"/>
      <point x="187" y="646"/>
      <point x="199" y="648" type="curve" smooth="yes"/>
      <point x="255" y="657"/>
      <point x="326" y="665"/>
      <point x="381" y="665" type="curve"/>
      <point x="485" y="665"/>
      <point x="541" y="645"/>
      <point x="589" y="583" type="curve"/>
      <point x="615" y="636"/>
      <point x="537" y="720"/>
      <point x="394" y="720" type="curve" smooth="yes"/>
      <point x="319" y="720"/>
      <point x="258" y="716"/>
    </contour>
    <contour>
      <point x="591" y="336" type="curve" smooth="yes"/>
      <point x="599" y="368" type="line" smooth="yes"/>
      <point x="652" y="590"/>
      <point x="600" y="720"/>
      <point x="394" y="720" type="curve" smooth="yes"/>
      <point x="375" y="720"/>
      <point x="358" y="705"/>
      <point x="353" y="688" type="curve"/>
      <point x="587" y="686"/>
      <point x="584" y="535"/>
      <point x="542" y="367" type="curve" smooth="yes"/>
      <point x="538" y="352" type="line" smooth="yes"/>
      <point x="488" y="150"/>
      <point x="362" y="46"/>
      <point x="191" y="46" type="curve" smooth="yes"/>
      <point x="132" y="46"/>
      <point x="98" y="54"/>
      <point x="68" y="78" type="curve"/>
      <point x="53" y="67"/>
      <point x="47" y="57"/>
      <point x="43" y="43" type="curve" smooth="yes"/>
      <point x="37" y="16"/>
      <point x="93" y="-10"/>
      <point x="179" y="-10" type="curve" smooth="yes"/>
      <point x="184" y="-10" type="line" smooth="yes"/>
      <point x="393" y="-10"/>
      <point x="536" y="113"/>
    </contour>
    <contour>
      <point x="424" y="711" type="move" name="top"/>
    </contour>
  </outline>
</glyph>
<glyph name="E" format="1">
  <advance width="550"/>
  <unicode hex="0045"/>
  <outline>
    <contour>
      <point x="158" y="700" type="line"/>
      <point x="157" y="697"/>
      <point x="156" y="692"/>
      <point x="155" y="689" type="curve" smooth="yes"/>
      <point x="151" y="671"/>
      <point x="150" y="658"/>
      <point x="157" y="650" type="curve" smooth="yes"/>
      <point x="159" y="647"/>
      <point x="163" y="645"/>
      <point x="168" y="645" type="curve" smooth="yes"/>
      <point x="593" y="645" type="line"/>
      <point x="596" y="650"/>
      <point x="599" y="657"/>
      <point x="600" y="664" type="curve" smooth="yes"/>
      <point x="603" y="673"/>
      <point x="604" y="686"/>
      <point x="597" y="695" type="curve" smooth="yes"/>
      <point x="595" y="698"/>
      <point x="591" y="700"/>
      <point x="586" y="700" type="curve" smooth="yes"/>
    </contour>
    <contour>
      <point x="94" y="21" type="curve"/>
      <point x="237" y="595" type="line" smooth="yes"/>
      <point x="250" y="646"/>
      <point x="242" y="670"/>
      <point x="200" y="670" type="curve"/>
      <point x="44" y="45" type="line"/>
      <point x="39" y="26"/>
      <point x="59" y="21"/>
    </contour>
    <contour>
      <point x="46" y="55" type="line"/>
      <point x="44" y="45" type="line" smooth="yes"/>
      <point x="39" y="24"/>
      <point x="49" y="0"/>
      <point x="67" y="0" type="curve" smooth="yes"/>
      <point x="434" y="0" type="line"/>
      <point x="435" y="4"/>
      <point x="437" y="9"/>
      <point x="438" y="13" type="curve" smooth="yes"/>
      <point x="445" y="42"/>
      <point x="440" y="55"/>
      <point x="423" y="55" type="curve" smooth="yes"/>
    </contour>
    <contour>
      <point x="144" y="353" type="line"/>
      <point x="134" y="314"/>
      <point x="135" y="298"/>
      <point x="155" y="298" type="curve" smooth="yes"/>
      <point x="431" y="298" type="line"/>
      <point x="432" y="302"/>
      <point x="433" y="306"/>
      <point x="434" y="309" type="curve" smooth="yes"/>
      <point x="438" y="326"/>
      <point x="437" y="338"/>
      <point x="431" y="347" type="curve" smooth="yes"/>
      <point x="428" y="351"/>
      <point x="424" y="353"/>
      <point x="418" y="353" type="curve" smooth="yes"/>
    </contour>
    <contour>
      <point x="386" y="711" type="move" name="top"/>
    </contour>
    <contour>
      <point x="429" y="-1" type="move" name="ogonek"/>
    </contour>
    <contour>
      <point x="208" y="-1" type="move" name="bottom"/>
    </contour>
  </outline>
</glyph>
<glyph name="F" format="1">
  <advance width="550"/>
  <unicode hex="0046"/>
  <outline>
    <contour>
      <point x="99" y="-7" type="curve"/>
      <point x="96" y="22"/>
      <point x="98" y="34"/>
      <point x="110" y="81" type="curve" smooth="yes"/>
      <point x="238" y="595" type="line"/>
      <point x="252" y="651"/>
      <point x="242" y="678"/>
      <point x="203" y="678" type="curve"/>
      <point x="44" y="41" type="line" smooth="yes"/>
      <point x="36" y="9"/>
      <point x="52" y="-7"/>
      <point x="92" y="-7" type="curve" smooth="yes"/>
      <point x="94" y="-7"/>
      <point x="97" y="-7"/>
    </contour>
    <contour>
      <point x="158" y="700" type="line"/>
      <point x="157" y="697"/>
      <point x="156" y="692"/>
      <point x="155" y="689" type="curve" smooth="yes"/>
      <point x="150" y="671"/>
      <point x="150" y="658"/>
      <point x="157" y="650" type="curve" smooth="yes"/>
      <point x="159" y="646"/>
      <point x="163" y="645"/>
      <point x="168" y="645" type="curve"/>
      <point x="593" y="645" type="line"/>
      <point x="596" y="650"/>
      <point x="599" y="657"/>
      <point x="601" y="664" type="curve" smooth="yes"/>
      <point x="604" y="674"/>
      <point x="604" y="686"/>
      <point x="598" y="695" type="curve" smooth="yes"/>
      <point x="595" y="698"/>
      <point x="592" y="700"/>
      <point x="586" y="700" type="curve"/>
    </contour>
    <contour>
      <point x="129" y="303" type="line"/>
      <point x="120" y="264"/>
      <point x="121" y="247"/>
      <point x="140" y="247" type="curve"/>
      <point x="456" y="247" type="line"/>
      <point x="457" y="251"/>
      <point x="458" y="255"/>
      <point x="459" y="258" type="curve"/>
      <point x="463" y="275"/>
      <point x="463" y="288"/>
      <point x="456" y="297" type="curve" smooth="yes"/>
      <point x="453" y="301"/>
      <point x="449" y="303"/>
      <point x="443" y="303" type="curve"/>
    </contour>
  </outline>
</glyph>
<glyph name="G" format="1">
  <advance width="650"/>
  <unicode hex="0047"/>
  <outline>
    <contour>
      <point x="487" y="665" type="curve" smooth="yes"/>
      <point x="589" y="665"/>
      <point x="608" y="625"/>
      <point x="592" y="560" type="curve"/>
      <point x="610" y="560"/>
      <point x="625" y="578"/>
      <point x="627" y="588" type="curve" smooth="yes"/>
      <point x="635" y="621"/>
      <point x="633" y="653"/>
      <point x="615" y="677" type="curve" smooth="yes"/>
      <point x="596" y="703"/>
      <point x="558" y="720"/>
      <point x="500" y="720" type="curve" smooth="yes"/>
      <point x="304" y="720"/>
      <point x="149" y="548"/>
      <point x="75" y="266" type="curve" smooth="yes"/>
      <point x="69" y="240" type="line" smooth="yes"/>
      <point x="57" y="194"/>
      <point x="76" y="118"/>
      <point x="109" y="102" type="curve"/>
      <point x="107" y="142"/>
      <point x="115" y="196"/>
      <point x="127" y="241" type="curve" smooth="yes"/>
      <point x="132" y="265" type="line" smooth="yes"/>
      <point x="194" y="510"/>
      <point x="337" y="665"/>
    </contour>
    <contour>
      <point x="265" y="35" type="curve" smooth="yes"/>
      <point x="140" y="35"/>
      <point x="85" y="126"/>
      <point x="131" y="298" type="curve"/>
      <point x="104" y="298"/>
      <point x="77" y="275"/>
      <point x="69" y="240" type="curve" smooth="yes"/>
      <point x="33" y="97"/>
      <point x="104" y="-20"/>
      <point x="258" y="-20" type="curve" smooth="yes"/>
      <point x="405" y="-20"/>
      <point x="502" y="55"/>
      <point x="534" y="183" type="curve" smooth="yes"/>
      <point x="536" y="191" type="line" smooth="yes"/>
      <point x="550" y="249"/>
      <point x="541" y="280"/>
      <point x="497" y="280" type="curve"/>
      <point x="497" y="257"/>
      <point x="494" y="231"/>
      <point x="485" y="198" type="curve" smooth="yes"/>
      <point x="461" y="101"/>
      <point x="372" y="35"/>
    </contour>
    <contour>
      <point x="325" y="303" type="line"/>
      <point x="323" y="300"/>
      <point x="320" y="294"/>
      <point x="319" y="288" type="curve" smooth="yes"/>
      <point x="315" y="274"/>
      <point x="316" y="264"/>
      <point x="322" y="256" type="curve" smooth="yes"/>
      <point x="325" y="251"/>
      <point x="332" y="249"/>
      <point x="341" y="249" type="curve"/>
      <point x="597" y="249" type="line"/>
      <point x="599" y="259" type="line" smooth="yes"/>
      <point x="607" y="289"/>
      <point x="602" y="303"/>
      <point x="585" y="303" type="curve" smooth="yes"/>
    </contour>
    <contour>
      <point x="600" y="478" type="curve"/>
      <point x="627" y="588" type="line" smooth="yes"/>
      <point x="640" y="641"/>
      <point x="604" y="683"/>
      <point x="566" y="672" type="curve"/>
      <point x="579" y="641"/>
      <point x="577" y="611"/>
      <point x="572" y="591" type="curve" smooth="yes"/>
      <point x="551" y="504" type="line" smooth="yes"/>
      <point x="546" y="484"/>
      <point x="554" y="476"/>
      <point x="583" y="476" type="curve" smooth="yes"/>
      <point x="589" y="476"/>
      <point x="595" y="477"/>
    </contour>
    <contour>
      <point x="449" y="711" type="move" name="top"/>
    </contour>
    <contour>
      <point x="270" y="-1" type="move" name="bottom"/>
    </contour>
  </outline>
</glyph>
<glyph name="H" format="1">
  <advance width="650"/>
  <unicode hex="0048"/>
  <outline>
    <contour>
      <point x="212" y="707" type="curve"/>
      <point x="209" y="672"/>
      <point x="201" y="637"/>
      <point x="192" y="599" type="curve" smooth="yes"/>
      <point x="46" y="15" type="line" smooth="yes"/>
      <point x="41" y="-4"/>
      <point x="58" y="-10"/>
      <point x="84" y="-10" type="curve" smooth="yes"/>
      <point x="87" y="-10"/>
      <point x="92" y="-10"/>
      <point x="95" y="-10" type="curve"/>
      <point x="261" y="649" type="line" smooth="yes"/>
      <point x="266" y="672"/>
      <point x="269" y="689"/>
      <point x="260" y="701" type="curve" smooth="yes"/>
      <point x="255" y="707"/>
      <point x="248" y="710"/>
      <point x="232" y="710" type="curve" smooth="yes"/>
      <point x="225" y="710"/>
      <point x="219" y="709"/>
    </contour>
    <contour>
      <point x="491" y="-7" type="curve"/>
      <point x="494" y="28"/>
      <point x="502" y="63"/>
      <point x="511" y="101" type="curve" smooth="yes"/>
      <point x="657" y="685" type="line" smooth="yes"/>
      <point x="662" y="704"/>
      <point x="644" y="710"/>
      <point x="618" y="710" type="curve" smooth="yes"/>
      <point x="615" y="710"/>
      <point x="611" y="710"/>
      <point x="608" y="710" type="curve"/>
      <point x="443" y="51" type="line" smooth="yes"/>
      <point x="437" y="28"/>
      <point x="435" y="11"/>
      <point x="443" y="-1" type="curve" smooth="yes"/>
      <point x="448" y="-7"/>
      <point x="455" y="-10"/>
      <point x="471" y="-10" type="curve" smooth="yes"/>
      <point x="478" y="-10"/>
      <point x="484" y="-9"/>
    </contour>
    <contour>
      <point x="59" y="305" type="line"/>
      <point x="57" y="295" type="line" smooth="yes"/>
      <point x="52" y="277"/>
      <point x="52" y="264"/>
      <point x="59" y="255" type="curve" smooth="yes"/>
      <point x="61" y="252"/>
      <point x="65" y="250"/>
      <point x="70" y="250" type="curve"/>
      <point x="523" y="250" type="line"/>
      <point x="533" y="291"/>
      <point x="508" y="305"/>
      <point x="457" y="305" type="curve" smooth="yes"/>
    </contour>
    <contour>
      <point x="415" y="711" type="move" name="top"/>
    </contour>
  </outline>
</glyph>
<glyph name="I" format="1">
  <advance width="500"/>
  <unicode hex="0049"/>
  <outline>
    <contour>
      <point x="219" y="28" type="curve"/>
      <point x="361" y="595" type="line" smooth="yes"/>
      <point x="374" y="646"/>
      <point x="365" y="670"/>
      <point x="324" y="670" type="curve"/>
      <point x="183" y="105" type="line" smooth="yes"/>
      <point x="170" y="54"/>
      <point x="177" y="28"/>
    </contour>
    <contour>
      <point x="181" y="700" type="line"/>
      <point x="177" y="696"/>
      <point x="175" y="689"/>
      <point x="173" y="683" type="curve"/>
      <point x="170" y="669"/>
      <point x="171" y="659"/>
      <point x="176" y="652" type="curve" smooth="yes"/>
      <point x="180" y="647"/>
      <point x="186" y="645"/>
      <point x="196" y="645" type="curve" smooth="yes"/>
      <point x="525" y="645" type="line"/>
      <point x="527" y="649"/>
      <point x="530" y="656"/>
      <point x="531" y="661" type="curve" smooth="yes"/>
      <point x="537" y="686"/>
      <point x="533" y="700"/>
      <point x="516" y="700" type="curve" smooth="yes"/>
    </contour>
    <contour>
      <point x="20" y="55" type="line"/>
      <point x="17" y="51"/>
      <point x="13" y="44"/>
      <point x="12" y="37" type="curve"/>
      <point x="9" y="24"/>
      <point x="9" y="14"/>
      <point x="15" y="7" type="curve" smooth="yes"/>
      <point x="19" y="2"/>
      <point x="23" y="0"/>
      <point x="31" y="0" type="curve" smooth="yes"/>
      <point x="365" y="0" type="line"/>
      <point x="367" y="4"/>
      <point x="368" y="9"/>
      <point x="369" y="13" type="curve" smooth="yes"/>
      <point x="376" y="41"/>
      <point x="372" y="55"/>
      <point x="355" y="55" type="curve" smooth="yes"/>
    </contour>
    <contour>
      <point x="362" y="711" type="move" name="top"/>
    </contour>
    <contour>
      <point x="365" y="-1" type="move" name="ogonek"/>
    </contour>
    <contour>
      <point x="184" y="-1" type="move" name="bottom"/>
    </contour>
  </outline>
</glyph>
<glyph name="J" format="1">
  <advance width="500"/>
  <unicode hex="004A"/>
  <outline>
    <contour>
      <point x="184" y="700" type="line"/>
      <point x="183" y="697"/>
      <point x="182" y="692"/>
      <point x="181" y="689" type="curve" smooth="yes"/>
      <point x="177" y="671"/>
      <point x="177" y="659"/>
      <point x="183" y="651" type="curve" smooth="yes"/>
      <point x="186" y="647"/>
      <point x="191" y="645"/>
      <point x="200" y="645" type="curve" smooth="yes"/>
      <point x="486" y="645" type="line"/>
      <point x="496" y="685"/>
      <point x="493" y="700"/>
      <point x="474" y="700" type="curve"/>
    </contour>
    <contour>
      <point x="398" y="188" type="curve" smooth="yes"/>
      <point x="520" y="675" type="line" smooth="yes"/>
      <point x="524" y="691"/>
      <point x="512" y="700"/>
      <point x="482" y="700" type="curve" smooth="yes"/>
      <point x="470" y="700" type="line"/>
      <point x="353" y="230" type="line" smooth="yes"/>
      <point x="327" y="129"/>
      <point x="295" y="78"/>
      <point x="233" y="25" type="curve"/>
      <point x="272" y="10"/>
      <point x="370" y="77"/>
    </contour>
    <contour>
      <point x="154" y="35" type="curve" smooth="yes"/>
      <point x="77" y="35"/>
      <point x="58" y="51"/>
      <point x="10" y="83" type="curve"/>
      <point x="6" y="83" type="line"/>
      <point x="4" y="77"/>
      <point x="1" y="72"/>
      <point x="0" y="66" type="curve"/>
      <point x="-4" y="47"/>
      <point x="-4" y="33"/>
      <point x="3" y="24" type="curve" smooth="yes"/>
      <point x="21" y="1"/>
      <point x="67" y="-20"/>
      <point x="142" y="-20" type="curve" smooth="yes"/>
      <point x="148" y="-20" type="line" smooth="yes"/>
      <point x="280" y="-20"/>
      <point x="363" y="50"/>
      <point x="398" y="188" type="curve"/>
      <point x="401" y="201"/>
      <point x="404" y="233"/>
      <point x="375" y="235" type="curve"/>
      <point x="335" y="75"/>
      <point x="248" y="35"/>
    </contour>
    <contour>
      <point x="360" y="711" type="move" name="top"/>
    </contour>
  </outline>
</glyph>
<glyph name="K" format="1">
  <advance width="600"/>
  <unicode hex="004B"/>
  <outline>
    <contour>
      <point x="193" y="707" type="curve"/>
      <point x="190" y="672"/>
      <point x="183" y="637"/>
      <point x="173" y="599" type="curve" smooth="yes"/>
      <point x="27" y="15" type="line" smooth="yes"/>
      <point x="23" y="-4"/>
      <point x="41" y="-10"/>
      <point x="65" y="-10" type="curve" smooth="yes"/>
      <point x="69" y="-10"/>
      <point x="73" y="-10"/>
      <point x="77" y="-10" type="curve"/>
      <point x="243" y="650" type="line" smooth="yes"/>
      <point x="248" y="672"/>
      <point x="250" y="689"/>
      <point x="241" y="701" type="curve" smooth="yes"/>
      <point x="237" y="707"/>
      <point x="229" y="710"/>
      <point x="213" y="710" type="curve" smooth="yes"/>
      <point x="206" y="710"/>
      <point x="200" y="709"/>
    </contour>
    <contour>
      <point x="594" y="710" type="curve"/>
      <point x="583" y="710" type="line"/>
      <point x="449" y="465"/>
      <point x="294" y="363"/>
      <point x="112" y="294" type="curve"/>
      <point x="103" y="257"/>
      <point x="101" y="239"/>
      <point x="118" y="244" type="curve"/>
      <point x="313" y="308"/>
      <point x="459" y="413"/>
      <point x="575" y="586" type="curve" smooth="yes"/>
      <point x="631" y="670"/>
      <point x="636" y="680"/>
      <point x="638" y="688" type="curve" smooth="yes"/>
      <point x="641" y="698"/>
      <point x="638" y="710"/>
    </contour>
    <contour>
      <point x="288" y="361" type="line"/>
      <point x="257" y="343"/>
      <point x="245" y="322"/>
      <point x="248" y="313" type="curve" smooth="yes"/>
      <point x="361" y="51" type="line" smooth="yes"/>
      <point x="382" y="0"/>
      <point x="410" y="-20"/>
      <point x="447" y="-20" type="curve" smooth="yes"/>
      <point x="450" y="-20" type="line" smooth="yes"/>
      <point x="487" y="-20"/>
      <point x="499" y="1"/>
      <point x="506" y="25" type="curve" smooth="yes"/>
      <point x="509" y="37"/>
      <point x="510" y="48"/>
      <point x="511" y="57" type="curve"/>
      <point x="507" y="57" type="line"/>
      <point x="492" y="46"/>
      <point x="475" y="38"/>
      <point x="458" y="38" type="curve" smooth="yes"/>
      <point x="437" y="38"/>
      <point x="422" y="50"/>
      <point x="409" y="83" type="curve" smooth="yes"/>
    </contour>
    <contour>
      <point x="260" y="-1" type="move" name="bottom"/>
    </contour>
  </outline>
</glyph>
<glyph name="L" format="1">
  <advance width="550"/>
  <unicode hex="004C"/>
  <outline>
    <contour>
      <point x="94" y="23" type="curve"/>
      <point x="250" y="649" type="line" smooth="yes"/>
      <point x="256" y="672"/>
      <point x="258" y="689"/>
      <point x="249" y="701" type="curve" smooth="yes"/>
      <point x="245" y="707"/>
      <point x="238" y="710"/>
      <point x="222" y="710" type="curve" smooth="yes"/>
      <point x="215" y="710"/>
      <point x="209" y="709"/>
      <point x="201" y="707" type="curve"/>
      <point x="199" y="672"/>
      <point x="191" y="637"/>
      <point x="182" y="599" type="curve" smooth="yes"/>
      <point x="44" y="48" type="line" smooth="yes"/>
      <point x="39" y="27"/>
      <point x="65" y="23"/>
    </contour>
    <contour>
      <point x="46" y="55" type="line"/>
      <point x="43" y="45" type="line" smooth="yes"/>
      <point x="38" y="24"/>
      <point x="48" y="0"/>
      <point x="66" y="0" type="curve" smooth="yes"/>
      <point x="425" y="0" type="line"/>
      <point x="426" y="4"/>
      <point x="428" y="9"/>
      <point x="429" y="13" type="curve" smooth="yes"/>
      <point x="436" y="42"/>
      <point x="431" y="55"/>
      <point x="414" y="55" type="curve" smooth="yes"/>
    </contour>
    <contour>
      <point x="454" y="551" type="move" name="caronslovak"/>
    </contour>
    <contour>
      <point x="239" y="711" type="move" name="top"/>
    </contour>
    <contour>
      <point x="475" y="400" type="move" name="dot"/>
    </contour>
    <contour>
      <point x="224" y="-1" type="move" name="bottom"/>
    </contour>
  </outline>
</glyph>
<glyph name="M" format="1">
  <advance width="800"/>
  <unicode hex="004D"/>
  <outline>
    <contour>
      <point x="71" y="-10" type="curve"/>
      <point x="76" y="10"/>
      <point x="82" y="32"/>
      <point x="88" y="56" type="curve" smooth="yes"/>
      <point x="129" y="222"/>
      <point x="203" y="483"/>
      <point x="291" y="684" type="curve" smooth="yes"/>
      <point x="294" y="690"/>
      <point x="290" y="695"/>
      <point x="287" y="698" type="curve" smooth="yes"/>
      <point x="281" y="707"/>
      <point x="268" y="710"/>
      <point x="250" y="710" type="curve" smooth="yes"/>
      <point x="243" y="710"/>
      <point x="236" y="709"/>
      <point x="229" y="708" type="curve"/>
      <point x="222" y="666"/>
      <point x="217" y="649"/>
      <point x="197" y="600" type="curve" smooth="yes"/>
      <point x="122" y="405"/>
      <point x="70" y="231"/>
      <point x="16" y="15" type="curve" smooth="yes"/>
      <point x="15" y="10"/>
      <point x="15" y="4"/>
      <point x="18" y="1" type="curve" smooth="yes"/>
      <point x="24" y="-7"/>
      <point x="40" y="-10"/>
      <point x="59" y="-10" type="curve" smooth="yes"/>
      <point x="63" y="-10"/>
      <point x="68" y="-10"/>
    </contour>
    <contour>
      <point x="656" y="-6" type="curve"/>
      <point x="657" y="32"/>
      <point x="665" y="73"/>
      <point x="674" y="112" type="curve" smooth="yes"/>
      <point x="723" y="328"/>
      <point x="747" y="495"/>
      <point x="765" y="669" type="curve"/>
      <point x="767" y="685"/>
      <point x="766" y="694"/>
      <point x="761" y="699" type="curve" smooth="yes"/>
      <point x="754" y="707"/>
      <point x="729" y="710"/>
      <point x="712" y="710" type="curve" smooth="yes"/>
      <point x="709" y="710" type="line"/>
      <point x="708" y="697"/>
      <point x="707" y="684"/>
      <point x="705" y="671" type="curve"/>
      <point x="689" y="469"/>
      <point x="654" y="276"/>
      <point x="624" y="143" type="curve" smooth="yes"/>
      <point x="617" y="105"/>
      <point x="609" y="72"/>
      <point x="602" y="45" type="curve" smooth="yes"/>
      <point x="594" y="14"/>
      <point x="598" y="6"/>
      <point x="603" y="0" type="curve" smooth="yes"/>
      <point x="607" y="-7"/>
      <point x="616" y="-10"/>
      <point x="632" y="-10" type="curve" smooth="yes"/>
      <point x="641" y="-10"/>
      <point x="648" y="-9"/>
    </contour>
    <contour>
      <point x="320" y="684" type="curve" smooth="yes"/>
      <point x="321" y="698"/>
      <point x="294" y="710"/>
      <point x="259" y="710" type="curve"/>
      <point x="252" y="710" type="line"/>
      <point x="265" y="699"/>
      <point x="273" y="688"/>
      <point x="271" y="669" type="curve" smooth="yes"/>
      <point x="241" y="383"/>
      <point x="305" y="169"/>
      <point x="342" y="120" type="curve"/>
      <point x="347" y="114"/>
      <point x="353" y="112"/>
      <point x="370" y="112" type="curve" smooth="yes"/>
      <point x="378" y="112"/>
      <point x="381" y="132"/>
      <point x="385" y="155" type="curve"/>
      <point x="325" y="304"/>
      <point x="311" y="434"/>
    </contour>
    <contour>
      <point x="677" y="708" type="curve"/>
      <point x="567" y="454"/>
      <point x="473" y="296"/>
      <point x="358" y="169" type="curve"/>
      <point x="344" y="153"/>
      <point x="356" y="112"/>
      <point x="370" y="112" type="curve"/>
      <point x="380" y="112" type="line"/>
      <point x="548" y="292"/>
      <point x="690" y="571"/>
      <point x="718" y="682" type="curve" smooth="yes"/>
      <point x="722" y="699"/>
      <point x="721" y="710"/>
      <point x="709" y="710" type="curve" smooth="yes"/>
      <point x="700" y="710"/>
      <point x="687" y="710"/>
    </contour>
  </outline>
</glyph>
<glyph name="N" format="1">
  <advance width="700"/>
  <unicode hex="004E"/>
  <outline>
    <contour>
      <point x="86" y="-8" type="curve"/>
      <point x="244" y="620" type="line"/>
      <point x="253" y="658"/>
      <point x="260" y="699"/>
      <point x="256" y="704" type="curve" smooth="yes"/>
      <point x="254" y="708"/>
      <point x="251" y="710"/>
      <point x="244" y="710" type="curve"/>
      <point x="233" y="710"/>
      <point x="221" y="710"/>
      <point x="202" y="707" type="curve"/>
      <point x="199" y="672"/>
      <point x="189" y="622"/>
      <point x="182" y="599" type="curve" smooth="yes"/>
      <point x="36" y="15" type="line"/>
      <point x="32" y="-4"/>
      <point x="50" y="-10"/>
      <point x="67" y="-10" type="curve"/>
      <point x="74" y="-10"/>
      <point x="82" y="-9"/>
    </contour>
    <contour>
      <point x="533" y="-10" type="line"/>
      <point x="707" y="685" type="line"/>
      <point x="712" y="704"/>
      <point x="694" y="710"/>
      <point x="669" y="710" type="curve"/>
      <point x="658" y="710" type="line"/>
      <point x="499" y="75" type="line"/>
      <point x="492" y="26"/>
      <point x="493" y="9"/>
      <point x="497" y="2" type="curve" smooth="yes"/>
      <point x="502" y="-4"/>
      <point x="510" y="-10"/>
      <point x="520" y="-10" type="curve"/>
    </contour>
    <contour>
      <point x="244" y="710" type="line"/>
      <point x="243" y="689"/>
      <point x="244" y="672"/>
      <point x="246" y="652" type="curve"/>
      <point x="272" y="360"/>
      <point x="375" y="146"/>
      <point x="483" y="0" type="curve"/>
      <point x="488" y="-6"/>
      <point x="498" y="-10"/>
      <point x="520" y="-10" type="curve" smooth="yes"/>
      <point x="524" y="-10"/>
      <point x="522" y="-10"/>
      <point x="526" y="-10" type="curve"/>
      <point x="529" y="-10"/>
      <point x="531" y="10"/>
      <point x="533" y="27" type="curve"/>
      <point x="384" y="234"/>
      <point x="322" y="422"/>
      <point x="293" y="684" type="curve"/>
      <point x="292" y="698"/>
      <point x="274" y="710"/>
      <point x="247" y="710" type="curve"/>
    </contour>
    <contour>
      <point x="458" y="711" type="move" name="top"/>
    </contour>
    <contour>
      <point x="280" y="-1" type="move" name="bottom"/>
    </contour>
  </outline>
</glyph>
<glyph name="O" format="1">
  <advance width="650"/>
  <unicode hex="004F"/>
  <outline>
    <contour>
      <point x="429" y="720" type="curve" smooth="yes"/>
      <point x="266" y="720"/>
      <point x="163" y="613"/>
      <point x="103" y="378" type="curve" smooth="yes"/>
      <point x="90" y="329" type="line" smooth="yes"/>
      <point x="32" y="100"/>
      <point x="104" y="-20"/>
      <point x="269" y="-20" type="curve" smooth="yes"/>
      <point x="285" y="-20"/>
      <point x="298" y="-6"/>
      <point x="303" y="15" type="curve"/>
      <point x="143" y="14"/>
      <point x="97" y="127"/>
      <point x="146" y="332" type="curve" smooth="yes"/>
      <point x="156" y="373" type="line" smooth="yes"/>
      <point x="207" y="580"/>
      <point x="297" y="665"/>
      <point x="425" y="665" type="curve" smooth="yes"/>
      <point x="464" y="665"/>
      <point x="510" y="656"/>
      <point x="550" y="636" type="curve"/>
      <point x="572" y="668"/>
      <point x="508" y="720"/>
    </contour>
    <contour>
      <point x="269" y="-20" type="curve" smooth="yes"/>
      <point x="443" y="-20"/>
      <point x="538" y="98"/>
      <point x="593" y="330" type="curve" smooth="yes"/>
      <point x="605" y="377" type="line" smooth="yes"/>
      <point x="658" y="599"/>
      <point x="589" y="720"/>
      <point x="429" y="720" type="curve" smooth="yes"/>
      <point x="413" y="720"/>
      <point x="400" y="706"/>
      <point x="395" y="685" type="curve"/>
      <point x="553" y="685"/>
      <point x="600" y="572"/>
      <point x="548" y="370" type="curve" smooth="yes"/>
      <point x="537" y="327" type="line" smooth="yes"/>
      <point x="485" y="122"/>
      <point x="402" y="35"/>
      <point x="274" y="35" type="curve" smooth="yes"/>
      <point x="236" y="35"/>
      <point x="186" y="45"/>
      <point x="148" y="64" type="curve"/>
      <point x="125" y="31"/>
      <point x="192" y="-20"/>
    </contour>
    <contour>
      <point x="437" y="711" type="move" name="top"/>
    </contour>
    <contour>
      <point x="356" y="-1" type="move" name="ogonek"/>
    </contour>
    <contour>
      <point x="259" y="-1" type="move" name="bottom"/>
    </contour>
  </outline>
</glyph>
<glyph name="P" format="1">
  <advance width="600"/>
  <unicode hex="0050"/>
  <outline>
    <contour>
      <point x="94" y="-7" type="curve"/>
      <point x="97" y="28"/>
      <point x="105" y="63"/>
      <point x="114" y="101" type="curve" smooth="yes"/>
      <point x="240" y="607" type="line" smooth="yes"/>
      <point x="253" y="659"/>
      <point x="242" y="680"/>
      <point x="203" y="680" type="curve"/>
      <point x="46" y="51" type="line" smooth="yes"/>
      <point x="40" y="28"/>
      <point x="38" y="11"/>
      <point x="46" y="-1" type="curve" smooth="yes"/>
      <point x="50" y="-7"/>
      <point x="57" y="-10"/>
      <point x="73" y="-10" type="curve" smooth="yes"/>
      <point x="80" y="-10"/>
      <point x="87" y="-9"/>
    </contour>
    <contour>
      <point x="158" y="700" type="curve"/>
      <point x="156" y="696"/>
      <point x="155" y="692"/>
      <point x="155" y="687" type="curve"/>
      <point x="150" y="670"/>
      <point x="150" y="660"/>
      <point x="157" y="652" type="curve" smooth="yes"/>
      <point x="160" y="648"/>
      <point x="166" y="647"/>
      <point x="170" y="647" type="curve" smooth="yes"/>
      <point x="177" y="647"/>
      <point x="187" y="648"/>
      <point x="200" y="650" type="curve" smooth="yes"/>
      <point x="252" y="659"/>
      <point x="327" y="667"/>
      <point x="379" y="667" type="curve" smooth="yes"/>
      <point x="470" y="667"/>
      <point x="509" y="651"/>
      <point x="555" y="597" type="curve"/>
      <point x="583" y="653"/>
      <point x="492" y="720"/>
      <point x="406" y="720" type="curve" smooth="yes"/>
      <point x="331" y="720"/>
      <point x="258" y="716"/>
    </contour>
    <contour>
      <point x="572" y="449" type="curve" smooth="yes"/>
      <point x="588" y="515" type="line" smooth="yes"/>
      <point x="617" y="630"/>
      <point x="552" y="720"/>
      <point x="406" y="720" type="curve"/>
      <point x="384" y="720"/>
      <point x="372" y="708"/>
      <point x="369" y="693" type="curve"/>
      <point x="495" y="692"/>
      <point x="562" y="632"/>
      <point x="531" y="508" type="curve" smooth="yes"/>
      <point x="520" y="462" type="line" smooth="yes"/>
      <point x="487" y="331"/>
      <point x="339" y="239"/>
      <point x="188" y="239" type="curve" smooth="yes"/>
      <point x="152" y="239"/>
      <point x="144" y="239"/>
      <point x="136" y="239" type="curve"/>
      <point x="131" y="236"/>
      <point x="128" y="233"/>
      <point x="127" y="227" type="curve" smooth="yes"/>
      <point x="121" y="207"/>
      <point x="154" y="186"/>
      <point x="180" y="186" type="curve" smooth="yes"/>
      <point x="184" y="186" type="line" smooth="yes"/>
      <point x="373" y="186"/>
      <point x="533" y="292"/>
    </contour>
  </outline>
</glyph>
<glyph name="Q" format="1">
  <advance width="650"/>
  <unicode hex="0051"/>
  <outline>
    <contour>
      <point x="429" y="720" type="curve" smooth="yes"/>
      <point x="266" y="720"/>
      <point x="163" y="613"/>
      <point x="103" y="378" type="curve" smooth="yes"/>
      <point x="90" y="329" type="line" smooth="yes"/>
      <point x="32" y="100"/>
      <point x="104" y="-20"/>
      <point x="269" y="-20" type="curve" smooth="yes"/>
      <point x="285" y="-20"/>
      <point x="298" y="-6"/>
      <point x="303" y="15" type="curve"/>
      <point x="143" y="14"/>
      <point x="97" y="127"/>
      <point x="146" y="332" type="curve" smooth="yes"/>
      <point x="156" y="373" type="line" smooth="yes"/>
      <point x="207" y="580"/>
      <point x="297" y="665"/>
      <point x="425" y="665" type="curve" smooth="yes"/>
      <point x="464" y="665"/>
      <point x="511" y="656"/>
      <point x="550" y="636" type="curve"/>
      <point x="572" y="668"/>
      <point x="508" y="720"/>
    </contour>
    <contour>
      <point x="269" y="-20" type="curve" smooth="yes"/>
      <point x="443" y="-20"/>
      <point x="538" y="98"/>
      <point x="593" y="330" type="curve" smooth="yes"/>
      <point x="605" y="377" type="line" smooth="yes"/>
      <point x="658" y="599"/>
      <point x="589" y="720"/>
      <point x="429" y="720" type="curve" smooth="yes"/>
      <point x="413" y="720"/>
      <point x="400" y="706"/>
      <point x="395" y="685" type="curve"/>
      <point x="553" y="685"/>
      <point x="600" y="572"/>
      <point x="548" y="370" type="curve" smooth="yes"/>
      <point x="537" y="327" type="line" smooth="yes"/>
      <point x="485" y="122"/>
      <point x="402" y="35"/>
      <point x="274" y="35" type="curve" smooth="yes"/>
      <point x="236" y="35"/>
      <point x="186" y="45"/>
      <point x="149" y="64" type="curve"/>
      <point x="125" y="31"/>
      <point x="192" y="-20"/>
    </contour>
    <contour>
      <point x="382" y="51" type="line"/>
      <point x="351" y="33"/>
      <point x="334" y="13"/>
      <point x="337" y="5" type="curve" smooth="yes"/>
      <point x="377" y="-78" type="line" smooth="yes"/>
      <point x="404" y="-133"/>
      <point x="429" y="-156"/>
      <point x="467" y="-156" type="curve" smooth="yes"/>
      <point x="471" y="-156" type="line" smooth="yes"/>
      <point x="508" y="-156"/>
      <point x="530" y="-136"/>
      <point x="538" y="-104" type="curve" smooth="yes"/>
      <point x="541" y="-92"/>
      <point x="543" y="-81"/>
      <point x="543" y="-72" type="curve"/>
      <point x="539" y="-72" type="line"/>
      <point x="526" y="-83"/>
      <point x="509" y="-89"/>
      <point x="493" y="-89" type="curve" smooth="yes"/>
      <point x="469" y="-89"/>
      <point x="450" y="-78"/>
      <point x="433" y="-47" type="curve" smooth="yes"/>
    </contour>
  </outline>
</glyph>
<glyph name="S" format="1">
  <advance width="600"/>
  <unicode hex="0053"/>
  <outline>
    <contour>
      <point x="482" y="720" type="curve" smooth="yes"/>
      <point x="336" y="720"/>
      <point x="168" y="594"/>
      <point x="136" y="463" type="curve" smooth="yes"/>
      <point x="133" y="450" type="line" smooth="yes"/>
      <point x="125" y="420"/>
      <point x="154" y="391"/>
      <point x="176" y="385" type="curve"/>
      <point x="177" y="408"/>
      <point x="183" y="429"/>
      <point x="188" y="452" type="curve" smooth="yes"/>
      <point x="217" y="561"/>
      <point x="367" y="667"/>
      <point x="474" y="667" type="curve" smooth="yes"/>
      <point x="545" y="667"/>
      <point x="565" y="638"/>
      <point x="547" y="569" type="curve"/>
      <point x="565" y="569"/>
      <point x="579" y="584"/>
      <point x="581" y="593" type="curve" smooth="yes"/>
      <point x="589" y="627"/>
      <point x="589" y="656"/>
      <point x="571" y="681" type="curve" smooth="yes"/>
      <point x="556" y="700"/>
      <point x="536" y="720"/>
    </contour>
    <contour>
      <point x="371" y="287" type="curve" smooth="yes"/>
      <point x="294" y="318" type="line" smooth="yes"/>
      <point x="176" y="365"/>
      <point x="178" y="409"/>
      <point x="188" y="452" type="curve" smooth="yes"/>
      <point x="194" y="471"/>
      <point x="199" y="487"/>
      <point x="208" y="515" type="curve"/>
      <point x="177" y="507"/>
      <point x="144" y="493"/>
      <point x="133" y="450" type="curve" smooth="yes"/>
      <point x="115" y="380"/>
      <point x="148" y="323"/>
      <point x="271" y="272" type="curve" smooth="yes"/>
      <point x="349" y="240" type="line" smooth="yes"/>
      <point x="434" y="205"/>
      <point x="453" y="171"/>
      <point x="432" y="103" type="curve" smooth="yes"/>
      <point x="431" y="98"/>
      <point x="428" y="91"/>
      <point x="426" y="86" type="curve"/>
      <point x="446" y="90"/>
      <point x="483" y="116"/>
      <point x="487" y="134" type="curve"/>
      <point x="503" y="195"/>
      <point x="467" y="248"/>
    </contour>
    <contour>
      <point x="245" y="-12" type="curve" smooth="yes"/>
      <point x="363" y="-12"/>
      <point x="462" y="33"/>
      <point x="485" y="126" type="curve" smooth="yes"/>
      <point x="487" y="134" type="line" smooth="yes"/>
      <point x="495" y="163"/>
      <point x="474" y="190"/>
      <point x="457" y="192" type="curve"/>
      <point x="456" y="188"/>
      <point x="455" y="181"/>
      <point x="452" y="169" type="curve" smooth="yes"/>
      <point x="432" y="83"/>
      <point x="362" y="41"/>
      <point x="252" y="41" type="curve" smooth="yes"/>
      <point x="139" y="41"/>
      <point x="89" y="66"/>
      <point x="53" y="124" type="curve"/>
      <point x="49" y="124" type="line"/>
      <point x="40" y="115"/>
      <point x="35" y="107"/>
      <point x="32" y="92" type="curve" smooth="yes"/>
      <point x="29" y="76"/>
      <point x="30" y="66"/>
      <point x="41" y="53" type="curve" smooth="yes"/>
      <point x="75" y="13"/>
      <point x="136" y="-12"/>
    </contour>
    <contour>
      <point x="545" y="452" type="curve"/>
      <point x="581" y="593" type="line" smooth="yes"/>
      <point x="602" y="680"/>
      <point x="552" y="691"/>
      <point x="525" y="673" type="curve"/>
      <point x="535" y="647"/>
      <point x="534" y="629"/>
      <point x="525" y="589" type="curve" smooth="yes"/>
      <point x="501" y="494" type="line" smooth="yes"/>
      <point x="497" y="478"/>
      <point x="497" y="467"/>
      <point x="503" y="459" type="curve" smooth="yes"/>
      <point x="507" y="452"/>
      <point x="517" y="449"/>
      <point x="529" y="449" type="curve" smooth="yes"/>
      <point x="536" y="449"/>
      <point x="541" y="450"/>
    </contour>
    <contour>
      <point x="459" y="711" type="move" name="top"/>
    </contour>
    <contour>
      <point x="234" y="-1" type="move" name="bottom"/>
    </contour>
  </outline>
</glyph>
<glyph name="T" format="1">
  <advance width="600"/>
  <unicode hex="0054"/>
  <outline>
    <contour>
      <point x="161" y="700" type="line"/>
      <point x="158" y="696"/>
      <point x="156" y="690"/>
      <point x="153" y="683" type="curve" smooth="yes"/>
      <point x="150" y="671"/>
      <point x="151" y="662"/>
      <point x="158" y="654" type="curve" smooth="yes"/>
      <point x="161" y="649"/>
      <point x="167" y="647"/>
      <point x="177" y="647" type="curve" smooth="yes"/>
      <point x="644" y="647" type="line"/>
      <point x="646" y="651"/>
      <point x="649" y="657"/>
      <point x="651" y="663" type="curve" smooth="yes"/>
      <point x="656" y="687"/>
      <point x="652" y="700"/>
      <point x="635" y="700" type="curve" smooth="yes"/>
    </contour>
    <contour>
      <point x="267" y="-7" type="curve"/>
      <point x="270" y="28"/>
      <point x="278" y="63"/>
      <point x="287" y="101" type="curve" smooth="yes"/>
      <point x="412" y="602" type="line" smooth="yes"/>
      <point x="426" y="656"/>
      <point x="416" y="677"/>
      <point x="376" y="677" type="curve"/>
      <point x="219" y="51" type="line" smooth="yes"/>
      <point x="213" y="28"/>
      <point x="211" y="11"/>
      <point x="219" y="-1" type="curve" smooth="yes"/>
      <point x="224" y="-7"/>
      <point x="231" y="-10"/>
      <point x="246" y="-10" type="curve" smooth="yes"/>
      <point x="254" y="-10"/>
      <point x="260" y="-9"/>
    </contour>
    <contour>
      <point x="411" y="711" type="move" name="top"/>
    </contour>
    <contour>
      <point x="234" y="-1" type="move" name="bottom"/>
    </contour>
  </outline>
</glyph>
<glyph name="U" format="1">
  <advance width="650"/>
  <unicode hex="0055"/>
  <outline>
    <contour>
      <point x="190" y="706" type="curve"/>
      <point x="191" y="671"/>
      <point x="184" y="628"/>
      <point x="170" y="571" type="curve" smooth="yes"/>
      <point x="67" y="159" type="line"/>
      <point x="57" y="120"/>
      <point x="68" y="99"/>
      <point x="101" y="118" type="curve"/>
      <point x="152" y="282"/>
      <point x="186" y="388"/>
      <point x="225" y="543" type="curve"/>
      <point x="226" y="547" type="line"/>
      <point x="257" y="672"/>
      <point x="244" y="710"/>
      <point x="214" y="710" type="curve"/>
      <point x="205" y="710"/>
      <point x="198" y="709"/>
    </contour>
    <contour>
      <point x="181" y="-19" type="curve" smooth="yes"/>
      <point x="278" y="-19"/>
      <point x="363" y="25"/>
      <point x="464" y="124" type="curve" smooth="yes"/>
      <point x="490" y="152"/>
      <point x="499" y="176"/>
      <point x="502" y="207" type="curve"/>
      <point x="363" y="80"/>
      <point x="282" y="37"/>
      <point x="193" y="37" type="curve" smooth="yes"/>
      <point x="128" y="37"/>
      <point x="97" y="74"/>
      <point x="119" y="204" type="curve"/>
      <point x="81" y="186"/>
      <point x="70" y="172"/>
      <point x="67" y="159" type="curve" smooth="yes"/>
      <point x="43" y="63"/>
      <point x="79" y="-19"/>
    </contour>
    <contour>
      <point x="491" y="-7" type="curve"/>
      <point x="494" y="28"/>
      <point x="502" y="63"/>
      <point x="511" y="100" type="curve" smooth="yes"/>
      <point x="657" y="685" type="line" smooth="yes"/>
      <point x="662" y="704"/>
      <point x="645" y="710"/>
      <point x="620" y="710" type="curve" smooth="yes"/>
      <point x="616" y="710"/>
      <point x="611" y="710"/>
      <point x="608" y="710" type="curve"/>
      <point x="443" y="52" type="line" smooth="yes"/>
      <point x="437" y="29"/>
      <point x="435" y="11"/>
      <point x="444" y="-1" type="curve" smooth="yes"/>
      <point x="448" y="-7"/>
      <point x="456" y="-10"/>
      <point x="471" y="-10" type="curve" smooth="yes"/>
      <point x="478" y="-10"/>
      <point x="484" y="-9"/>
    </contour>
    <contour>
      <point x="431" y="711" type="move" name="top"/>
    </contour>
    <contour>
      <point x="491" y="-8" type="move" name="ogonek"/>
    </contour>
    <contour>
      <point x="428" y="702" type="move" name="ring"/>
    </contour>
    <contour>
      <point x="253" y="-1" type="move" name="bottom"/>
    </contour>
  </outline>
</glyph>
<glyph name="V" format="1">
  <advance width="650"/>
  <unicode hex="0056"/>
  <outline>
    <contour>
      <point x="185" y="710" type="curve"/>
      <point x="174" y="710" type="line"/>
      <point x="90" y="299"/>
      <point x="107" y="153"/>
      <point x="210" y="15" type="curve"/>
      <point x="223" y="-2"/>
      <point x="235" y="-10"/>
      <point x="254" y="-10" type="curve"/>
      <point x="276" y="-10"/>
      <point x="288" y="2"/>
      <point x="302" y="20" type="curve"/>
      <point x="295" y="20"/>
      <point x="291" y="20"/>
      <point x="286" y="20" type="curve" smooth="yes"/>
      <point x="281" y="20"/>
      <point x="277" y="21"/>
      <point x="273" y="25" type="curve"/>
      <point x="163" y="169"/>
      <point x="142" y="293"/>
      <point x="225" y="689" type="curve"/>
      <point x="227" y="703"/>
      <point x="214" y="710"/>
    </contour>
    <contour>
      <point x="652" y="710" type="curve"/>
      <point x="641" y="710" type="line"/>
      <point x="513" y="299"/>
      <point x="435" y="164"/>
      <point x="249" y="27" type="curve"/>
      <point x="233" y="16"/>
      <point x="224" y="-10"/>
      <point x="254" y="-10" type="curve"/>
      <point x="284" y="-10" type="line"/>
      <point x="478" y="128"/>
      <point x="574" y="299"/>
      <point x="690" y="680" type="curve"/>
      <point x="695" y="695"/>
      <point x="680" y="710"/>
    </contour>
  </outline>
</glyph>
<glyph name="W" format="1">
  <advance width="900"/>
  <unicode hex="0057"/>
  <outline>
    <contour>
      <point x="173" y="710" type="curve"/>
      <point x="89" y="312"/>
      <point x="90" y="165"/>
      <point x="143" y="36" type="curve"/>
      <point x="156" y="5"/>
      <point x="173" y="-10"/>
      <point x="191" y="-10" type="curve"/>
      <point x="206" y="-10" type="line" smooth="yes"/>
      <point x="211" y="-10"/>
      <point x="214" y="7"/>
      <point x="218" y="22" type="curve"/>
      <point x="147" y="148"/>
      <point x="141" y="247"/>
      <point x="221" y="678" type="curve"/>
      <point x="224" y="693"/>
      <point x="223" y="696"/>
      <point x="220" y="700" type="curve" smooth="yes"/>
      <point x="215" y="707"/>
      <point x="204" y="710"/>
      <point x="184" y="710" type="curve"/>
      <point x="181" y="710"/>
      <point x="176" y="710"/>
    </contour>
    <contour>
      <point x="892" y="710" type="curve"/>
      <point x="773" y="319"/>
      <point x="711" y="178"/>
      <point x="562" y="27" type="curve"/>
      <point x="551" y="13"/>
      <point x="547" y="-10"/>
      <point x="570" y="-10" type="curve"/>
      <point x="598" y="-10" type="line"/>
      <point x="760" y="138"/>
      <point x="846" y="352"/>
      <point x="941" y="678" type="curve" smooth="yes"/>
      <point x="943" y="688"/>
      <point x="944" y="692"/>
      <point x="940" y="696" type="curve" smooth="yes"/>
      <point x="936" y="702"/>
      <point x="921" y="710"/>
      <point x="903" y="710" type="curve"/>
      <point x="900" y="710"/>
      <point x="896" y="710"/>
    </contour>
    <contour>
      <point x="534" y="611" type="curve"/>
      <point x="500" y="611" type="line"/>
      <point x="380" y="302"/>
      <point x="304" y="169"/>
      <point x="185" y="25" type="curve"/>
      <point x="169" y="7"/>
      <point x="175" y="-10"/>
      <point x="191" y="-10" type="curve"/>
      <point x="223" y="-10" type="line"/>
      <point x="344" y="134"/>
      <point x="435" y="298"/>
      <point x="536" y="574" type="curve" smooth="yes"/>
      <point x="545" y="600"/>
      <point x="542" y="611"/>
    </contour>
    <contour>
      <point x="535" y="611" type="curve"/>
      <point x="523" y="611" type="line"/>
      <point x="479" y="290"/>
      <point x="492" y="142"/>
      <point x="531" y="10" type="curve" smooth="yes"/>
      <point x="536" y="-4"/>
      <point x="547" y="-10"/>
      <point x="570" y="-10" type="curve"/>
      <point x="582" y="-10" type="line"/>
      <point x="586" y="-10"/>
      <point x="592" y="2"/>
      <point x="588" y="23" type="curve"/>
      <point x="543" y="178"/>
      <point x="536" y="298"/>
      <point x="570" y="586" type="curve" smooth="yes"/>
      <point x="570" y="600"/>
      <point x="561" y="611"/>
    </contour>
    <contour>
      <point x="561" y="711" type="move" name="top"/>
    </contour>
  </outline>
</glyph>
<glyph name="X" format="1">
  <advance width="650"/>
  <unicode hex="0058"/>
  <outline>
    <contour>
      <point x="505" y="-6" type="curve" smooth="yes"/>
      <point x="518" y="-6"/>
      <point x="531" y="-4"/>
      <point x="542" y="0" type="curve"/>
      <point x="471" y="77"/>
      <point x="399" y="194"/>
      <point x="338" y="315" type="curve" smooth="yes"/>
      <point x="335" y="321"/>
      <point x="332" y="327"/>
      <point x="330" y="333" type="curve" smooth="yes"/>
      <point x="266" y="464"/>
      <point x="218" y="596"/>
      <point x="202" y="688" type="curve" smooth="yes"/>
      <point x="200" y="699"/>
      <point x="193" y="706"/>
      <point x="158" y="706" type="curve" smooth="yes"/>
      <point x="144" y="706" type="line"/>
      <point x="164" y="581"/>
      <point x="222" y="431"/>
      <point x="287" y="299" type="curve" smooth="yes"/>
      <point x="290" y="292"/>
      <point x="293" y="286"/>
      <point x="296" y="280" type="curve" smooth="yes"/>
      <point x="354" y="167"/>
      <point x="416" y="68"/>
      <point x="465" y="11" type="curve" smooth="yes"/>
      <point x="474" y="-1"/>
      <point x="482" y="-6"/>
    </contour>
    <contour>
      <point x="659" y="706" type="curve" smooth="yes"/>
      <point x="652" y="706" type="line"/>
      <point x="561" y="553"/>
      <point x="463" y="445"/>
      <point x="302" y="325" type="curve"/>
      <point x="276" y="305"/>
      <point x="311" y="286"/>
      <point x="340" y="291" type="curve"/>
      <point x="496" y="403"/>
      <point x="607" y="519"/>
      <point x="706" y="682" type="curve"/>
      <point x="710" y="688"/>
      <point x="711" y="693"/>
      <point x="709" y="695" type="curve" smooth="yes"/>
      <point x="702" y="704"/>
      <point x="677" y="706"/>
    </contour>
    <contour>
      <point x="15" y="-6" type="curve"/>
      <point x="22" y="-6" type="line"/>
      <point x="102" y="102"/>
      <point x="206" y="199"/>
      <point x="322" y="284" type="curve"/>
      <point x="348" y="303"/>
      <point x="310" y="322"/>
      <point x="284" y="320" type="curve"/>
      <point x="151" y="220"/>
      <point x="48" y="128"/>
      <point x="-34" y="22" type="curve" smooth="yes"/>
      <point x="-40" y="13"/>
      <point x="-40" y="8"/>
      <point x="-38" y="4" type="curve" smooth="yes"/>
      <point x="-32" y="-3"/>
      <point x="-12" y="-6"/>
    </contour>
  </outline>
</glyph>
<glyph name="Y" format="1">
  <advance width="600"/>
  <unicode hex="0059"/>
  <outline>
    <contour>
      <point x="153" y="710" type="line"/>
      <point x="132" y="445"/>
      <point x="169" y="357"/>
      <point x="263" y="232" type="curve"/>
      <point x="267" y="227"/>
      <point x="276" y="226"/>
      <point x="283" y="226" type="curve"/>
      <point x="295" y="226"/>
      <point x="302" y="237"/>
      <point x="309" y="259" type="curve"/>
      <point x="218" y="376"/>
      <point x="187" y="454"/>
      <point x="206" y="689" type="curve"/>
      <point x="207" y="703"/>
      <point x="194" y="710"/>
      <point x="164" y="710" type="curve" smooth="yes"/>
    </contour>
    <contour>
      <point x="610" y="710" type="line"/>
      <point x="525" y="485"/>
      <point x="438" y="384"/>
      <point x="281" y="262" type="curve"/>
      <point x="250" y="238"/>
      <point x="276" y="226"/>
      <point x="283" y="226" type="curve"/>
      <point x="314" y="226" type="line"/>
      <point x="474" y="353"/>
      <point x="574" y="462"/>
      <point x="659" y="680" type="curve"/>
      <point x="664" y="695"/>
      <point x="650" y="710"/>
      <point x="621" y="710" type="curve"/>
    </contour>
    <contour>
      <point x="264" y="-7" type="curve"/>
      <point x="266" y="28"/>
      <point x="274" y="63"/>
      <point x="283" y="101" type="curve" smooth="yes"/>
      <point x="319" y="243" type="line" smooth="yes"/>
      <point x="325" y="264"/>
      <point x="298" y="268"/>
      <point x="269" y="268" type="curve"/>
      <point x="215" y="51" type="line" smooth="yes"/>
      <point x="209" y="28"/>
      <point x="207" y="10"/>
      <point x="215" y="-1" type="curve" smooth="yes"/>
      <point x="220" y="-7"/>
      <point x="227" y="-10"/>
      <point x="243" y="-10" type="curve" smooth="yes"/>
      <point x="250" y="-10"/>
      <point x="257" y="-9"/>
    </contour>
    <contour>
      <point x="412" y="711" type="move" name="top"/>
    </contour>
  </outline>
</glyph>
<glyph name="Z" format="1">
  <advance width="600"/>
  <unicode hex="005A"/>
  <outline>
    <contour>
      <point x="226" y="700" type="line"/>
      <point x="224" y="697"/>
      <point x="222" y="691"/>
      <point x="221" y="685" type="curve" smooth="yes"/>
      <point x="216" y="670"/>
      <point x="216" y="661"/>
      <point x="223" y="652" type="curve" smooth="yes"/>
      <point x="226" y="649"/>
      <point x="230" y="647"/>
      <point x="235" y="647" type="curve" smooth="yes"/>
      <point x="546" y="647" type="line" smooth="yes"/>
      <point x="590" y="647"/>
      <point x="607" y="638"/>
      <point x="621" y="621" type="curve" smooth="yes"/>
      <point x="635" y="631"/>
      <point x="640" y="637"/>
      <point x="642" y="645" type="curve"/>
      <point x="644" y="649" type="line" smooth="yes"/>
      <point x="651" y="673"/>
      <point x="635" y="700"/>
      <point x="571" y="700" type="curve" smooth="yes"/>
    </contour>
    <contour>
      <point x="598" y="674" type="curve"/>
      <point x="484" y="435"/>
      <point x="273" y="234"/>
      <point x="7" y="53" type="curve"/>
      <point x="-1" y="22"/>
      <point x="41" y="19"/>
      <point x="68" y="37" type="curve" smooth="yes"/>
      <point x="433" y="275"/>
      <point x="623" y="570"/>
      <point x="642" y="645" type="curve"/>
      <point x="647" y="664"/>
      <point x="623" y="671"/>
    </contour>
    <contour>
      <point x="480" y="0" type="line"/>
      <point x="481" y="3"/>
      <point x="482" y="8"/>
      <point x="483" y="11" type="curve" smooth="yes"/>
      <point x="488" y="29"/>
      <point x="487" y="39"/>
      <point x="480" y="48" type="curve" smooth="yes"/>
      <point x="477" y="51"/>
      <point x="473" y="53"/>
      <point x="467" y="53" type="curve" smooth="yes"/>
      <point x="196" y="53" type="line" smooth="yes"/>
      <point x="146" y="53"/>
      <point x="61" y="53"/>
      <point x="7" y="53" type="curve"/>
      <point x="4" y="43" type="line" smooth="yes"/>
      <point x="0" y="18"/>
      <point x="-1" y="0"/>
      <point x="18" y="0" type="curve" smooth="yes"/>
    </contour>
    <contour>
      <point x="203" y="517" type="curve"/>
      <point x="225" y="607"/>
      <point x="263" y="688"/>
      <point x="265" y="695" type="curve"/>
      <point x="270" y="714"/>
      <point x="252" y="720"/>
      <point x="229" y="720" type="curve" smooth="yes"/>
      <point x="219" y="720" type="line"/>
      <point x="192" y="662"/>
      <point x="168" y="600"/>
      <point x="154" y="542" type="curve"/>
      <point x="149" y="522"/>
      <point x="166" y="516"/>
      <point x="190" y="516" type="curve" smooth="yes"/>
      <point x="194" y="516"/>
      <point x="199" y="516"/>
    </contour>
    <contour>
      <point x="412" y="711" type="move" name="top"/>
    </contour>
  </outline>
</glyph>
<glyph name="bracketleft" format="1">
  <advance width="400"/>
  <unicode hex="005B"/>
  <outline>
    <contour>
      <point x="147" y="649" type="curve" smooth="yes"/>
      <point x="-42" y="-106" type="line" smooth="yes"/>
      <point x="-45" y="-118"/>
      <point x="-17" y="-120"/>
      <point x="11" y="-120" type="curve"/>
      <point x="220" y="718" type="line" smooth="yes"/>
      <point x="226" y="740"/>
      <point x="225" y="760"/>
      <point x="196" y="760" type="curve" smooth="yes"/>
      <point x="186" y="760"/>
      <point x="177" y="759"/>
      <point x="166" y="756" type="curve"/>
      <point x="164" y="721"/>
      <point x="156" y="687"/>
    </contour>
    <contour>
      <point x="464" y="705" type="line"/>
      <point x="468" y="710"/>
      <point x="470" y="717"/>
      <point x="472" y="724" type="curve" smooth="yes"/>
      <point x="474" y="733"/>
      <point x="475" y="746"/>
      <point x="469" y="755" type="curve" smooth="yes"/>
      <point x="466" y="758"/>
      <point x="463" y="760"/>
      <point x="457" y="760" type="curve" smooth="yes"/>
      <point x="196" y="760" type="line"/>
      <point x="189" y="731"/>
      <point x="190" y="705"/>
      <point x="251" y="705" type="curve"/>
    </contour>
    <contour>
      <point x="250" y="-161" type="line"/>
      <point x="252" y="-157"/>
      <point x="253" y="-152"/>
      <point x="254" y="-148" type="curve" smooth="yes"/>
      <point x="261" y="-119"/>
      <point x="256" y="-106"/>
      <point x="240" y="-106" type="curve" smooth="yes"/>
      <point x="-42" y="-106" type="line"/>
      <point x="-44" y="-116" type="line" smooth="yes"/>
      <point x="-50" y="-137"/>
      <point x="-39" y="-161"/>
      <point x="-21" y="-161" type="curve" smooth="yes"/>
    </contour>
  </outline>
</glyph>
<glyph name="backslash" format="1">
  <advance width="600"/>
  <unicode hex="005C"/>
  <outline>
    <contour>
      <point x="215" y="750" type="curve"/>
      <point x="214" y="425"/>
      <point x="257" y="138"/>
      <point x="344" y="-111" type="curve" smooth="yes"/>
      <point x="352" y="-133"/>
      <point x="367" y="-139"/>
      <point x="389" y="-139" type="curve" smooth="yes"/>
      <point x="402" y="-139"/>
      <point x="413" y="-137"/>
      <point x="424" y="-132" type="curve"/>
      <point x="410" y="-112"/>
      <point x="402" y="-91"/>
      <point x="392" y="-60" type="curve"/>
      <point x="315" y="179"/>
      <point x="278" y="445"/>
      <point x="277" y="732" type="curve"/>
      <point x="276" y="753"/>
      <point x="259" y="757"/>
      <point x="244" y="757" type="curve" smooth="yes"/>
      <point x="232" y="757"/>
      <point x="224" y="754"/>
    </contour>
  </outline>
</glyph>
<glyph name="bracketright" format="1">
  <advance width="400"/>
  <unicode hex="005D"/>
  <outline>
    <contour>
      <point x="271" y="-50" type="curve" smooth="yes"/>
      <point x="460" y="705" type="line" smooth="yes"/>
      <point x="463" y="717"/>
      <point x="435" y="719"/>
      <point x="407" y="719" type="curve"/>
      <point x="198" y="-119" type="line" smooth="yes"/>
      <point x="193" y="-141"/>
      <point x="193" y="-161"/>
      <point x="222" y="-161" type="curve" smooth="yes"/>
      <point x="232" y="-161"/>
      <point x="241" y="-160"/>
      <point x="252" y="-157" type="curve"/>
      <point x="254" y="-122"/>
      <point x="262" y="-88"/>
    </contour>
    <contour>
      <point x="-46" y="-106" type="line"/>
      <point x="-49" y="-111"/>
      <point x="-52" y="-118"/>
      <point x="-54" y="-125" type="curve" smooth="yes"/>
      <point x="-56" y="-134"/>
      <point x="-57" y="-147"/>
      <point x="-51" y="-156" type="curve" smooth="yes"/>
      <point x="-48" y="-159"/>
      <point x="-45" y="-161"/>
      <point x="-39" y="-161" type="curve" smooth="yes"/>
      <point x="222" y="-161" type="line"/>
      <point x="229" y="-132"/>
      <point x="228" y="-106"/>
      <point x="167" y="-106" type="curve"/>
    </contour>
    <contour>
      <point x="168" y="760" type="line"/>
      <point x="166" y="756"/>
      <point x="165" y="751"/>
      <point x="164" y="747" type="curve" smooth="yes"/>
      <point x="157" y="718"/>
      <point x="162" y="705"/>
      <point x="179" y="705" type="curve" smooth="yes"/>
      <point x="460" y="705" type="line"/>
      <point x="463" y="715" type="line" smooth="yes"/>
      <point x="468" y="736"/>
      <point x="457" y="760"/>
      <point x="440" y="760" type="curve" smooth="yes"/>
    </contour>
  </outline>
</glyph>
<glyph name="grave" format="1">
  <advance width="350"/>
  <unicode hex="0060"/>
  <outline>
    <contour>
      <point x="292" y="407" type="curve"/>
      <point x="257" y="502"/>
      <point x="255" y="562"/>
      <point x="292" y="712" type="curve"/>
      <point x="282" y="718"/>
      <point x="273" y="720"/>
      <point x="257" y="720" type="curve" smooth="yes"/>
      <point x="233" y="720"/>
      <point x="206" y="712"/>
      <point x="198" y="683" type="curve" smooth="yes"/>
      <point x="165" y="550"/>
      <point x="188" y="453"/>
      <point x="226" y="403" type="curve" smooth="yes"/>
      <point x="231" y="397"/>
      <point x="236" y="395"/>
      <point x="247" y="395" type="curve" smooth="yes"/>
      <point x="265" y="395"/>
      <point x="276" y="398"/>
    </contour>
  </outline>
</glyph>
<glyph name="a" format="1">
  <advance width="600"/>
  <unicode hex="0061"/>
  <outline>
    <contour>
      <point x="344" y="537" type="curve" smooth="yes"/>
      <point x="274" y="537"/>
      <point x="214" y="526"/>
      <point x="191" y="507" type="curve" smooth="yes"/>
      <point x="180" y="499"/>
      <point x="174" y="489"/>
      <point x="171" y="475" type="curve" smooth="yes"/>
      <point x="169" y="466"/>
      <point x="168" y="460"/>
      <point x="168" y="452" type="curve"/>
      <point x="172" y="452" type="line"/>
      <point x="213" y="469"/>
      <point x="262" y="484"/>
      <point x="329" y="484" type="curve" smooth="yes"/>
      <point x="454" y="484"/>
      <point x="485" y="434"/>
      <point x="471" y="334" type="curve"/>
      <point x="488" y="334"/>
      <point x="497" y="335"/>
      <point x="501" y="352" type="curve"/>
      <point x="528" y="462"/>
      <point x="471" y="537"/>
    </contour>
    <contour>
      <point x="431" y="482" type="curve"/>
      <point x="456" y="442"/>
      <point x="462" y="414"/>
      <point x="446" y="351" type="curve" smooth="yes"/>
      <point x="422" y="255"/>
      <point x="402" y="180"/>
      <point x="383" y="103" type="curve" smooth="yes"/>
      <point x="368" y="45"/>
      <point x="401" y="24"/>
      <point x="435" y="31" type="curve"/>
      <point x="429" y="55"/>
      <point x="431" y="71"/>
      <point x="438" y="101" type="curve" smooth="yes"/>
      <point x="462" y="193"/>
      <point x="471" y="231"/>
      <point x="501" y="352" type="curve" smooth="yes"/>
      <point x="519" y="425"/>
      <point x="481" y="491"/>
    </contour>
    <contour>
      <point x="504" y="53" type="line"/>
      <point x="500" y="53" type="line"/>
      <point x="486" y="47"/>
      <point x="471" y="43"/>
      <point x="455" y="43" type="curve" smooth="yes"/>
      <point x="432" y="43"/>
      <point x="415" y="51"/>
      <point x="434" y="129" type="curve"/>
      <point x="401" y="131"/>
      <point x="388" y="123"/>
      <point x="383" y="103" type="curve" smooth="yes"/>
      <point x="365" y="32"/>
      <point x="388" y="-10"/>
      <point x="442" y="-10" type="curve" smooth="yes"/>
      <point x="444" y="-10" type="line" smooth="yes"/>
      <point x="479" y="-10"/>
      <point x="495" y="14"/>
      <point x="502" y="45" type="curve"/>
    </contour>
    <contour>
      <point x="111" y="137" type="curve" smooth="yes"/>
      <point x="113" y="145" type="line" smooth="yes"/>
      <point x="126" y="195"/>
      <point x="159" y="219"/>
      <point x="186" y="238" type="curve"/>
      <point x="134" y="253"/>
      <point x="70" y="189"/>
      <point x="59" y="145" type="curve" smooth="yes"/>
      <point x="55" y="134" type="line" smooth="yes"/>
      <point x="35" y="54"/>
      <point x="78" y="-10"/>
      <point x="169" y="-10" type="curve" smooth="yes"/>
      <point x="258" y="-10"/>
      <point x="338" y="34"/>
      <point x="387" y="89" type="curve" smooth="yes"/>
      <point x="402" y="106"/>
      <point x="409" y="130"/>
      <point x="417" y="165" type="curve"/>
      <point x="327" y="77"/>
      <point x="248" y="43"/>
      <point x="189" y="43" type="curve" smooth="yes"/>
      <point x="186" y="43" type="line" smooth="yes"/>
      <point x="121" y="43"/>
      <point x="95" y="75"/>
    </contour>
    <contour>
      <point x="443" y="262" type="curve" smooth="yes"/>
      <point x="432" y="276"/>
      <point x="376" y="293"/>
      <point x="284" y="293" type="curve" smooth="yes"/>
      <point x="161" y="293"/>
      <point x="83" y="241"/>
      <point x="59" y="145" type="curve" smooth="yes"/>
      <point x="53" y="127"/>
      <point x="60" y="122"/>
      <point x="80" y="122" type="curve"/>
      <point x="122" y="204"/>
      <point x="173" y="242"/>
      <point x="282" y="242" type="curve" smooth="yes"/>
      <point x="349" y="242"/>
      <point x="389" y="237"/>
      <point x="441" y="224" type="curve"/>
      <point x="448" y="246"/>
      <point x="449" y="253"/>
    </contour>
    <contour>
      <point x="353" y="538" type="move" name="top"/>
    </contour>
    <contour>
      <point x="446" y="-1" type="move" name="ogonek"/>
    </contour>
    <contour>
      <point x="257" y="-1" type="move" name="bottom"/>
    </contour>
  </outline>
</glyph>
<glyph name="b" format="1">
  <advance width="600"/>
  <unicode hex="0062"/>
  <outline>
    <contour>
      <point x="39" y="0" type="line"/>
      <point x="43" y="-3"/>
      <point x="48" y="-4"/>
      <point x="57" y="-4" type="curve" smooth="yes"/>
      <point x="83" y="-4"/>
      <point x="98" y="12"/>
      <point x="103" y="36" type="curve" smooth="yes"/>
      <point x="271" y="693" type="line"/>
      <point x="283" y="740"/>
      <point x="275" y="760"/>
      <point x="249" y="760" type="curve" smooth="yes"/>
      <point x="238" y="760"/>
      <point x="229" y="759"/>
      <point x="216" y="754" type="curve"/>
      <point x="221" y="729"/>
      <point x="219" y="710"/>
      <point x="206" y="660" type="curve" smooth="yes"/>
    </contour>
    <contour>
      <point x="426" y="537" type="curve" smooth="yes"/>
      <point x="335" y="537"/>
      <point x="238" y="461"/>
      <point x="174" y="350" type="curve" smooth="yes"/>
      <point x="153" y="314"/>
      <point x="147" y="275"/>
      <point x="151" y="250" type="curve"/>
      <point x="265" y="422"/>
      <point x="346" y="483"/>
      <point x="423" y="483" type="curve" smooth="yes"/>
      <point x="487" y="483"/>
      <point x="516" y="430"/>
      <point x="498" y="319" type="curve"/>
      <point x="530" y="320"/>
      <point x="540" y="323"/>
      <point x="542" y="331" type="curve" smooth="yes"/>
      <point x="573" y="457"/>
      <point x="534" y="537"/>
    </contour>
    <contour>
      <point x="246" y="-10" type="curve" smooth="yes"/>
      <point x="381" y="-10"/>
      <point x="477" y="72"/>
      <point x="536" y="311" type="curve" smooth="yes"/>
      <point x="542" y="331" type="line" smooth="yes"/>
      <point x="554" y="384"/>
      <point x="547" y="468"/>
      <point x="516" y="468" type="curve"/>
      <point x="509" y="468"/>
      <point x="502" y="465"/>
      <point x="497" y="459" type="curve"/>
      <point x="502" y="408"/>
      <point x="497" y="370"/>
      <point x="485" y="322" type="curve" smooth="yes"/>
      <point x="481" y="306" type="line" smooth="yes"/>
      <point x="434" y="130"/>
      <point x="362" y="43"/>
      <point x="254" y="43" type="curve" smooth="yes"/>
      <point x="184" y="43"/>
      <point x="150" y="69"/>
      <point x="119" y="136" type="curve"/>
      <point x="112" y="134"/>
      <point x="104" y="120"/>
      <point x="104" y="112" type="curve" smooth="yes"/>
      <point x="92" y="63"/>
      <point x="156" y="-10"/>
    </contour>
  </outline>
</glyph>
<glyph name="c" format="1">
  <advance width="500"/>
  <unicode hex="0063"/>
  <outline>
    <contour>
      <point x="367" y="537" type="curve" smooth="yes"/>
      <point x="220" y="537"/>
      <point x="115" y="441"/>
      <point x="64" y="246" type="curve" smooth="yes"/>
      <point x="59" y="227" type="line" smooth="yes"/>
      <point x="20" y="77"/>
      <point x="95" y="-10"/>
      <point x="225" y="-10" type="curve" smooth="yes"/>
      <point x="234" y="-10"/>
      <point x="244" y="-4"/>
      <point x="251" y="26" type="curve"/>
      <point x="132" y="28"/>
      <point x="88" y="115"/>
      <point x="114" y="218" type="curve" smooth="yes"/>
      <point x="118" y="234" type="line" smooth="yes"/>
      <point x="155" y="383"/>
      <point x="242" y="481"/>
      <point x="358" y="481" type="curve" smooth="yes"/>
      <point x="417" y="481"/>
      <point x="447" y="467"/>
      <point x="475" y="431" type="curve"/>
      <point x="479" y="431" type="line"/>
      <point x="485" y="440"/>
      <point x="488" y="448"/>
      <point x="491" y="459" type="curve"/>
      <point x="495" y="478"/>
      <point x="494" y="486"/>
      <point x="486" y="498" type="curve" smooth="yes"/>
      <point x="468" y="521"/>
      <point x="421" y="537"/>
    </contour>
    <contour>
      <point x="225" y="-10" type="curve" smooth="yes"/>
      <point x="292" y="-10"/>
      <point x="342" y="7"/>
      <point x="368" y="29" type="curve" smooth="yes"/>
      <point x="384" y="41"/>
      <point x="392" y="55"/>
      <point x="400" y="85" type="curve"/>
      <point x="402" y="94"/>
      <point x="403" y="105"/>
      <point x="403" y="111" type="curve"/>
      <point x="399" y="111" type="line"/>
      <point x="353" y="70"/>
      <point x="309" y="45"/>
      <point x="238" y="45" type="curve" smooth="yes"/>
      <point x="171" y="45"/>
      <point x="135" y="64"/>
      <point x="84" y="121" type="curve"/>
      <point x="55" y="60"/>
      <point x="121" y="-10"/>
    </contour>
    <contour>
      <point x="346" y="538" type="move" name="top"/>
    </contour>
    <contour>
      <point x="212" y="-1" type="move" name="bottom"/>
    </contour>
  </outline>
</glyph>
<glyph name="d" format="1">
  <advance width="600"/>
  <unicode hex="0064"/>
  <outline>
    <contour>
      <point x="352" y="537" type="curve" smooth="yes"/>
      <point x="218" y="537"/>
      <point x="120" y="450"/>
      <point x="60" y="212" type="curve" smooth="yes"/>
      <point x="56" y="196" type="line" smooth="yes"/>
      <point x="42" y="141"/>
      <point x="53" y="57"/>
      <point x="84" y="57" type="curve" smooth="yes"/>
      <point x="92" y="57"/>
      <point x="99" y="60"/>
      <point x="102" y="65" type="curve"/>
      <point x="99" y="117"/>
      <point x="102" y="156"/>
      <point x="113" y="204" type="curve" smooth="yes"/>
      <point x="117" y="218" type="line" smooth="yes"/>
      <point x="160" y="389"/>
      <point x="236" y="484"/>
      <point x="344" y="484" type="curve" smooth="yes"/>
      <point x="413" y="484"/>
      <point x="449" y="458"/>
      <point x="479" y="391" type="curve"/>
      <point x="486" y="393"/>
      <point x="494" y="407"/>
      <point x="495" y="414" type="curve" smooth="yes"/>
      <point x="506" y="466"/>
      <point x="446" y="537"/>
    </contour>
    <contour>
      <point x="171" y="-10" type="curve" smooth="yes"/>
      <point x="263" y="-10"/>
      <point x="360" y="66"/>
      <point x="425" y="177" type="curve" smooth="yes"/>
      <point x="445" y="213"/>
      <point x="451" y="252"/>
      <point x="448" y="276" type="curve"/>
      <point x="339" y="105"/>
      <point x="253" y="44"/>
      <point x="175" y="44" type="curve" smooth="yes"/>
      <point x="108" y="44"/>
      <point x="82" y="96"/>
      <point x="100" y="207" type="curve"/>
      <point x="68" y="207"/>
      <point x="58" y="204"/>
      <point x="56" y="196" type="curve" smooth="yes"/>
      <point x="24" y="74"/>
      <point x="64" y="-10"/>
    </contour>
    <contour>
      <point x="551" y="755" type="curve"/>
      <point x="553" y="727"/>
      <point x="552" y="713"/>
      <point x="540" y="667" type="curve" smooth="yes"/>
      <point x="390" y="77" type="line"/>
      <point x="382" y="45"/>
      <point x="378" y="22"/>
      <point x="388" y="9" type="curve" smooth="yes"/>
      <point x="396" y="-2"/>
      <point x="408" y="-4"/>
      <point x="419" y="-4" type="curve" smooth="yes"/>
      <point x="424" y="-4"/>
      <point x="431" y="-3"/>
      <point x="436" y="-1" type="curve"/>
      <point x="435" y="27"/>
      <point x="436" y="41"/>
      <point x="448" y="87" type="curve" smooth="yes"/>
      <point x="600" y="685" type="line"/>
      <point x="607" y="712"/>
      <point x="610" y="733"/>
      <point x="601" y="745" type="curve" smooth="yes"/>
      <point x="593" y="756"/>
      <point x="582" y="758"/>
      <point x="571" y="758" type="curve" smooth="yes"/>
      <point x="565" y="758"/>
      <point x="557" y="757"/>
    </contour>
    <contour>
      <point x="666" y="711" type="move" name="caronslovak"/>
    </contour>
  </outline>
</glyph>
<glyph name="f" format="1">
  <advance width="450"/>
  <unicode hex="0066"/>
  <outline>
    <contour>
      <point x="168" y="-6" type="curve"/>
      <point x="166" y="28"/>
      <point x="169" y="51"/>
      <point x="181" y="100" type="curve" smooth="yes"/>
      <point x="285" y="513" type="line" smooth="yes"/>
      <point x="290" y="537"/>
      <point x="293" y="550"/>
      <point x="299" y="573" type="curve" smooth="yes"/>
      <point x="326" y="680"/>
      <point x="375" y="730"/>
      <point x="464" y="730" type="curve"/>
      <point x="470" y="751"/>
      <point x="460" y="759"/>
      <point x="450" y="759" type="curve" smooth="yes"/>
      <point x="343" y="759"/>
      <point x="278" y="710"/>
      <point x="250" y="597" type="curve" smooth="yes"/>
      <point x="115" y="62" type="line" smooth="yes"/>
      <point x="101" y="2"/>
      <point x="117" y="-10"/>
      <point x="146" y="-10" type="curve" smooth="yes"/>
      <point x="154" y="-10"/>
      <point x="161" y="-9"/>
    </contour>
    <contour>
      <point x="309" y="649" type="curve"/>
      <point x="355" y="692"/>
      <point x="389" y="704"/>
      <point x="438" y="704" type="curve" smooth="yes"/>
      <point x="483" y="704"/>
      <point x="511" y="696"/>
      <point x="536" y="676" type="curve"/>
      <point x="540" y="676" type="line"/>
      <point x="543" y="682"/>
      <point x="546" y="689"/>
      <point x="548" y="697" type="curve"/>
      <point x="553" y="715"/>
      <point x="551" y="728"/>
      <point x="546" y="734" type="curve" smooth="yes"/>
      <point x="539" y="743"/>
      <point x="507" y="759"/>
      <point x="450" y="759" type="curve" smooth="yes"/>
      <point x="369" y="759"/>
      <point x="300" y="701"/>
    </contour>
    <contour>
      <point x="110" y="526" type="curve"/>
      <point x="109" y="523"/>
      <point x="108" y="518"/>
      <point x="107" y="515" type="curve" smooth="yes"/>
      <point x="103" y="497"/>
      <point x="103" y="485"/>
      <point x="110" y="477" type="curve" smooth="yes"/>
      <point x="113" y="473"/>
      <point x="117" y="470"/>
      <point x="125" y="470" type="curve" smooth="yes"/>
      <point x="239" y="470"/>
      <point x="356" y="470"/>
      <point x="468" y="470" type="curve"/>
      <point x="469" y="474"/>
      <point x="471" y="479"/>
      <point x="472" y="483" type="curve" smooth="yes"/>
      <point x="478" y="508"/>
      <point x="477" y="526"/>
      <point x="457" y="526" type="curve" smooth="yes"/>
      <point x="349" y="526"/>
      <point x="222" y="526"/>
    </contour>
  </outline>
</glyph>
<glyph name="g" format="1">
  <advance width="600"/>
  <unicode hex="0067"/>
  <outline>
    <contour>
      <point x="369" y="490" type="curve" smooth="yes"/>
      <point x="524" y="490"/>
      <point x="564" y="476"/>
      <point x="591" y="476" type="curve" smooth="yes"/>
      <point x="609" y="476"/>
      <point x="618" y="492"/>
      <point x="624" y="515" type="curve" smooth="yes"/>
      <point x="625" y="519"/>
      <point x="626" y="523"/>
      <point x="626" y="527" type="curve"/>
      <point x="548" y="536"/>
      <point x="482" y="542"/>
      <point x="382" y="542" type="curve" smooth="yes"/>
      <point x="226" y="542"/>
      <point x="141" y="481"/>
      <point x="112" y="366" type="curve" smooth="yes"/>
      <point x="111" y="362" type="line" smooth="yes"/>
      <point x="81" y="243"/>
      <point x="159" y="160"/>
      <point x="279" y="160" type="curve"/>
      <point x="305" y="160"/>
      <point x="312" y="175"/>
      <point x="317" y="193" type="curve"/>
      <point x="161" y="193"/>
      <point x="151" y="303"/>
      <point x="163" y="350" type="curve" smooth="yes"/>
      <point x="164" y="354" type="line" smooth="yes"/>
      <point x="189" y="455"/>
      <point x="260" y="490"/>
    </contour>
    <contour>
      <point x="290" y="214" type="curve" smooth="yes"/>
      <point x="229" y="214"/>
      <point x="185" y="227"/>
      <point x="143" y="265" type="curve"/>
      <point x="118" y="223"/>
      <point x="192" y="160"/>
      <point x="279" y="160" type="curve" smooth="yes"/>
      <point x="414" y="160"/>
      <point x="497" y="217"/>
      <point x="524" y="323" type="curve" smooth="yes"/>
      <point x="525" y="327" type="line" smooth="yes"/>
      <point x="549" y="426"/>
      <point x="497" y="501"/>
      <point x="434" y="503" type="curve" smooth="yes"/>
      <point x="416" y="504"/>
      <point x="404" y="504"/>
      <point x="395" y="496" type="curve"/>
      <point x="482" y="462"/>
      <point x="482" y="378"/>
      <point x="472" y="338" type="curve" smooth="yes"/>
      <point x="471" y="333" type="line" smooth="yes"/>
      <point x="449" y="246"/>
      <point x="386" y="214"/>
    </contour>
    <contour>
      <point x="153" y="81" type="curve" smooth="yes"/>
      <point x="151" y="76" type="line" smooth="yes"/>
      <point x="139" y="28"/>
      <point x="161" y="-6"/>
      <point x="226" y="-10" type="curve" smooth="yes"/>
      <point x="325" y="-15" type="line" smooth="yes"/>
      <point x="387" y="-19"/>
      <point x="406" y="-40"/>
      <point x="395" y="-93" type="curve" smooth="yes"/>
      <point x="393" y="-102" type="line" smooth="yes"/>
      <point x="380" y="-161"/>
      <point x="317" y="-215"/>
      <point x="153" y="-215" type="curve"/>
      <point x="146" y="-244"/>
      <point x="155" y="-250"/>
      <point x="166" y="-250" type="curve" smooth="yes"/>
      <point x="342" y="-250"/>
      <point x="421" y="-214"/>
      <point x="450" y="-97" type="curve" smooth="yes"/>
      <point x="452" y="-89" type="line" smooth="yes"/>
      <point x="469" y="-21"/>
      <point x="439" y="34"/>
      <point x="349" y="40" type="curve" smooth="yes"/>
      <point x="248" y="47" type="line" smooth="yes"/>
      <point x="212" y="49"/>
      <point x="202" y="61"/>
      <point x="208" y="84" type="curve" smooth="yes"/>
      <point x="209" y="88" type="line" smooth="yes"/>
      <point x="217" y="121"/>
      <point x="238" y="147"/>
      <point x="278" y="175" type="curve"/>
      <point x="281" y="189"/>
      <point x="274" y="193"/>
      <point x="252" y="193" type="curve" smooth="yes"/>
      <point x="224" y="193"/>
      <point x="166" y="134"/>
    </contour>
    <contour>
      <point x="403" y="-139" type="curve"/>
      <point x="345" y="-185"/>
      <point x="290" y="-197"/>
      <point x="188" y="-197" type="curve" smooth="yes"/>
      <point x="141" y="-197" type="line" smooth="yes"/>
      <point x="50" y="-197"/>
      <point x="15" y="-159"/>
      <point x="29" y="-103" type="curve" smooth="yes"/>
      <point x="31" y="-95" type="line" smooth="yes"/>
      <point x="48" y="-26"/>
      <point x="90" y="-3"/>
      <point x="181" y="9" type="curve"/>
      <point x="182" y="34"/>
      <point x="175" y="47"/>
      <point x="162" y="46" type="curve" smooth="yes"/>
      <point x="64" y="36"/>
      <point x="-4" y="-4"/>
      <point x="-27" y="-94" type="curve" smooth="yes"/>
      <point x="-29" y="-102" type="line" smooth="yes"/>
      <point x="-47" y="-175"/>
      <point x="2" y="-250"/>
      <point x="121" y="-250" type="curve" smooth="yes"/>
      <point x="166" y="-250" type="line" smooth="yes"/>
      <point x="317" y="-250"/>
      <point x="410" y="-190"/>
    </contour>
  </outline>
</glyph>
<glyph name="h" format="1">
  <advance width="600"/>
  <unicode hex="0068"/>
  <outline>
    <contour>
      <point x="84" y="-5" type="curve"/>
      <point x="259" y="683" type="line" smooth="yes"/>
      <point x="266" y="711"/>
      <point x="269" y="732"/>
      <point x="260" y="745" type="curve" smooth="yes"/>
      <point x="252" y="755"/>
      <point x="241" y="758"/>
      <point x="228" y="758" type="curve" smooth="yes"/>
      <point x="223" y="758"/>
      <point x="216" y="757"/>
      <point x="210" y="755" type="curve"/>
      <point x="212" y="727"/>
      <point x="211" y="713"/>
      <point x="199" y="667" type="curve" smooth="yes"/>
      <point x="34" y="20" type="line" smooth="yes"/>
      <point x="29" y="0"/>
      <point x="47" y="-5"/>
      <point x="71" y="-5" type="curve" smooth="yes"/>
      <point x="75" y="-5"/>
      <point x="80" y="-5"/>
    </contour>
    <contour>
      <point x="431" y="538" type="curve" smooth="yes"/>
      <point x="347" y="538"/>
      <point x="241" y="452"/>
      <point x="159" y="335" type="curve" smooth="yes"/>
      <point x="136" y="299"/>
      <point x="125" y="262"/>
      <point x="132" y="219" type="curve"/>
      <point x="215" y="357"/>
      <point x="331" y="484"/>
      <point x="426" y="484" type="curve" smooth="yes"/>
      <point x="477" y="484"/>
      <point x="495" y="447"/>
      <point x="485" y="369" type="curve"/>
      <point x="520" y="371"/>
      <point x="528" y="380"/>
      <point x="531" y="392" type="curve" smooth="yes"/>
      <point x="550" y="466"/>
      <point x="518" y="538"/>
    </contour>
    <contour>
      <point x="444" y="0" type="curve"/>
      <point x="445" y="44"/>
      <point x="452" y="78"/>
      <point x="464" y="125" type="curve" smooth="yes"/>
      <point x="531" y="392" type="line"/>
      <point x="540" y="424"/>
      <point x="531" y="444"/>
      <point x="498" y="444" type="curve"/>
      <point x="449" y="290"/>
      <point x="431" y="241"/>
      <point x="406" y="140" type="curve" smooth="yes"/>
      <point x="404" y="132" type="line" smooth="yes"/>
      <point x="378" y="28"/>
      <point x="399" y="-2"/>
      <point x="428" y="-2" type="curve" smooth="yes"/>
      <point x="434" y="-2"/>
      <point x="440" y="-1"/>
    </contour>
    <contour>
      <point x="239" y="730" type="move" name="top"/>
    </contour>
  </outline>
</glyph>
<glyph name="i" format="1">
  <advance width="350"/>
  <unicode hex="0069"/>
  <outline>
    <contour>
      <point x="110" y="527" type="curve"/>
      <point x="109" y="523"/>
      <point x="107" y="519"/>
      <point x="106" y="514" type="curve" smooth="yes"/>
      <point x="99" y="485"/>
      <point x="105" y="474"/>
      <point x="120" y="474" type="curve" smooth="yes"/>
      <point x="133" y="474"/>
      <point x="178" y="484"/>
      <point x="252" y="484" type="curve"/>
      <point x="262" y="522"/>
      <point x="261" y="537"/>
      <point x="242" y="537" type="curve" smooth="yes"/>
      <point x="206" y="537"/>
      <point x="166" y="534"/>
    </contour>
    <contour>
      <point x="172" y="-6" type="curve"/>
      <point x="170" y="28"/>
      <point x="173" y="51"/>
      <point x="186" y="100" type="curve" smooth="yes"/>
      <point x="290" y="509" type="line" smooth="yes"/>
      <point x="293" y="524"/>
      <point x="286" y="537"/>
      <point x="250" y="537" type="curve" smooth="yes"/>
      <point x="241" y="537" type="line"/>
      <point x="119" y="60" type="line" smooth="yes"/>
      <point x="105" y="2"/>
      <point x="121" y="-10"/>
      <point x="150" y="-10" type="curve" smooth="yes"/>
      <point x="158" y="-10"/>
      <point x="165" y="-9"/>
    </contour>
    <contour>
      <point x="336" y="634" type="curve"/>
      <point x="349" y="687" type="line" smooth="yes"/>
      <point x="356" y="711"/>
      <point x="339" y="724"/>
      <point x="306" y="724" type="curve" smooth="yes"/>
      <point x="293" y="724"/>
      <point x="282" y="723"/>
      <point x="272" y="721" type="curve"/>
      <point x="259" y="667" type="line" smooth="yes"/>
      <point x="253" y="643"/>
      <point x="270" y="630"/>
      <point x="302" y="630" type="curve" smooth="yes"/>
      <point x="315" y="630"/>
      <point x="327" y="631"/>
    </contour>
    <contour>
      <point x="376" y="-1" type="move" name="ogonek"/>
    </contour>
    <contour>
      <point x="226" y="-1" type="move" name="bottom"/>
    </contour>
  </outline>
</glyph>
<glyph name="j" format="1">
  <advance width="350"/>
  <unicode hex="006A"/>
  <outline>
    <contour>
      <point x="115" y="527" type="curve"/>
      <point x="114" y="523"/>
      <point x="113" y="518"/>
      <point x="112" y="514" type="curve" smooth="yes"/>
      <point x="104" y="485"/>
      <point x="110" y="474"/>
      <point x="126" y="474" type="curve" smooth="yes"/>
      <point x="137" y="474"/>
      <point x="215" y="484"/>
      <point x="276" y="484" type="curve"/>
      <point x="286" y="523"/>
      <point x="284" y="537"/>
      <point x="265" y="537" type="curve" smooth="yes"/>
      <point x="236" y="537"/>
      <point x="160" y="531"/>
    </contour>
    <contour>
      <point x="173" y="-43" type="curve" smooth="yes"/>
      <point x="314" y="511" type="line" smooth="yes"/>
      <point x="315" y="517"/>
      <point x="314" y="521"/>
      <point x="311" y="525" type="curve" smooth="yes"/>
      <point x="305" y="533"/>
      <point x="288" y="537"/>
      <point x="270" y="537" type="curve" smooth="yes"/>
      <point x="265" y="537" type="line"/>
      <point x="120" y="-34" type="line" smooth="yes"/>
      <point x="99" y="-114"/>
      <point x="74" y="-158"/>
      <point x="15" y="-204" type="curve"/>
      <point x="61" y="-219"/>
      <point x="148" y="-141"/>
    </contour>
    <contour>
      <point x="-23" y="-197" type="curve" smooth="yes"/>
      <point x="-58" y="-197"/>
      <point x="-73" y="-193"/>
      <point x="-94" y="-174" type="curve"/>
      <point x="-98" y="-174" type="line"/>
      <point x="-103" y="-181"/>
      <point x="-106" y="-186"/>
      <point x="-109" y="-196" type="curve" smooth="yes"/>
      <point x="-112" y="-208"/>
      <point x="-111" y="-218"/>
      <point x="-104" y="-227" type="curve" smooth="yes"/>
      <point x="-94" y="-241"/>
      <point x="-69" y="-250"/>
      <point x="-34" y="-250" type="curve" smooth="yes"/>
      <point x="71" y="-250"/>
      <point x="134" y="-192"/>
      <point x="173" y="-43" type="curve" smooth="yes"/>
      <point x="176" y="-32"/>
      <point x="168" y="-26"/>
      <point x="161" y="-26" type="curve"/>
      <point x="115" y="-128"/>
      <point x="51" y="-197"/>
    </contour>
    <contour>
      <point x="355" y="634" type="curve"/>
      <point x="368" y="687" type="line" smooth="yes"/>
      <point x="374" y="711"/>
      <point x="358" y="724"/>
      <point x="325" y="724" type="curve" smooth="yes"/>
      <point x="312" y="724"/>
      <point x="301" y="723"/>
      <point x="291" y="721" type="curve"/>
      <point x="278" y="667" type="line" smooth="yes"/>
      <point x="272" y="643"/>
      <point x="289" y="630"/>
      <point x="321" y="630" type="curve" smooth="yes"/>
      <point x="334" y="630"/>
      <point x="345" y="631"/>
    </contour>
  </outline>
</glyph>
<glyph name="k" format="1">
  <advance width="600"/>
  <unicode hex="006B"/>
  <outline>
    <contour>
      <point x="84" y="-6" type="curve"/>
      <point x="260" y="684" type="line" smooth="yes"/>
      <point x="266" y="713"/>
      <point x="270" y="734"/>
      <point x="260" y="747" type="curve" smooth="yes"/>
      <point x="253" y="757"/>
      <point x="240" y="760"/>
      <point x="229" y="760" type="curve" smooth="yes"/>
      <point x="223" y="760"/>
      <point x="217" y="759"/>
      <point x="210" y="757" type="curve"/>
      <point x="212" y="729"/>
      <point x="211" y="715"/>
      <point x="199" y="669" type="curve" smooth="yes"/>
      <point x="34" y="19" type="line" smooth="yes"/>
      <point x="29" y="-1"/>
      <point x="47" y="-6"/>
      <point x="71" y="-6" type="curve" smooth="yes"/>
      <point x="75" y="-6"/>
      <point x="80" y="-6"/>
    </contour>
    <contour>
      <point x="509" y="534" type="line"/>
      <point x="377" y="351"/>
      <point x="251" y="259"/>
      <point x="101" y="222" type="curve"/>
      <point x="90" y="187"/>
      <point x="106" y="173"/>
      <point x="120" y="176" type="curve" smooth="yes"/>
      <point x="275" y="211"/>
      <point x="418" y="311"/>
      <point x="551" y="487" type="curve" smooth="yes"/>
      <point x="559" y="498"/>
      <point x="564" y="506"/>
      <point x="565" y="510" type="curve" smooth="yes"/>
      <point x="568" y="520"/>
      <point x="551" y="534"/>
      <point x="520" y="534" type="curve"/>
    </contour>
    <contour>
      <point x="455" y="-10" type="curve" smooth="yes"/>
      <point x="465" y="-10"/>
      <point x="473" y="-9"/>
      <point x="479" y="-6" type="curve"/>
      <point x="410" y="78"/>
      <point x="353" y="179"/>
      <point x="313" y="285" type="curve"/>
      <point x="280" y="278"/>
      <point x="263" y="265"/>
      <point x="270" y="242" type="curve" smooth="yes"/>
      <point x="299" y="163"/>
      <point x="350" y="70"/>
      <point x="390" y="17" type="curve" smooth="yes"/>
      <point x="405" y="-4"/>
      <point x="421" y="-10"/>
    </contour>
    <contour>
      <point x="252" y="-1" type="move" name="bottom"/>
    </contour>
  </outline>
</glyph>
<glyph name="l" format="1">
  <advance width="300"/>
  <unicode hex="006C"/>
  <outline>
    <contour>
      <point x="199" y="669" type="curve"/>
      <point x="62" y="121" type="line" smooth="yes"/>
      <point x="42" y="43"/>
      <point x="83" y="14"/>
      <point x="131" y="26" type="curve"/>
      <point x="107" y="59"/>
      <point x="107" y="79"/>
      <point x="124" y="147" type="curve" smooth="yes"/>
      <point x="259" y="684" type="line" smooth="yes"/>
      <point x="266" y="713"/>
      <point x="269" y="734"/>
      <point x="259" y="747" type="curve" smooth="yes"/>
      <point x="252" y="757"/>
      <point x="240" y="760"/>
      <point x="228" y="760" type="curve" smooth="yes"/>
      <point x="222" y="760"/>
      <point x="216" y="759"/>
      <point x="209" y="757" type="curve"/>
      <point x="212" y="729"/>
      <point x="210" y="715"/>
    </contour>
    <contour>
      <point x="230" y="74" type="curve"/>
      <point x="226" y="74" type="line"/>
      <point x="207" y="60"/>
      <point x="180" y="45"/>
      <point x="152" y="45" type="curve" smooth="yes"/>
      <point x="102" y="45"/>
      <point x="89" y="79"/>
      <point x="105" y="149" type="curve"/>
      <point x="84" y="149"/>
      <point x="68" y="145"/>
      <point x="62" y="121" type="curve" smooth="yes"/>
      <point x="40" y="35"/>
      <point x="74" y="-10"/>
      <point x="145" y="-10" type="curve" smooth="yes"/>
      <point x="150" y="-10" type="line" smooth="yes"/>
      <point x="172" y="-10"/>
      <point x="188" y="-5"/>
      <point x="204" y="8" type="curve" smooth="yes"/>
      <point x="216" y="18"/>
      <point x="223" y="34"/>
      <point x="227" y="55" type="curve" smooth="yes"/>
      <point x="229" y="63"/>
      <point x="230" y="70"/>
    </contour>
    <contour>
      <point x="446" y="711" type="move" name="caronslovak"/>
    </contour>
    <contour>
      <point x="242" y="731" type="move" name="top"/>
    </contour>
    <contour>
      <point x="368" y="400" type="move" name="dot"/>
    </contour>
    <contour>
      <point x="118" y="-1" type="move" name="bottom"/>
    </contour>
  </outline>
</glyph>
<glyph name="m" format="1">
  <advance width="850"/>
  <unicode hex="006D"/>
  <outline>
    <contour>
      <point x="85" y="-6" type="curve"/>
      <point x="202" y="456" type="line" smooth="yes"/>
      <point x="209" y="485"/>
      <point x="213" y="506"/>
      <point x="203" y="519" type="curve" smooth="yes"/>
      <point x="195" y="530"/>
      <point x="183" y="532"/>
      <point x="172" y="532" type="curve" smooth="yes"/>
      <point x="166" y="532"/>
      <point x="159" y="531"/>
      <point x="153" y="529" type="curve"/>
      <point x="155" y="501"/>
      <point x="154" y="487"/>
      <point x="142" y="441" type="curve" smooth="yes"/>
      <point x="35" y="19" type="line" smooth="yes"/>
      <point x="30" y="-1"/>
      <point x="48" y="-6"/>
      <point x="72" y="-6" type="curve" smooth="yes"/>
      <point x="76" y="-6"/>
      <point x="81" y="-6"/>
    </contour>
    <contour>
      <point x="393" y="538" type="curve" smooth="yes"/>
      <point x="307" y="538"/>
      <point x="221" y="458"/>
      <point x="170" y="375" type="curve" smooth="yes"/>
      <point x="154" y="350"/>
      <point x="142" y="320"/>
      <point x="152" y="283" type="curve"/>
      <point x="222" y="397"/>
      <point x="312" y="484"/>
      <point x="381" y="484" type="curve" smooth="yes"/>
      <point x="430" y="484"/>
      <point x="452" y="450"/>
      <point x="435" y="370" type="curve"/>
      <point x="475" y="371"/>
      <point x="483" y="383"/>
      <point x="486" y="396" type="curve" smooth="yes"/>
      <point x="505" y="471"/>
      <point x="466" y="538"/>
    </contour>
    <contour>
      <point x="385" y="0" type="curve"/>
      <point x="486" y="396" type="line"/>
      <point x="494" y="427"/>
      <point x="483" y="446"/>
      <point x="454" y="446" type="curve"/>
      <point x="410" y="306"/>
      <point x="383" y="218"/>
      <point x="359" y="126" type="curve" smooth="yes"/>
      <point x="358" y="121" type="line" smooth="yes"/>
      <point x="331" y="15"/>
      <point x="345" y="-3"/>
      <point x="369" y="-3" type="curve" smooth="yes"/>
      <point x="376" y="-3"/>
      <point x="380" y="-2"/>
    </contour>
    <contour>
      <point x="692" y="538" type="curve" smooth="yes"/>
      <point x="606" y="538"/>
      <point x="520" y="458"/>
      <point x="468" y="375" type="curve" smooth="yes"/>
      <point x="453" y="350"/>
      <point x="440" y="320"/>
      <point x="451" y="283" type="curve"/>
      <point x="521" y="397"/>
      <point x="611" y="484"/>
      <point x="680" y="484" type="curve" smooth="yes"/>
      <point x="729" y="484"/>
      <point x="751" y="450"/>
      <point x="734" y="370" type="curve"/>
      <point x="774" y="371"/>
      <point x="782" y="383"/>
      <point x="785" y="396" type="curve" smooth="yes"/>
      <point x="804" y="471"/>
      <point x="765" y="538"/>
    </contour>
    <contour>
      <point x="696" y="0" type="curve"/>
      <point x="698" y="44"/>
      <point x="704" y="78"/>
      <point x="716" y="126" type="curve" smooth="yes"/>
      <point x="785" y="396" type="line"/>
      <point x="793" y="430"/>
      <point x="783" y="451"/>
      <point x="754" y="451" type="curve"/>
      <point x="704" y="294"/>
      <point x="686" y="238"/>
      <point x="660" y="135" type="curve" smooth="yes"/>
      <point x="659" y="130" type="line" smooth="yes"/>
      <point x="632" y="25"/>
      <point x="651" y="-2"/>
      <point x="681" y="-2" type="curve" smooth="yes"/>
      <point x="687" y="-2"/>
      <point x="692" y="-1"/>
    </contour>
  </outline>
</glyph>
<glyph name="n" format="1">
  <advance width="600"/>
  <unicode hex="006E"/>
  <outline>
    <contour>
      <point x="84" y="-5" type="curve"/>
      <point x="200" y="452" type="line" smooth="yes"/>
      <point x="209" y="483"/>
      <point x="212" y="507"/>
      <point x="202" y="519" type="curve" smooth="yes"/>
      <point x="195" y="530"/>
      <point x="183" y="533"/>
      <point x="172" y="533" type="curve" smooth="yes"/>
      <point x="166" y="533"/>
      <point x="159" y="532"/>
      <point x="153" y="530" type="curve"/>
      <point x="154" y="502"/>
      <point x="152" y="481"/>
      <point x="140" y="435" type="curve" smooth="yes"/>
      <point x="35" y="20" type="line" smooth="yes"/>
      <point x="29" y="0"/>
      <point x="47" y="-5"/>
      <point x="71" y="-5" type="curve" smooth="yes"/>
      <point x="75" y="-5"/>
      <point x="80" y="-5"/>
    </contour>
    <contour>
      <point x="431" y="538" type="curve" smooth="yes"/>
      <point x="348" y="538"/>
      <point x="243" y="451"/>
      <point x="161" y="334" type="curve" smooth="yes"/>
      <point x="138" y="298"/>
      <point x="126" y="262"/>
      <point x="133" y="219" type="curve"/>
      <point x="216" y="358"/>
      <point x="333" y="483"/>
      <point x="427" y="483" type="curve" smooth="yes"/>
      <point x="478" y="483"/>
      <point x="496" y="448"/>
      <point x="485" y="370" type="curve"/>
      <point x="523" y="372"/>
      <point x="529" y="381"/>
      <point x="533" y="393" type="curve" smooth="yes"/>
      <point x="551" y="462"/>
      <point x="518" y="538"/>
    </contour>
    <contour>
      <point x="445" y="0" type="curve"/>
      <point x="446" y="44"/>
      <point x="453" y="78"/>
      <point x="465" y="125" type="curve" smooth="yes"/>
      <point x="533" y="393" type="line"/>
      <point x="541" y="425"/>
      <point x="533" y="444"/>
      <point x="499" y="444" type="curve"/>
      <point x="450" y="290"/>
      <point x="432" y="241"/>
      <point x="407" y="140" type="curve" smooth="yes"/>
      <point x="405" y="132" type="line" smooth="yes"/>
      <point x="379" y="27"/>
      <point x="400" y="-2"/>
      <point x="429" y="-2" type="curve" smooth="yes"/>
      <point x="435" y="-2"/>
      <point x="441" y="-1"/>
    </contour>
    <contour>
      <point x="220" y="662" type="move" name="caronslovak"/>
    </contour>
    <contour>
      <point x="368" y="538" type="move" name="top"/>
    </contour>
    <contour>
      <point x="234" y="-1" type="move" name="bottom"/>
    </contour>
  </outline>
</glyph>
<glyph name="o" format="1">
  <advance width="600"/>
  <unicode hex="006F"/>
  <outline>
    <contour>
      <point x="362" y="537" type="curve" smooth="yes"/>
      <point x="230" y="537"/>
      <point x="117" y="435"/>
      <point x="73" y="259" type="curve" smooth="yes"/>
      <point x="69" y="243" type="line" smooth="yes"/>
      <point x="32" y="97"/>
      <point x="108" y="-10"/>
      <point x="259" y="-10" type="curve" smooth="yes"/>
      <point x="280" y="-10"/>
      <point x="300" y="13"/>
      <point x="303" y="26" type="curve"/>
      <point x="135" y="26"/>
      <point x="94" y="126"/>
      <point x="124" y="238" type="curve" smooth="yes"/>
      <point x="128" y="256" type="line" smooth="yes"/>
      <point x="165" y="395"/>
      <point x="261" y="484"/>
      <point x="355" y="484" type="curve" smooth="yes"/>
      <point x="403" y="484"/>
      <point x="446" y="462"/>
      <point x="473" y="432" type="curve"/>
      <point x="489" y="473"/>
      <point x="427" y="537"/>
    </contour>
    <contour>
      <point x="259" y="-10" type="curve" smooth="yes"/>
      <point x="394" y="-10"/>
      <point x="477" y="60"/>
      <point x="515" y="199" type="curve" smooth="yes"/>
      <point x="520" y="217" type="line" smooth="yes"/>
      <point x="564" y="379"/>
      <point x="489" y="537"/>
      <point x="362" y="537" type="curve" smooth="yes"/>
      <point x="341" y="537"/>
      <point x="322" y="522"/>
      <point x="320" y="502" type="curve"/>
      <point x="451" y="497"/>
      <point x="504" y="379"/>
      <point x="465" y="225" type="curve" smooth="yes"/>
      <point x="461" y="210" type="line" smooth="yes"/>
      <point x="436" y="106"/>
      <point x="372" y="43"/>
      <point x="260" y="43" type="curve" smooth="yes"/>
      <point x="209" y="43"/>
      <point x="160" y="62"/>
      <point x="127" y="89" type="curve"/>
      <point x="108" y="52"/>
      <point x="155" y="-10"/>
    </contour>
    <contour>
      <point x="368" y="538" type="move" name="top"/>
    </contour>
    <contour>
      <point x="307" y="-1" type="move" name="ogonek"/>
    </contour>
    <contour>
      <point x="234" y="-1" type="move" name="bottom"/>
    </contour>
  </outline>
</glyph>
<glyph name="p" format="1">
  <advance width="600"/>
  <unicode hex="0070"/>
  <outline>
    <contour>
      <point x="39" y="-219" type="curve"/>
      <point x="209" y="451" type="line" smooth="yes"/>
      <point x="217" y="483"/>
      <point x="222" y="506"/>
      <point x="212" y="519" type="curve" smooth="yes"/>
      <point x="203" y="529"/>
      <point x="192" y="532"/>
      <point x="181" y="532" type="curve"/>
      <point x="175" y="532"/>
      <point x="169" y="531"/>
      <point x="163" y="529" type="curve"/>
      <point x="164" y="501"/>
      <point x="163" y="487"/>
      <point x="151" y="441" type="curve" smooth="yes"/>
      <point x="-11" y="-196" type="line" smooth="yes"/>
      <point x="-16" y="-216"/>
      <point x="1" y="-221"/>
      <point x="22" y="-221" type="curve"/>
      <point x="28" y="-221"/>
      <point x="34" y="-220"/>
    </contour>
    <contour>
      <point x="427" y="537" type="curve" smooth="yes"/>
      <point x="335" y="537"/>
      <point x="238" y="461"/>
      <point x="174" y="350" type="curve" smooth="yes"/>
      <point x="153" y="314"/>
      <point x="147" y="275"/>
      <point x="151" y="250" type="curve"/>
      <point x="266" y="431"/>
      <point x="355" y="483"/>
      <point x="424" y="483" type="curve" smooth="yes"/>
      <point x="491" y="483"/>
      <point x="515" y="425"/>
      <point x="499" y="320" type="curve"/>
      <point x="531" y="314"/>
      <point x="541" y="324"/>
      <point x="543" y="332" type="curve" smooth="yes"/>
      <point x="577" y="462"/>
      <point x="534" y="537"/>
    </contour>
    <contour>
      <point x="246" y="-10" type="curve" smooth="yes"/>
      <point x="379" y="-10"/>
      <point x="478" y="71"/>
      <point x="538" y="311" type="curve" smooth="yes"/>
      <point x="543" y="332" type="line" smooth="yes"/>
      <point x="557" y="386"/>
      <point x="544" y="470"/>
      <point x="512" y="470" type="curve" smooth="yes"/>
      <point x="504" y="470"/>
      <point x="498" y="468"/>
      <point x="494" y="461" type="curve"/>
      <point x="501" y="410"/>
      <point x="497" y="369"/>
      <point x="485" y="323" type="curve" smooth="yes"/>
      <point x="481" y="305" type="line" smooth="yes"/>
      <point x="437" y="128"/>
      <point x="362" y="43"/>
      <point x="254" y="43" type="curve" smooth="yes"/>
      <point x="185" y="43"/>
      <point x="150" y="69"/>
      <point x="119" y="136" type="curve"/>
      <point x="112" y="134"/>
      <point x="104" y="120"/>
      <point x="104" y="112" type="curve" smooth="yes"/>
      <point x="92" y="63"/>
      <point x="157" y="-10"/>
    </contour>
  </outline>
</glyph>
<glyph name="r" format="1">
  <advance width="450"/>
  <unicode hex="0072"/>
  <outline>
    <contour>
      <point x="86" y="-2" type="curve"/>
      <point x="204" y="458" type="line" smooth="yes"/>
      <point x="210" y="486"/>
      <point x="214" y="507"/>
      <point x="205" y="520" type="curve" smooth="yes"/>
      <point x="197" y="530"/>
      <point x="185" y="533"/>
      <point x="173" y="533" type="curve" smooth="yes"/>
      <point x="167" y="533"/>
      <point x="161" y="532"/>
      <point x="154" y="530" type="curve"/>
      <point x="156" y="502"/>
      <point x="155" y="488"/>
      <point x="143" y="442" type="curve" smooth="yes"/>
      <point x="37" y="23" type="line" smooth="yes"/>
      <point x="32" y="3"/>
      <point x="50" y="-2"/>
      <point x="73" y="-2" type="curve" smooth="yes"/>
      <point x="78" y="-2"/>
      <point x="82" y="-2"/>
    </contour>
    <contour>
      <point x="133" y="197" type="curve"/>
      <point x="236" y="393"/>
      <point x="327" y="484"/>
      <point x="411" y="484" type="curve" smooth="yes"/>
      <point x="437" y="484"/>
      <point x="452" y="480"/>
      <point x="465" y="472" type="curve"/>
      <point x="469" y="472" type="line"/>
      <point x="476" y="482"/>
      <point x="480" y="493"/>
      <point x="484" y="507" type="curve"/>
      <point x="490" y="529"/>
      <point x="474" y="541"/>
      <point x="428" y="541" type="curve" smooth="yes"/>
      <point x="425" y="541" type="line" smooth="yes"/>
      <point x="326" y="541"/>
      <point x="240" y="467"/>
      <point x="164" y="329" type="curve" smooth="yes"/>
      <point x="140" y="287"/>
      <point x="129" y="241"/>
    </contour>
    <contour>
      <point x="260" y="538" type="move" name="top"/>
    </contour>
    <contour>
      <point x="260" y="-1" type="move" name="bottom"/>
    </contour>
  </outline>
</glyph>
<glyph name="s" format="1">
  <advance width="550"/>
  <unicode hex="0073"/>
  <outline>
    <contour>
      <point x="371" y="539" type="curve" smooth="yes"/>
      <point x="367" y="539" type="line" smooth="yes"/>
      <point x="248" y="539"/>
      <point x="151" y="490"/>
      <point x="125" y="393" type="curve" smooth="yes"/>
      <point x="119" y="370"/>
      <point x="140" y="343"/>
      <point x="174" y="343" type="curve"/>
      <point x="173" y="360"/>
      <point x="174" y="373"/>
      <point x="178" y="387" type="curve" smooth="yes"/>
      <point x="193" y="447"/>
      <point x="267" y="486"/>
      <point x="361" y="486" type="curve" smooth="yes"/>
      <point x="421" y="486"/>
      <point x="456" y="475"/>
      <point x="489" y="452" type="curve"/>
      <point x="493" y="452" type="line"/>
      <point x="498" y="458"/>
      <point x="502" y="464"/>
      <point x="503" y="471" type="curve"/>
      <point x="507" y="488"/>
      <point x="506" y="498"/>
      <point x="499" y="508" type="curve" smooth="yes"/>
      <point x="486" y="525"/>
      <point x="441" y="539"/>
    </contour>
    <contour>
      <point x="339" y="273" type="curve" smooth="yes"/>
      <point x="255" y="289" type="line" smooth="yes"/>
      <point x="181" y="304"/>
      <point x="166" y="341"/>
      <point x="178" y="387" type="curve" smooth="yes"/>
      <point x="183" y="407"/>
      <point x="187" y="422"/>
      <point x="195" y="437" type="curve"/>
      <point x="149" y="422"/>
      <point x="131" y="415"/>
      <point x="125" y="393" type="curve"/>
      <point x="108" y="323"/>
      <point x="139" y="261"/>
      <point x="226" y="244" type="curve" smooth="yes"/>
      <point x="313" y="226" type="line" smooth="yes"/>
      <point x="387" y="210"/>
      <point x="400" y="169"/>
      <point x="381" y="98" type="curve" smooth="yes"/>
      <point x="380" y="91"/>
      <point x="377" y="83"/>
      <point x="376" y="78" type="curve"/>
      <point x="400" y="82"/>
      <point x="436" y="106"/>
      <point x="440" y="123" type="curve" smooth="yes"/>
      <point x="458" y="195"/>
      <point x="419" y="257"/>
    </contour>
    <contour>
      <point x="222" y="43" type="curve" smooth="yes"/>
      <point x="123" y="43"/>
      <point x="86" y="62"/>
      <point x="44" y="105" type="curve"/>
      <point x="40" y="105" type="line"/>
      <point x="35" y="99"/>
      <point x="34" y="94"/>
      <point x="32" y="88" type="curve" smooth="yes"/>
      <point x="27" y="66"/>
      <point x="30" y="53"/>
      <point x="37" y="44" type="curve" smooth="yes"/>
      <point x="57" y="16"/>
      <point x="116" y="-10"/>
      <point x="212" y="-10" type="curve" smooth="yes"/>
      <point x="217" y="-10" type="line" smooth="yes"/>
      <point x="340" y="-10"/>
      <point x="416" y="32"/>
      <point x="440" y="123" type="curve" smooth="yes"/>
      <point x="444" y="139"/>
      <point x="423" y="156"/>
      <point x="399" y="156" type="curve"/>
      <point x="398" y="150"/>
      <point x="397" y="145"/>
      <point x="396" y="142" type="curve" smooth="yes"/>
      <point x="378" y="70"/>
      <point x="320" y="43"/>
    </contour>
    <contour>
      <point x="267" y="538" type="move" name="top"/>
    </contour>
    <contour>
      <point x="267" y="-1" type="move" name="bottom"/>
    </contour>
  </outline>
</glyph>
<glyph name="t" format="1">
  <advance width="500"/>
  <unicode hex="0074"/>
  <outline>
    <contour>
      <point x="258" y="700" type="curve"/>
      <point x="118" y="140" type="line" smooth="yes"/>
      <point x="91" y="30"/>
      <point x="162" y="-5"/>
      <point x="193" y="20" type="curve"/>
      <point x="166" y="50"/>
      <point x="161" y="91"/>
      <point x="179" y="163" type="curve" smooth="yes"/>
      <point x="308" y="678" type="line" smooth="yes"/>
      <point x="312" y="696"/>
      <point x="295" y="703"/>
      <point x="276" y="703" type="curve" smooth="yes"/>
      <point x="270" y="703"/>
      <point x="264" y="702"/>
    </contour>
    <contour>
      <point x="381" y="91" type="curve"/>
      <point x="377" y="91" type="line"/>
      <point x="339" y="59"/>
      <point x="300" y="36"/>
      <point x="244" y="36" type="curve" smooth="yes"/>
      <point x="173" y="36"/>
      <point x="146" y="65"/>
      <point x="148" y="164" type="curve"/>
      <point x="129" y="164"/>
      <point x="122" y="154"/>
      <point x="118" y="140" type="curve" smooth="yes"/>
      <point x="91" y="32"/>
      <point x="140" y="-20"/>
      <point x="233" y="-20" type="curve" smooth="yes"/>
      <point x="243" y="-20" type="line" smooth="yes"/>
      <point x="286" y="-20"/>
      <point x="323" y="-9"/>
      <point x="350" y="14" type="curve" smooth="yes"/>
      <point x="366" y="27"/>
      <point x="374" y="45"/>
      <point x="379" y="68" type="curve" smooth="yes"/>
      <point x="381" y="78"/>
      <point x="381" y="84"/>
    </contour>
    <contour>
      <point x="110" y="527" type="line"/>
      <point x="109" y="524"/>
      <point x="108" y="519"/>
      <point x="108" y="516" type="curve" smooth="yes"/>
      <point x="103" y="498"/>
      <point x="103" y="486"/>
      <point x="110" y="478" type="curve" smooth="yes"/>
      <point x="113" y="474"/>
      <point x="118" y="471"/>
      <point x="128" y="471" type="curve"/>
      <point x="478" y="471" type="line"/>
      <point x="479" y="475"/>
      <point x="480" y="480"/>
      <point x="481" y="484" type="curve" smooth="yes"/>
      <point x="488" y="509"/>
      <point x="486" y="527"/>
      <point x="466" y="527" type="curve"/>
    </contour>
    <contour>
      <point x="498" y="711" type="move" name="caronslovak"/>
    </contour>
    <contour>
      <point x="205" y="-1" type="move" name="bottom"/>
    </contour>
  </outline>
</glyph>
<glyph name="v" format="1">
  <advance width="600"/>
  <unicode hex="0076"/>
  <outline>
    <contour>
      <point x="544" y="531" type="curve" smooth="yes"/>
      <point x="533" y="531" type="line"/>
      <point x="439" y="229"/>
      <point x="368" y="127"/>
      <point x="218" y="29" type="curve"/>
      <point x="199" y="16"/>
      <point x="213" y="-10"/>
      <point x="230" y="-10" type="curve"/>
      <point x="258" y="-10" type="line"/>
      <point x="406" y="86"/>
      <point x="486" y="203"/>
      <point x="582" y="500" type="curve"/>
      <point x="587" y="516"/>
      <point x="572" y="531"/>
    </contour>
    <contour>
      <point x="153" y="531" type="curve" smooth="yes"/>
      <point x="142" y="531" type="line"/>
      <point x="94" y="257"/>
      <point x="106" y="117"/>
      <point x="181" y="15" type="curve"/>
      <point x="194" y="-2"/>
      <point x="208" y="-10"/>
      <point x="227" y="-10" type="curve" smooth="yes"/>
      <point x="233" y="-10" type="line" smooth="yes"/>
      <point x="253" y="-10"/>
      <point x="261" y="-1"/>
      <point x="277" y="20" type="curve"/>
      <point x="268" y="20"/>
      <point x="261" y="20"/>
      <point x="258" y="20" type="curve" smooth="yes"/>
      <point x="252" y="20"/>
      <point x="247" y="22"/>
      <point x="244" y="26" type="curve"/>
      <point x="156" y="131"/>
      <point x="151" y="260"/>
      <point x="193" y="505" type="curve"/>
      <point x="198" y="524"/>
      <point x="181" y="531"/>
    </contour>
  </outline>
</glyph>
<glyph name="w" format="1">
  <advance width="800"/>
  <unicode hex="0077"/>
  <outline>
    <contour>
      <point x="134" y="536" type="curve"/>
      <point x="79" y="256"/>
      <point x="81" y="126"/>
      <point x="117" y="36" type="curve"/>
      <point x="130" y="6"/>
      <point x="143" y="-10"/>
      <point x="161" y="-10" type="curve"/>
      <point x="175" y="-10" type="line" smooth="yes"/>
      <point x="180" y="-10"/>
      <point x="184" y="13"/>
      <point x="184" y="21" type="curve"/>
      <point x="138" y="118"/>
      <point x="125" y="182"/>
      <point x="181" y="504" type="curve"/>
      <point x="184" y="519"/>
      <point x="184" y="523"/>
      <point x="181" y="527" type="curve" smooth="yes"/>
      <point x="176" y="533"/>
      <point x="164" y="537"/>
      <point x="146" y="537" type="curve"/>
      <point x="142" y="537"/>
      <point x="138" y="537"/>
    </contour>
    <contour>
      <point x="424" y="493" type="curve"/>
      <point x="328" y="260"/>
      <point x="263" y="136"/>
      <point x="157" y="21" type="curve"/>
      <point x="144" y="5"/>
      <point x="154" y="-10"/>
      <point x="170" y="-10" type="curve"/>
      <point x="192" y="-10" type="line"/>
      <point x="303" y="107"/>
      <point x="379" y="253"/>
      <point x="461" y="458" type="curve"/>
      <point x="467" y="473"/>
      <point x="475" y="493"/>
      <point x="444" y="493" type="curve" smooth="yes"/>
      <point x="438" y="493"/>
      <point x="430" y="493"/>
    </contour>
    <contour>
      <point x="437" y="490" type="curve"/>
      <point x="412" y="266"/>
      <point x="419" y="105"/>
      <point x="456" y="9" type="curve"/>
      <point x="463" y="-8"/>
      <point x="476" y="-10"/>
      <point x="492" y="-10" type="curve"/>
      <point x="506" y="-10" type="line" smooth="yes"/>
      <point x="506" y="-10"/>
      <point x="509" y="13"/>
      <point x="508" y="19" type="curve"/>
      <point x="462" y="126"/>
      <point x="469" y="256"/>
      <point x="481" y="461" type="curve"/>
      <point x="482" y="486"/>
      <point x="477" y="493"/>
      <point x="444" y="493" type="curve" smooth="yes"/>
      <point x="441" y="493"/>
      <point x="439" y="492"/>
    </contour>
    <contour>
      <point x="748" y="536" type="curve"/>
      <point x="638" y="216"/>
      <point x="602" y="154"/>
      <point x="486" y="23" type="curve"/>
      <point x="476" y="10"/>
      <point x="478" y="-10"/>
      <point x="500" y="-10" type="curve"/>
      <point x="521" y="-10" type="line"/>
      <point x="650" y="122"/>
      <point x="712" y="259"/>
      <point x="797" y="504" type="curve"/>
      <point x="800" y="514"/>
      <point x="800" y="519"/>
      <point x="796" y="523" type="curve" smooth="yes"/>
      <point x="792" y="529"/>
      <point x="781" y="537"/>
      <point x="763" y="537" type="curve"/>
      <point x="759" y="537"/>
      <point x="751" y="537"/>
    </contour>
    <contour>
      <point x="445" y="538" type="move" name="top"/>
    </contour>
  </outline>
</glyph>
<glyph name="x" format="1">
  <advance width="600"/>
  <unicode hex="0078"/>
  <outline>
    <contour>
      <point x="422" y="-11" type="curve" smooth="yes"/>
      <point x="442" y="-11"/>
      <point x="450" y="-8"/>
      <point x="464" y="1" type="curve"/>
      <point x="402" y="68"/>
      <point x="349" y="140"/>
      <point x="306" y="214" type="curve" smooth="yes"/>
      <point x="302" y="220"/>
      <point x="299" y="227"/>
      <point x="295" y="234" type="curve" smooth="yes"/>
      <point x="249" y="319"/>
      <point x="214" y="411"/>
      <point x="194" y="514" type="curve" smooth="yes"/>
      <point x="192" y="525"/>
      <point x="183" y="530"/>
      <point x="165" y="530" type="curve" smooth="yes"/>
      <point x="149" y="530"/>
      <point x="143" y="529"/>
      <point x="131" y="527" type="curve"/>
      <point x="154" y="403"/>
      <point x="198" y="290"/>
      <point x="252" y="192" type="curve" smooth="yes"/>
      <point x="257" y="184"/>
      <point x="261" y="176"/>
      <point x="265" y="169" type="curve" smooth="yes"/>
      <point x="300" y="110"/>
      <point x="340" y="53"/>
      <point x="384" y="4" type="curve" smooth="yes"/>
      <point x="392" y="-5"/>
      <point x="403" y="-11"/>
    </contour>
    <contour>
      <point x="543" y="531" type="curve" smooth="yes"/>
      <point x="534" y="531" type="line"/>
      <point x="451" y="411"/>
      <point x="369" y="319"/>
      <point x="281" y="237" type="curve" smooth="yes"/>
      <point x="271" y="229"/>
      <point x="262" y="224"/>
      <point x="252" y="215" type="curve" smooth="yes"/>
      <point x="181" y="152"/>
      <point x="106" y="91"/>
      <point x="23" y="33" type="curve" smooth="yes"/>
      <point x="10" y="24"/>
      <point x="8" y="20"/>
      <point x="7" y="15" type="curve" smooth="yes"/>
      <point x="4" y="3"/>
      <point x="31" y="-10"/>
      <point x="55" y="-10" type="curve" smooth="yes"/>
      <point x="58" y="-10" type="line"/>
      <point x="132" y="44"/>
      <point x="208" y="104"/>
      <point x="283" y="170" type="curve" smooth="yes"/>
      <point x="292" y="177"/>
      <point x="297" y="182"/>
      <point x="306" y="189" type="curve" smooth="yes"/>
      <point x="404" y="278"/>
      <point x="496" y="374"/>
      <point x="580" y="494" type="curve" smooth="yes"/>
      <point x="584" y="501"/>
      <point x="586" y="505"/>
      <point x="588" y="511" type="curve" smooth="yes"/>
      <point x="590" y="521"/>
      <point x="580" y="531"/>
    </contour>
  </outline>
</glyph>
<glyph name="y" format="1">
  <advance width="600"/>
  <unicode hex="0079"/>
  <outline>
    <contour>
      <point x="563" y="530" type="curve" smooth="yes"/>
      <point x="557" y="530"/>
      <point x="550" y="529"/>
      <point x="545" y="527" type="curve"/>
      <point x="411" y="146"/>
      <point x="294" y="-24"/>
      <point x="167" y="-125" type="curve" smooth="yes"/>
      <point x="104" y="-176"/>
      <point x="28" y="-197"/>
      <point x="-31" y="-197" type="curve" smooth="yes"/>
      <point x="-46" y="-197" type="line"/>
      <point x="-47" y="-200" type="line" smooth="yes"/>
      <point x="-57" y="-230"/>
      <point x="-41" y="-250"/>
      <point x="-21" y="-250" type="curve" smooth="yes"/>
      <point x="-17" y="-250" type="line" smooth="yes"/>
      <point x="48" y="-250"/>
      <point x="137" y="-219"/>
      <point x="205" y="-164" type="curve" smooth="yes"/>
      <point x="338" y="-58"/>
      <point x="468" y="137"/>
      <point x="596" y="496" type="curve" smooth="yes"/>
      <point x="604" y="520"/>
      <point x="591" y="530"/>
    </contour>
    <contour>
      <point x="160" y="530" type="curve" smooth="yes"/>
      <point x="153" y="530"/>
      <point x="148" y="529"/>
      <point x="142" y="528" type="curve"/>
      <point x="106" y="238"/>
      <point x="129" y="143"/>
      <point x="171" y="77" type="curve" smooth="yes"/>
      <point x="197" y="36"/>
      <point x="253" y="1"/>
      <point x="312" y="1" type="curve" smooth="yes"/>
      <point x="319" y="1" type="line" smooth="yes"/>
      <point x="332" y="1"/>
      <point x="354" y="15"/>
      <point x="361" y="45" type="curve"/>
      <point x="345" y="46" type="line"/>
      <point x="278" y="47"/>
      <point x="234" y="78"/>
      <point x="218" y="106" type="curve" smooth="yes"/>
      <point x="173" y="178"/>
      <point x="169" y="307"/>
      <point x="195" y="482" type="curve" smooth="yes"/>
      <point x="201" y="525"/>
      <point x="187" y="530"/>
    </contour>
    <contour>
      <point x="368" y="538" type="move" name="top"/>
    </contour>
  </outline>
</glyph>
<glyph name="z" format="1">
  <advance width="550"/>
  <unicode hex="007A"/>
  <outline>
    <contour>
      <point x="137" y="527" type="line"/>
      <point x="136" y="523"/>
      <point x="135" y="519"/>
      <point x="134" y="515" type="curve" smooth="yes"/>
      <point x="130" y="497"/>
      <point x="131" y="488"/>
      <point x="137" y="479" type="curve" smooth="yes"/>
      <point x="140" y="476"/>
      <point x="144" y="474"/>
      <point x="150" y="474" type="curve" smooth="yes"/>
      <point x="470" y="474" type="line" smooth="yes"/>
      <point x="489" y="474"/>
      <point x="510" y="476"/>
      <point x="530" y="483" type="curve"/>
      <point x="531" y="486" type="line" smooth="yes"/>
      <point x="535" y="504"/>
      <point x="533" y="513"/>
      <point x="527" y="521" type="curve" smooth="yes"/>
      <point x="524" y="525"/>
      <point x="520" y="527"/>
      <point x="514" y="527" type="curve" smooth="yes"/>
    </contour>
    <contour>
      <point x="477" y="501" type="curve"/>
      <point x="384" y="354"/>
      <point x="211" y="178"/>
      <point x="15" y="46" type="curve"/>
      <point x="9" y="21"/>
      <point x="62" y="21"/>
      <point x="90" y="39" type="curve" smooth="yes"/>
      <point x="331" y="193"/>
      <point x="522" y="450"/>
      <point x="530" y="483" type="curve"/>
      <point x="534" y="498"/>
      <point x="518" y="501"/>
    </contour>
    <contour>
      <point x="407" y="0" type="line"/>
      <point x="408" y="4"/>
      <point x="410" y="9"/>
      <point x="411" y="13" type="curve"/>
      <point x="417" y="38"/>
      <point x="415" y="53"/>
      <point x="395" y="53" type="curve" smooth="yes"/>
      <point x="97" y="53" type="line" smooth="yes"/>
      <point x="71" y="53"/>
      <point x="44" y="52"/>
      <point x="15" y="46" type="curve"/>
      <point x="14" y="42" type="line" smooth="yes"/>
      <point x="9" y="24"/>
      <point x="11" y="14"/>
      <point x="17" y="5" type="curve" smooth="yes"/>
      <point x="20" y="2"/>
      <point x="23" y="0"/>
      <point x="29" y="0" type="curve" smooth="yes"/>
    </contour>
    <contour>
      <point x="272" y="538" type="move" name="top"/>
    </contour>
  </outline>
</glyph>
<glyph name="braceleft" format="1">
  <advance width="500"/>
  <unicode hex="007B"/>
  <outline>
    <contour>
      <point x="497" y="715" type="curve" smooth="yes"/>
      <point x="521" y="715"/>
      <point x="535" y="713"/>
      <point x="553" y="707" type="curve"/>
      <point x="557" y="707" type="line"/>
      <point x="560" y="713"/>
      <point x="562" y="718"/>
      <point x="564" y="726" type="curve"/>
      <point x="570" y="750"/>
      <point x="561" y="770"/>
      <point x="524" y="770" type="curve" smooth="yes"/>
      <point x="519" y="770" type="line" smooth="yes"/>
      <point x="395" y="770"/>
      <point x="296" y="733"/>
      <point x="277" y="657" type="curve" smooth="yes"/>
      <point x="276" y="654" type="line" smooth="yes"/>
      <point x="273" y="642"/>
      <point x="286" y="628"/>
      <point x="305" y="628" type="curve"/>
      <point x="335" y="694"/>
      <point x="406" y="715"/>
    </contour>
    <contour>
      <point x="342" y="471" type="curve" smooth="yes"/>
      <point x="364" y="556"/>
      <point x="320" y="619"/>
      <point x="329" y="656" type="curve" smooth="yes"/>
      <point x="334" y="674"/>
      <point x="342" y="686"/>
      <point x="356" y="703" type="curve"/>
      <point x="325" y="704"/>
      <point x="287" y="698"/>
      <point x="277" y="657" type="curve" smooth="yes"/>
      <point x="276" y="653" type="line" smooth="yes"/>
      <point x="260" y="592"/>
      <point x="307" y="548"/>
      <point x="286" y="467" type="curve" smooth="yes"/>
      <point x="267" y="389"/>
      <point x="198" y="326"/>
      <point x="75" y="326" type="curve" smooth="yes"/>
      <point x="70" y="326" type="line"/>
      <point x="67" y="316" type="line" smooth="yes"/>
      <point x="62" y="296"/>
      <point x="66" y="285"/>
      <point x="74" y="285" type="curve" smooth="yes"/>
      <point x="81" y="285" type="line" smooth="yes"/>
      <point x="203" y="285"/>
      <point x="311" y="347"/>
    </contour>
    <contour>
      <point x="256" y="127" type="curve" smooth="yes"/>
      <point x="287" y="251"/>
      <point x="212" y="316"/>
      <point x="89" y="316" type="curve" smooth="yes"/>
      <point x="80" y="316"/>
      <point x="74" y="317"/>
      <point x="68" y="319" type="curve"/>
      <point x="66" y="311" type="line" smooth="yes"/>
      <point x="61" y="290"/>
      <point x="62" y="272"/>
      <point x="79" y="272" type="curve" smooth="yes"/>
      <point x="81" y="272" type="line" smooth="yes"/>
      <point x="183" y="272"/>
      <point x="221" y="207"/>
      <point x="203" y="132" type="curve" smooth="yes"/>
      <point x="182" y="50"/>
      <point x="112" y="1"/>
      <point x="97" y="-60" type="curve" smooth="yes"/>
      <point x="97" y="-62" type="line" smooth="yes"/>
      <point x="84" y="-111"/>
      <point x="127" y="-114"/>
      <point x="157" y="-114" type="curve"/>
      <point x="145" y="-95"/>
      <point x="145" y="-80"/>
      <point x="150" y="-59" type="curve" smooth="yes"/>
      <point x="160" y="-22"/>
      <point x="235" y="43"/>
    </contour>
    <contour>
      <point x="294" y="-116" type="curve" smooth="yes"/>
      <point x="175" y="-116"/>
      <point x="133" y="-98"/>
      <point x="136" y="-22" type="curve"/>
      <point x="117" y="-25"/>
      <point x="101" y="-43"/>
      <point x="97" y="-60" type="curve" smooth="yes"/>
      <point x="97" y="-62" type="line" smooth="yes"/>
      <point x="75" y="-148"/>
      <point x="162" y="-172"/>
      <point x="292" y="-172" type="curve" smooth="yes"/>
      <point x="298" y="-172" type="line" smooth="yes"/>
      <point x="327" y="-172"/>
      <point x="345" y="-150"/>
      <point x="353" y="-116" type="curve"/>
      <point x="355" y="-108" type="line"/>
      <point x="351" y="-108" type="line"/>
      <point x="333" y="-113"/>
      <point x="317" y="-116"/>
    </contour>
  </outline>
</glyph>
<glyph name="bar" format="1">
  <advance width="300"/>
  <unicode hex="007C"/>
  <outline>
    <contour>
      <point x="242" y="760" type="curve"/>
      <point x="240" y="725"/>
      <point x="232" y="690"/>
      <point x="223" y="653" type="curve" smooth="yes"/>
      <point x="26" y="-135" type="line" smooth="yes"/>
      <point x="21" y="-154"/>
      <point x="39" y="-160"/>
      <point x="64" y="-160" type="curve" smooth="yes"/>
      <point x="68" y="-160"/>
      <point x="72" y="-160"/>
      <point x="76" y="-160" type="curve"/>
      <point x="292" y="703" type="line" smooth="yes"/>
      <point x="297" y="725"/>
      <point x="299" y="742"/>
      <point x="290" y="754" type="curve" smooth="yes"/>
      <point x="286" y="760"/>
      <point x="279" y="763"/>
      <point x="263" y="763" type="curve" smooth="yes"/>
      <point x="256" y="763"/>
      <point x="250" y="762"/>
    </contour>
  </outline>
</glyph>
<glyph name="braceright" format="1">
  <advance width="500"/>
  <unicode hex="007D"/>
  <outline>
    <contour>
      <point x="21" y="-117" type="curve" smooth="yes"/>
      <point x="-3" y="-117"/>
      <point x="-17" y="-115"/>
      <point x="-35" y="-109" type="curve"/>
      <point x="-39" y="-109" type="line"/>
      <point x="-42" y="-115"/>
      <point x="-44" y="-120"/>
      <point x="-46" y="-128" type="curve"/>
      <point x="-52" y="-152"/>
      <point x="-43" y="-172"/>
      <point x="-6" y="-172" type="curve" smooth="yes"/>
      <point x="-1" y="-172" type="line" smooth="yes"/>
      <point x="123" y="-172"/>
      <point x="222" y="-135"/>
      <point x="241" y="-59" type="curve" smooth="yes"/>
      <point x="242" y="-56" type="line" smooth="yes"/>
      <point x="245" y="-44"/>
      <point x="231" y="-30"/>
      <point x="213" y="-30" type="curve"/>
      <point x="182" y="-96"/>
      <point x="112" y="-117"/>
    </contour>
    <contour>
      <point x="175" y="127" type="curve" smooth="yes"/>
      <point x="154" y="42"/>
      <point x="198" y="-21"/>
      <point x="188" y="-58" type="curve" smooth="yes"/>
      <point x="184" y="-76"/>
      <point x="176" y="-88"/>
      <point x="162" y="-105" type="curve"/>
      <point x="193" y="-106"/>
      <point x="231" y="-100"/>
      <point x="241" y="-59" type="curve" smooth="yes"/>
      <point x="242" y="-55" type="line" smooth="yes"/>
      <point x="258" y="6"/>
      <point x="211" y="50"/>
      <point x="232" y="131" type="curve" smooth="yes"/>
      <point x="251" y="209"/>
      <point x="320" y="272"/>
      <point x="443" y="272" type="curve" smooth="yes"/>
      <point x="448" y="272" type="line"/>
      <point x="450" y="282" type="line" smooth="yes"/>
      <point x="456" y="302"/>
      <point x="452" y="313"/>
      <point x="444" y="313" type="curve" smooth="yes"/>
      <point x="437" y="313" type="line" smooth="yes"/>
      <point x="314" y="313"/>
      <point x="206" y="251"/>
    </contour>
    <contour>
      <point x="261" y="471" type="curve" smooth="yes"/>
      <point x="230" y="347"/>
      <point x="306" y="282"/>
      <point x="429" y="282" type="curve" smooth="yes"/>
      <point x="438" y="282"/>
      <point x="444" y="281"/>
      <point x="450" y="279" type="curve"/>
      <point x="452" y="287" type="line" smooth="yes"/>
      <point x="457" y="308"/>
      <point x="456" y="326"/>
      <point x="438" y="326" type="curve" smooth="yes"/>
      <point x="436" y="326" type="line" smooth="yes"/>
      <point x="334" y="326"/>
      <point x="296" y="391"/>
      <point x="315" y="466" type="curve" smooth="yes"/>
      <point x="336" y="548"/>
      <point x="405" y="597"/>
      <point x="421" y="658" type="curve" smooth="yes"/>
      <point x="421" y="660" type="line" smooth="yes"/>
      <point x="433" y="709"/>
      <point x="391" y="712"/>
      <point x="361" y="712" type="curve"/>
      <point x="373" y="693"/>
      <point x="373" y="678"/>
      <point x="367" y="657" type="curve" smooth="yes"/>
      <point x="358" y="620"/>
      <point x="282" y="555"/>
    </contour>
    <contour>
      <point x="224" y="714" type="curve" smooth="yes"/>
      <point x="342" y="714"/>
      <point x="385" y="696"/>
      <point x="382" y="620" type="curve"/>
      <point x="401" y="623"/>
      <point x="416" y="641"/>
      <point x="421" y="658" type="curve" smooth="yes"/>
      <point x="421" y="660" type="line" smooth="yes"/>
      <point x="443" y="746"/>
      <point x="356" y="770"/>
      <point x="226" y="770" type="curve" smooth="yes"/>
      <point x="220" y="770" type="line" smooth="yes"/>
      <point x="191" y="770"/>
      <point x="173" y="748"/>
      <point x="165" y="714" type="curve"/>
      <point x="163" y="706" type="line"/>
      <point x="167" y="706" type="line"/>
      <point x="185" y="711"/>
      <point x="201" y="714"/>
    </contour>
  </outline>
</glyph>
<glyph name="exclamdown" format="1">
  <advance width="397"/>
  <unicode hex="00A1"/>
  <outline>
    <contour>
      <point x="180" y="292" type="line"/>
      <point x="153" y="215"/>
      <point x="129" y="138"/>
      <point x="110" y="62" type="curve"/>
      <point x="61" y="-133" type="line" smooth="yes"/>
      <point x="53" y="-165"/>
      <point x="65" y="-175"/>
      <point x="110" y="-175" type="curve" smooth="yes"/>
      <point x="120" y="-175"/>
      <point x="128" y="-174"/>
      <point x="135" y="-172" type="curve"/>
      <point x="138" y="-137"/>
      <point x="145" y="-102"/>
      <point x="155" y="-64" type="curve" smooth="yes"/>
      <point x="186" y="62" type="line"/>
      <point x="216" y="181"/>
      <point x="233" y="266"/>
      <point x="222" y="280" type="curve" smooth="yes"/>
      <point x="215" y="290"/>
      <point x="200" y="292"/>
      <point x="184" y="292" type="curve"/>
    </contour>
    <contour>
      <point x="200" y="527" type="curve"/>
      <point x="184" y="461" type="line" smooth="yes"/>
      <point x="175" y="426"/>
      <point x="195" y="406"/>
      <point x="246" y="406" type="curve" smooth="yes"/>
      <point x="268" y="406"/>
      <point x="286" y="410"/>
      <point x="302" y="419" type="curve"/>
      <point x="318" y="484" type="line" smooth="yes"/>
      <point x="327" y="520"/>
      <point x="307" y="540"/>
      <point x="256" y="540" type="curve" smooth="yes"/>
      <point x="234" y="540"/>
      <point x="216" y="535"/>
    </contour>
  </outline>
</glyph>
<glyph name="cent" format="1">
  <advance width="600"/>
  <unicode hex="00A2"/>
  <outline>
    <contour>
      <point x="394" y="424" type="line"/>
      <point x="487" y="710" type="line" smooth="yes"/>
      <point x="501" y="751"/>
      <point x="495" y="767"/>
      <point x="463" y="767" type="curve" smooth="yes"/>
      <point x="452" y="767"/>
      <point x="441" y="765"/>
      <point x="434" y="763" type="curve"/>
      <point x="434" y="739"/>
      <point x="429" y="716"/>
      <point x="419" y="675" type="curve"/>
      <point x="364" y="453" type="line" smooth="yes"/>
      <point x="360" y="434"/>
      <point x="368" y="424"/>
      <point x="390" y="424" type="curve" smooth="yes"/>
    </contour>
    <contour>
      <point x="313" y="270" type="line"/>
      <point x="220" y="-16" type="line" smooth="yes"/>
      <point x="206" y="-57"/>
      <point x="212" y="-73"/>
      <point x="244" y="-73" type="curve" smooth="yes"/>
      <point x="254" y="-73"/>
      <point x="266" y="-71"/>
      <point x="273" y="-69" type="curve"/>
      <point x="273" y="-45"/>
      <point x="278" y="-22"/>
      <point x="288" y="19" type="curve"/>
      <point x="343" y="241" type="line" smooth="yes"/>
      <point x="347" y="260"/>
      <point x="338" y="270"/>
      <point x="317" y="270" type="curve" smooth="yes"/>
    </contour>
    <contour>
      <point x="438" y="623" type="curve" smooth="yes"/>
      <point x="288" y="623"/>
      <point x="145" y="515"/>
      <point x="94" y="313" type="curve" smooth="yes"/>
      <point x="91" y="299" type="line" smooth="yes"/>
      <point x="57" y="162"/>
      <point x="123" y="77"/>
      <point x="283" y="77" type="curve" smooth="yes"/>
      <point x="293" y="77"/>
      <point x="307" y="89"/>
      <point x="314" y="116" type="curve"/>
      <point x="168" y="119"/>
      <point x="121" y="194"/>
      <point x="146" y="298" type="curve" smooth="yes"/>
      <point x="150" y="313" type="line" smooth="yes"/>
      <point x="187" y="460"/>
      <point x="289" y="568"/>
      <point x="416" y="568" type="curve" smooth="yes"/>
      <point x="495" y="568"/>
      <point x="525" y="546"/>
      <point x="559" y="501" type="curve"/>
      <point x="563" y="501" type="line"/>
      <point x="566" y="507"/>
      <point x="569" y="513"/>
      <point x="571" y="522" type="curve" smooth="yes"/>
      <point x="576" y="541"/>
      <point x="579" y="566"/>
      <point x="571" y="578" type="curve" smooth="yes"/>
      <point x="547" y="609"/>
      <point x="502" y="623"/>
    </contour>
    <contour>
      <point x="134" y="205" type="curve"/>
      <point x="91" y="152"/>
      <point x="172" y="77"/>
      <point x="283" y="77" type="curve" smooth="yes"/>
      <point x="356" y="77"/>
      <point x="426" y="101"/>
      <point x="461" y="129" type="curve" smooth="yes"/>
      <point x="477" y="142"/>
      <point x="486" y="169"/>
      <point x="489" y="182" type="curve"/>
      <point x="491" y="191"/>
      <point x="492" y="196"/>
      <point x="492" y="201" type="curve"/>
      <point x="488" y="201" type="line"/>
      <point x="431" y="154"/>
      <point x="375" y="132"/>
      <point x="297" y="132" type="curve" smooth="yes"/>
      <point x="214" y="132"/>
      <point x="169" y="155"/>
    </contour>
  </outline>
</glyph>
<glyph name="sterling" format="1">
  <advance width="600"/>
  <unicode hex="00A3"/>
  <outline>
    <contour>
      <point x="403" y="664" type="curve" smooth="yes"/>
      <point x="501" y="664"/>
      <point x="553" y="630"/>
      <point x="581" y="563" type="curve"/>
      <point x="585" y="563" type="line"/>
      <point x="593" y="576"/>
      <point x="597" y="587"/>
      <point x="601" y="602" type="curve" smooth="yes"/>
      <point x="606" y="623"/>
      <point x="606" y="637"/>
      <point x="592" y="657" type="curve" smooth="yes"/>
      <point x="567" y="689"/>
      <point x="506" y="719"/>
      <point x="417" y="719" type="curve" smooth="yes"/>
      <point x="285" y="719"/>
      <point x="183" y="649"/>
      <point x="157" y="546" type="curve" smooth="yes"/>
      <point x="156" y="539" type="line" smooth="yes"/>
      <point x="147" y="503"/>
      <point x="168" y="496"/>
      <point x="189" y="496" type="curve"/>
      <point x="216" y="601"/>
      <point x="282" y="664"/>
    </contour>
    <contour>
      <point x="156" y="539" type="curve" smooth="yes"/>
      <point x="121" y="401"/>
      <point x="207" y="292"/>
      <point x="172" y="152" type="curve" smooth="yes"/>
      <point x="154" y="77"/>
      <point x="111" y="43"/>
      <point x="50" y="43" type="curve" smooth="yes"/>
      <point x="28" y="43"/>
      <point x="15" y="45"/>
      <point x="3" y="56" type="curve"/>
      <point x="-1" y="56" type="line"/>
      <point x="-6" y="48"/>
      <point x="-8" y="43"/>
      <point x="-10" y="35" type="curve" smooth="yes"/>
      <point x="-18" y="4"/>
      <point x="-5" y="-12"/>
      <point x="38" y="-12" type="curve" smooth="yes"/>
      <point x="43" y="-12" type="line" smooth="yes"/>
      <point x="142" y="-12"/>
      <point x="201" y="57"/>
      <point x="225" y="150" type="curve" smooth="yes"/>
      <point x="262" y="299"/>
      <point x="176" y="411"/>
      <point x="212" y="555" type="curve" smooth="yes"/>
      <point x="217" y="577"/>
      <point x="225" y="598"/>
      <point x="239" y="620" type="curve"/>
      <point x="187" y="620"/>
      <point x="166" y="581"/>
    </contour>
    <contour>
      <point x="157" y="78" type="curve"/>
      <point x="231" y="20"/>
      <point x="295" y="-12"/>
      <point x="374" y="-12" type="curve" smooth="yes"/>
      <point x="385" y="-12" type="line" smooth="yes"/>
      <point x="452" y="-12"/>
      <point x="493" y="24"/>
      <point x="502" y="62" type="curve"/>
      <point x="507" y="80"/>
      <point x="504" y="94"/>
      <point x="500" y="105" type="curve"/>
      <point x="496" y="105" type="line"/>
      <point x="469" y="60"/>
      <point x="442" y="44"/>
      <point x="391" y="44" type="curve" smooth="yes"/>
      <point x="319" y="44"/>
      <point x="256" y="72"/>
      <point x="189" y="123" type="curve"/>
      <point x="180" y="125"/>
      <point x="162" y="104"/>
    </contour>
    <contour>
      <point x="72" y="353" type="line"/>
      <point x="72" y="350"/>
      <point x="71" y="345"/>
      <point x="70" y="342" type="curve" smooth="yes"/>
      <point x="65" y="324"/>
      <point x="65" y="312"/>
      <point x="72" y="303" type="curve" smooth="yes"/>
      <point x="74" y="299"/>
      <point x="79" y="297"/>
      <point x="86" y="297" type="curve" smooth="yes"/>
      <point x="450" y="297" type="line"/>
      <point x="451" y="301"/>
      <point x="452" y="306"/>
      <point x="453" y="310" type="curve" smooth="yes"/>
      <point x="460" y="335"/>
      <point x="458" y="353"/>
      <point x="438" y="353" type="curve" smooth="yes"/>
    </contour>
  </outline>
</glyph>
<glyph name="yen" format="1">
  <advance width="600"/>
  <unicode hex="00A5"/>
  <outline>
    <contour>
      <point x="68" y="383" type="line"/>
      <point x="67" y="380"/>
      <point x="66" y="375"/>
      <point x="65" y="372" type="curve" smooth="yes"/>
      <point x="61" y="354"/>
      <point x="61" y="343"/>
      <point x="68" y="334" type="curve" smooth="yes"/>
      <point x="70" y="331"/>
      <point x="75" y="328"/>
      <point x="82" y="328" type="curve"/>
      <point x="216" y="328" type="line"/>
      <point x="217" y="332"/>
      <point x="219" y="337"/>
      <point x="220" y="341" type="curve" smooth="yes"/>
      <point x="225" y="365"/>
      <point x="224" y="383"/>
      <point x="204" y="383" type="curve"/>
    </contour>
    <contour>
      <point x="428" y="383" type="line"/>
      <point x="420" y="374"/>
      <point x="414" y="366"/>
      <point x="411" y="354" type="curve" smooth="yes"/>
      <point x="408" y="342"/>
      <point x="408" y="328"/>
      <point x="427" y="328" type="curve"/>
      <point x="578" y="328" type="line"/>
      <point x="579" y="332"/>
      <point x="580" y="337"/>
      <point x="581" y="341" type="curve" smooth="yes"/>
      <point x="587" y="365"/>
      <point x="586" y="383"/>
      <point x="566" y="383" type="curve"/>
    </contour>
    <contour>
      <point x="527" y="128" type="line"/>
      <point x="528" y="131"/>
      <point x="529" y="136"/>
      <point x="530" y="139" type="curve" smooth="yes"/>
      <point x="535" y="157"/>
      <point x="534" y="168"/>
      <point x="528" y="177" type="curve" smooth="yes"/>
      <point x="525" y="180"/>
      <point x="521" y="182"/>
      <point x="514" y="182" type="curve"/>
      <point x="19" y="182" type="line"/>
      <point x="18" y="178"/>
      <point x="16" y="173"/>
      <point x="15" y="170" type="curve" smooth="yes"/>
      <point x="9" y="146"/>
      <point x="10" y="128"/>
      <point x="31" y="128" type="curve"/>
    </contour>
    <contour>
      <point x="153" y="710" type="line"/>
      <point x="132" y="445"/>
      <point x="169" y="358"/>
      <point x="263" y="232" type="curve"/>
      <point x="267" y="227"/>
      <point x="277" y="226"/>
      <point x="284" y="226" type="curve"/>
      <point x="296" y="226"/>
      <point x="309" y="242"/>
      <point x="315" y="264" type="curve"/>
      <point x="225" y="382"/>
      <point x="187" y="454"/>
      <point x="206" y="689" type="curve"/>
      <point x="208" y="703"/>
      <point x="192" y="710"/>
      <point x="164" y="710" type="curve" smooth="yes"/>
    </contour>
    <contour>
      <point x="613" y="710" type="line"/>
      <point x="525" y="483"/>
      <point x="443" y="386"/>
      <point x="286" y="264" type="curve"/>
      <point x="255" y="240"/>
      <point x="277" y="226"/>
      <point x="284" y="226" type="curve"/>
      <point x="314" y="226" type="line"/>
      <point x="473" y="352"/>
      <point x="575" y="462"/>
      <point x="659" y="680" type="curve"/>
      <point x="665" y="695"/>
      <point x="651" y="710"/>
      <point x="623" y="710" type="curve"/>
    </contour>
    <contour>
      <point x="268" y="-7" type="curve"/>
      <point x="270" y="28"/>
      <point x="278" y="63"/>
      <point x="287" y="101" type="curve" smooth="yes"/>
      <point x="323" y="243" type="line" smooth="yes"/>
      <point x="328" y="264"/>
      <point x="302" y="268"/>
      <point x="273" y="268" type="curve"/>
      <point x="219" y="51" type="line" smooth="yes"/>
      <point x="213" y="28"/>
      <point x="211" y="11"/>
      <point x="220" y="-1" type="curve" smooth="yes"/>
      <point x="224" y="-7"/>
      <point x="231" y="-10"/>
      <point x="247" y="-10" type="curve" smooth="yes"/>
      <point x="254" y="-10"/>
      <point x="260" y="-9"/>
    </contour>
  </outline>
</glyph>
<glyph name="brokenbar" format="1">
  <advance width="300"/>
  <unicode hex="00A6"/>
  <outline>
    <contour>
      <point x="239" y="760" type="curve"/>
      <point x="236" y="725"/>
      <point x="229" y="690"/>
      <point x="219" y="653" type="curve" smooth="yes"/>
      <point x="155" y="395" type="line" smooth="yes"/>
      <point x="150" y="376"/>
      <point x="168" y="370"/>
      <point x="193" y="370" type="curve" smooth="yes"/>
      <point x="197" y="370"/>
      <point x="201" y="370"/>
      <point x="205" y="370" type="curve"/>
      <point x="288" y="703" type="line" smooth="yes"/>
      <point x="293" y="725"/>
      <point x="296" y="742"/>
      <point x="287" y="754" type="curve" smooth="yes"/>
      <point x="283" y="760"/>
      <point x="275" y="763"/>
      <point x="259" y="763" type="curve" smooth="yes"/>
      <point x="252" y="763"/>
      <point x="246" y="762"/>
    </contour>
    <contour>
      <point x="114" y="230" type="curve"/>
      <point x="22" y="-135" type="line"/>
      <point x="18" y="-154"/>
      <point x="35" y="-160"/>
      <point x="61" y="-160" type="curve" smooth="yes"/>
      <point x="64" y="-160"/>
      <point x="69" y="-160"/>
      <point x="72" y="-160" type="curve"/>
      <point x="161" y="194" type="line" smooth="yes"/>
      <point x="167" y="219"/>
      <point x="163" y="233"/>
      <point x="131" y="233" type="curve" smooth="yes"/>
      <point x="124" y="233"/>
      <point x="118" y="232"/>
    </contour>
  </outline>
</glyph>
